<?xml version="1.0" encoding="utf-8"?>
<!-- Generator: Adobe Illustrator 24.0.2, SVG Export Plug-In . SVG Version: 6.00 Build 0)  -->
<svg version="1.1" id="Capa_1" xmlns="http://www.w3.org/2000/svg" xmlns:xlink="http://www.w3.org/1999/xlink" x="0px" y="0px"
	 viewBox="0 0 500 500" style="enable-background:new 0 0 500 500;" xml:space="preserve">
<style type="text/css">
	.st0{fill:#383838;}
</style>
<title>Surgir en la vida</title>
<path class="st0" d="M166.9,343.5c1.8-1.8,2.8-4.2,2.8-6.7c0-2.5-1-5-2.8-6.7l-57.7-57.7l281.8,0L333.1,330
	c-1.8,1.8-2.8,4.2-2.8,6.7c0,2.5,1,5,2.8,6.7l18,18c1.8,1.8,4.2,2.8,6.7,2.8c2.5,0,5-1,6.7-2.8l104.7-104.7c1.8-1.8,2.8-4.2,2.8-6.7
	s-1-5-2.8-6.7L364.6,138.6c-1.8-1.8-4.2-2.8-6.7-2.8c-2.5,0-5,1-6.7,2.8l-18,18c-1.9,1.9-2.8,4.3-2.8,6.7c0,2.4,0.9,4.9,2.8,6.7
	l57.7,57.7l-281.8,0l57.7-57.7c1.8-1.8,2.8-4.2,2.8-6.7c0-2.5-1-5-2.8-6.7l-18-18c-1.8-1.8-4.2-2.8-6.7-2.8c-2.5,0-5,1-6.7,2.8
	L30.7,243.3c-1.9,1.9-2.8,4.3-2.8,6.7s0.9,4.9,2.8,6.7l104.7,104.7c1.8,1.8,4.2,2.8,6.7,2.8c2.5,0,5-1,6.7-2.8L166.9,343.5z"/>
</svg>
