<?xml version="1.0" encoding="utf-8"?>
<!-- Generator: Adobe Illustrator 24.0.2, SVG Export Plug-In . SVG Version: 6.00 Build 0)  -->
<svg version="1.0" id="Capa_1" xmlns="http://www.w3.org/2000/svg" xmlns:xlink="http://www.w3.org/1999/xlink" x="0px" y="0px"
	 viewBox="0 0 1024 1468" style="enable-background:new 0 0 1024 1468;" xml:space="preserve">
<style type="text/css">
	.st0{fill:none;stroke:#757575;stroke-width:2;stroke-miterlimit:10;}
	.st1{fill:#3A3A3A;}
	.st2{fill:#FFFFFF;}
	.st3{font-family:'AvenirNext-Bold';}
	.st4{font-size:40px;}
	.st5{letter-spacing:-2;}
	.st6{fill:#29AA9B;}
	.st7{font-family:'Cocogoose';}
	.st8{font-size:25px;}
	.st9{fill:#E2E2E2;}
	.st10{font-family:'Avenir-Medium';}
	.st11{font-size:18px;}
	.st12{fill:#375591;}
	.st13{font-family:'Avenir-Book';}
	.st14{font-size:12px;}
	.st15{fill:none;stroke:#757575;stroke-width:2.1;stroke-miterlimit:10;}
	.st16{fill:none;stroke:#757575;stroke-width:2.14;stroke-miterlimit:10;}
</style>
<title>esquema</title>
<path class="st0" d="M396,1072h-29v-53"/>
<path class="st0" d="M396,1126h-29v-53"/>
<rect x="238" y="53" class="st1" width="548" height="71"/>
<text transform="matrix(1 0 0 1 375 105.1)" class="st2 st3 st4"> HORI</text>
<text transform="matrix(1 0 0 1 488.84 105.1)" class="st2 st3 st4">Z</text>
<text transform="matrix(1 0 0 1 513.28 105.1)" class="st2 st3 st4">ON</text>
<text transform="matrix(1 0 0 1 578.9199 105.1)" class="st2 st3 st4 st5">T</text>
<text transform="matrix(1 0 0 1 599.76 105.1)" class="st2 st3 st4">A</text>
<text transform="matrix(1 0 0 1 628.9199 105.1)" class="st2 st3 st4">L</text>
<rect x="238" y="822" class="st1" width="548" height="71"/>
<text transform="matrix(1 0 0 1 416.92 874.1)" class="st2 st3 st4">VE</text>
<text transform="matrix(1 0 0 1 468.48 874.1)" class="st2 st3 st4">R</text>
<text transform="matrix(1 0 0 1 494.52 874.1)" class="st2 st3 st4">TI</text>
<text transform="matrix(1 0 0 1 530.48 874.1)" class="st2 st3 st4">C</text>
<text transform="matrix(1 0 0 1 557.84 874.1)" class="st2 st3 st4">A</text>
<text transform="matrix(1 0 0 1 587 874.1)" class="st2 st3 st4">L</text>
<rect x="77" y="915" class="st6" width="237" height="77"/>
<text transform="matrix(1 0 0 1 113.4 948.46)" class="st2 st7 st8">CONFIANZA</text>
<text transform="matrix(1 0 0 1 98.4391 978.46)" class="st2 st7 st8">INST. &amp; DEMO.</text>
<rect x="351.5" y="915" class="st6" width="320.9" height="77"/>
<text transform="matrix(1 0 0 1 401.61 948.46)" class="st2 st7 st8">PARTICIPACIÓN</text>
<text transform="matrix(1 0 0 1 444.5 978.46)" class="st2 st7 st8">POLÍTICA</text>
<rect x="353" y="1010" class="st9" width="319" height="28"/>
<text transform="matrix(1 0 0 1 416.14 1029.4)" class="st10 st11">Participación ciudadana</text>
<rect x="715" y="915" class="st6" width="233" height="77"/>
<text transform="matrix(1 0 0 1 733.99 948.46)" class="st2 st7 st8">JUSTICIA DIST.</text>
<text transform="matrix(1 0 0 1 726.3201 978.46)" class="st2 st7 st8">Y MERITOCRAC.</text>
<rect x="384" y="1048" class="st12" width="288" height="43"/>
<text transform="matrix(1 0 0 1 443.45 1068.0699)" class="st2 st13 st14">Ha firmado una carta o petición</text>
<text transform="matrix(1 0 0 1 472.96 1080.0699)" class="st2 st13 st14">apoyando una causa</text>
<rect x="384" y="1102" class="st12" width="288" height="43"/>
<text transform="matrix(1 0 0 1 428.66 1122.0699)" class="st2 st13 st14">Ha asistido a marcha o manifestación</text>
<text transform="matrix(1 0 0 1 506.23 1134.0699)" class="st2 st13 st14">paciífica</text>
<path class="st0" d="M396,1177h-29v-53"/>
<path class="st0" d="M396,1307h-29v-53"/>
<path class="st0" d="M396,1361h-29v-53"/>
<rect x="353" y="1245" class="st9" width="319" height="28"/>
<text transform="matrix(1 0 0 1 451.49 1264.4)" class="st10 st11">Interés político</text>
<rect x="384" y="1283" class="st12" width="288" height="43"/>
<text transform="matrix(1 0 0 1 444.01 1303.0699)" class="st2 st13 st14">Habla de política con familiares</text>
<text transform="matrix(1 0 0 1 503.32 1315.0699)" class="st2 st13 st14">o amigos</text>
<rect x="384" y="1337" class="st12" width="288" height="43"/>
<text transform="matrix(1 0 0 1 431.67 1357.0699)" class="st2 st13 st14">Se informa sobre política en medios</text>
<text transform="matrix(1 0 0 1 482.42 1369.0699)" class="st2 st13 st14">de comunicación</text>
<rect x="384" y="1153" class="st12" width="288" height="43"/>
<text transform="matrix(1 0 0 1 431.22 1173.0699)" class="st2 st13 st14">Ha usado redes sociales para opinar</text>
<text transform="matrix(1 0 0 1 479.33 1185.0699)" class="st2 st13 st14">en temas públicos</text>
<path class="st0" d="M122,1064H93v-40"/>
<path class="st0" d="M122,1102H93v-40"/>
<rect x="116.4" y="1049" class="st12" width="196.6" height="28"/>
<text transform="matrix(1 0 0 1 174.44 1067.87)" class="st2 st13 st14">En el gobierno</text>
<rect x="116.4" y="1086" class="st12" width="196.6" height="28"/>
<text transform="matrix(1 0 0 1 150.02 1104.87)" class="st2 st13 st14">En los partidos políticos</text>
<path class="st0" d="M122,1140H93v-40"/>
<rect x="116.4" y="1124" class="st12" width="196.6" height="28"/>
<text transform="matrix(1 0 0 1 173.11 1142.87)" class="st2 st13 st14">En Carabineros</text>
<path class="st0" d="M122,1181H93v-40"/>
<path class="st0" d="M122,1219H93v-40"/>
<rect x="116.4" y="1166" class="st12" width="196.6" height="28"/>
<text transform="matrix(1 0 0 1 169.67 1184.87)" class="st2 st13 st14">En los sindicatos</text>
<rect x="116.4" y="1203" class="st12" width="196.6" height="28"/>
<text transform="matrix(1 0 0 1 161.11 1221.87)" class="st2 st13 st14">En el Poder Judicial</text>
<path class="st15" d="M396,1221h-29v-44"/>
<rect x="384" y="1205" class="st12" width="285.1" height="28"/>
<text transform="matrix(1 0 0 1 456.05 1222.87)" class="st2 st13 st14">Ha participado en huelgas</text>
<path class="st0" d="M756,1072h-29v-53"/>
<path class="st0" d="M756,1126h-29v-53"/>
<rect x="715" y="1010" class="st9" width="233" height="28"/>
<text transform="matrix(1 0 0 1 747.8201 1029.4)" class="st10 st11">Percepción de justicia</text>
<rect x="744" y="1048" class="st12" width="206" height="43"/>
<text transform="matrix(1 0 0 1 754.4199 1068.0699)" class="st2 st13 st14">“Las personas son recompensadas </text>
<text transform="matrix(1 0 0 1 797.89 1080.0699)" class="st2 st13 st14">por sus esfuerzos”</text>
<rect x="744" y="1102" class="st12" width="206" height="43"/>
<text transform="matrix(1 0 0 1 754.4199 1122.0699)" class="st2 st13 st14">“Las personas son recompensadas </text>
<text transform="matrix(1 0 0 1 794.6799 1134.0699)" class="st2 st13 st14">por su inteligencia”</text>
<path class="st0" d="M756,1218h-29v-53"/>
<path class="st0" d="M756,1272h-29v-53"/>
<rect x="715" y="1156" class="st9" width="233" height="28"/>
<text transform="matrix(1 0 0 1 771 1175.4)" class="st10 st11">Surgir en la vida</text>
<rect x="744" y="1194" class="st12" width="204" height="43"/>
<text transform="matrix(1 0 0 1 761.53 1214.0699)" class="st2 st13 st14">Importancia de provenir de una </text>
<text transform="matrix(1 0 0 1 800.1201 1226.0699)" class="st2 st13 st14">familia adinerada</text>
<rect x="744" y="1248" class="st12" width="204" height="43"/>
<text transform="matrix(1 0 0 1 781.53 1268.0699)" class="st2 st13 st14">Importancia de tener un</text>
<text transform="matrix(1 0 0 1 780.3101 1280.0699)" class="st2 st13 st14">buen nivel de educación</text>
<path class="st0" d="M756,1325h-29v-53"/>
<path class="st0" d="M756,1379h-29v-53"/>
<rect x="744" y="1301" class="st12" width="204" height="43"/>
<text transform="matrix(1 0 0 1 789.87 1321.0699)" class="st2 st13 st14">Importancia de tener</text>
<text transform="matrix(1 0 0 1 821.4399 1333.0699)" class="st2 st13 st14">ambición</text>
<rect x="744" y="1355" class="st12" width="204" height="43"/>
<text transform="matrix(1 0 0 1 783.55 1375.0699)" class="st2 st13 st14">Importancia del trabajo</text>
<text transform="matrix(1 0 0 1 833.45 1387.0699)" class="st2 st13 st14">duro</text>
<path class="st16" d="M396,1407h-29v-46"/>
<rect x="384" y="1391" class="st12" width="288" height="28"/>
<text transform="matrix(1 0 0 1 480.32 1408.87)" class="st2 st13 st14">Interés en política</text>
<path class="st0" d="M122,1257H93v-40"/>
<rect x="116.4" y="1241" class="st12" width="196.6" height="28"/>
<text transform="matrix(1 0 0 1 146.88 1259.87)" class="st2 st13 st14">En las empresas privadas</text>
<path class="st0" d="M122,1297H93v-40"/>
<rect x="116.4" y="1281" class="st12" width="196.6" height="28"/>
<text transform="matrix(1 0 0 1 147.3 1299.87)" class="st2 st13 st14">En el </text>
<text transform="matrix(1 0 0 1 177.31 1299.87)" class="st2 st13 st14">C</text>
<text transform="matrix(1 0 0 1 186.24 1299.87)" class="st2 st13 st14">ongreso Nacional</text>
<path class="st0" d="M122,1335H93v-40"/>
<rect x="116.4" y="1319" class="st12" width="196.6" height="28"/>
<text transform="matrix(1 0 0 1 127.55 1337.87)" class="st2 st13 st14">En el Presidente de la República</text>
<path class="st0" d="M765,297h-29v-40"/>
<path class="st0" d="M765,335h-29v-40"/>
<path class="st0" d="M552,392h-29v-34"/>
<path class="st0" d="M342,305h-29v-34"/>
<path class="st0" d="M551,305h-29v-34"/>
<path class="st0" d="M125.5,296.5h-29c-0.2-12.2-0.3-24.3-0.5-36.5"/>
<rect x="75" y="148" class="st6" width="209" height="77"/>
<text transform="matrix(1 0 0 1 124.01 181.46)" class="st2 st7 st8">SENTIDO</text>
<text transform="matrix(1 0 0 1 89.85 211.46)" class="st2 st7 st8">PERTENENCIA</text>
<rect x="300" y="148" class="st6" width="408" height="77"/>
<text transform="matrix(1 0 0 1 363.47 181.46)" class="st2 st7 st8">CALIDAD DE VIDA EN</text>
<text transform="matrix(1 0 0 1 400 211.46)" class="st2 st7 st8">EL VECINDARIO</text>
<rect x="726" y="148" class="st6" width="223" height="77"/>
<text transform="matrix(1 0 0 1 793.46 181.46)" class="st2 st7 st8">REDES</text>
<text transform="matrix(1 0 0 1 771.3 211.46)" class="st2 st7 st8">SOCIALES</text>
<rect x="83" y="243" class="st9" width="198" height="28"/>
<text transform="matrix(1 0 0 1 104.44 262.4)" class="st10 st11">Identidad nacional</text>
<rect x="114" y="282" class="st12" width="166" height="28"/>
<text transform="matrix(1 0 0 1 128.65 300.87)" class="st2 st13 st14">“Me identifico con Chile”</text>
<rect x="726" y="243" class="st9" width="221" height="28"/>
<text transform="matrix(1 0 0 1 741.8 262.4)" class="st10 st11">Confianza interpersonal</text>
<rect x="300" y="243" class="st9" width="198" height="28"/>
<text transform="matrix(1 0 0 1 329.95 264.4)" class="st10 st11">Cohesión barrial</text>
<rect x="510" y="335" class="st9" width="198" height="28"/>
<text transform="matrix(0.9567 0 0 1 520.6035 355)" class="st10 st11">Satisfacción residencial</text>
<rect x="509" y="243" class="st9" width="198" height="28"/>
<text transform="matrix(1 0 0 1 532.26 264.4)" class="st10 st11">Confianza vecinos</text>
<path class="st0" d="M125.5,378.5h-29c-0.2-12.2-0.3-24.3-0.5-36.5"/>
<rect x="83" y="328" class="st9" width="198" height="28"/>
<text transform="matrix(1 0 0 1 112.62 347.4)" class="st10 st11">Orgullo nacional</text>
<rect x="114" y="364" class="st12" width="166" height="43"/>
<rect x="538" y="281" class="st12" width="169" height="43"/>
<text transform="matrix(1 0 0 1 130.21 382.87)" class="st2 st13 st14"> “Me siento orgulloso de</text>
<text transform="matrix(1 0 0 1 164.99 397.27)" class="st2 st13 st14">ser chileno”</text>
<text transform="matrix(1 0 0 1 557.37 301.07)" class="st2 st13 st14">¿Cuánto confía usted en</text>
<text transform="matrix(1 0 0 1 589.48 313.07)" class="st2 st13 st14">sus vecinos?</text>
<rect x="329" y="281" class="st12" width="169" height="43"/>
<text transform="matrix(1 0 0 1 349.5 301.07)" class="st2 st13 st14">“Este barrio es per</text>
<text transform="matrix(1 0 0 1 449.91 301.07)" class="st2 st13 st14">f</text>
<text transform="matrix(1 0 0 1 453.95 301.07)" class="st2 st13 st14">ecto</text>
<text transform="matrix(1 0 0 1 390.28 313.07)" class="st2 st13 st14">para mí”</text>
<path class="st0" d="M342,358h-29v-53"/>
<rect x="329" y="334" class="st12" width="169" height="43"/>
<text transform="matrix(1 0 0 1 347.72 354.07)" class="st2 st13 st14">“Me siento integrado en</text>
<text transform="matrix(1 0 0 1 381.74 366.07)" class="st2 st13 st14">este barrio”</text>
<path class="st0" d="M342,411h-29v-53"/>
<rect x="329" y="387" class="st12" width="169" height="43"/>
<text transform="matrix(1 0 0 1 340.16 407.07)" class="st2 st13 st14">“Me identifico con la gente</text>
<text transform="matrix(1 0 0 1 373.07 419.07)" class="st2 st13 st14">de este barrio”</text>
<path class="st0" d="M342,464h-29v-53"/>
<rect x="329" y="440" class="st12" width="169" height="43"/>
<text transform="matrix(1 0 0 1 358.19 460.07)" class="st2 st13 st14">“Este barrio es parte</text>
<text transform="matrix(1 0 0 1 393.5 472.07)" class="st2 st13 st14">de mí.”</text>
<path class="st0" d="M765,382h-29v-53"/>
<rect x="758" y="358" class="st12" width="189" height="43"/>
<text transform="matrix(1 0 0 1 784.95 376.07)" class="st2 st13 st14">Mayoría de la gente trata</text>
<text transform="matrix(1 0 0 1 821.8401 390.47)" class="st2 st13 st14">de ser justa</text>
<path class="st0" d="M342,556h-29v-34"/>
<rect x="300" y="497" class="st9" width="198" height="28"/>
<text transform="matrix(1 0 0 1 316.82 516.4)" class="st10 st11">Socialbilidad barrial</text>
<rect x="329" y="532" class="st12" width="169" height="43"/>
<text transform="matrix(1 0 0 1 353.28 552.07)" class="st2 st13 st14">“En este barrio es fácil</text>
<text transform="matrix(1 0 0 1 374.6 564.07)" class="st2 st13 st14">hacer amigos”</text>
<path class="st0" d="M342,609h-29v-53"/>
<rect x="329" y="585" class="st12" width="169" height="43"/>
<text transform="matrix(1 0 0 1 349.62 605.07)" class="st2 st13 st14">“En este barrio la gente</text>
<text transform="matrix(1 0 0 1 379.16 617.07)" class="st2 st13 st14">es sociable.”</text>
<path class="st0" d="M342,662h-29v-53"/>
<rect x="329" y="638" class="st12" width="169" height="43"/>
<text transform="matrix(1 0 0 1 349.62 658.07)" class="st2 st13 st14">“En este barrio la gente</text>
<text transform="matrix(1 0 0 1 384.73 670.07)" class="st2 st13 st14">es cordial”</text>
<path class="st0" d="M342,715h-29v-53"/>
<rect x="329" y="691" class="st12" width="169" height="43"/>
<text transform="matrix(1 0 0 1 342.06 711.07)" class="st2 st13 st14">“En este barrio la gente es </text>
<text transform="matrix(1 0 0 1 373.06 723.07)" class="st2 st13 st14">colaboradora.”</text>
<path class="st0" d="M552,552h-29v-53"/>
<rect x="539" y="530" class="st12" width="169" height="43"/>
<text transform="matrix(1 0 0 1 575.71 550.07)" class="st2 st13 st14">Áreas verdes y de</text>
<text transform="matrix(1 0 0 1 563.28 562.07)" class="st2 st13 st14">recreación disponibles</text>
<path class="st0" d="M552,606h-29v-53"/>
<rect x="539" y="582" class="st12" width="169" height="43"/>
<text transform="matrix(1 0 0 1 563.07 602.07)" class="st2 st13 st14">Proximidad al lugar de</text>
<text transform="matrix(1 0 0 1 574.63 614.07)" class="st2 st13 st14">actividad principal</text>
<path class="st0" d="M552,659h-29v-53"/>
<rect x="539" y="635" class="st12" width="169" height="43"/>
<text transform="matrix(1 0 0 1 555.61 655.07)" class="st2 st13 st14">Proximidad a colegios de </text>
<text transform="matrix(1 0 0 1 585.71 667.07)" class="st2 st13 st14">buena calidad</text>
<path class="st0" d="M552,712h-29v-53"/>
<rect x="539" y="688" class="st12" width="169" height="43"/>
<text transform="matrix(1 0 0 1 563.94 708.07)" class="st2 st13 st14">Proximidad a áreas de</text>
<text transform="matrix(1 0 0 1 598.72 720.07)" class="st2 st13 st14">comercio</text>
<path class="st0" d="M552,766h-29v-53"/>
<rect x="539" y="742" class="st12" width="169" height="43"/>
<text transform="matrix(1 0 0 1 554.62 762.07)" class="st2 st13 st14">Proximidad con familia</text>
<text transform="matrix(1 0 0 1 676.38 762.07)" class="st2 st13 st14">r</text>
<text transform="matrix(1 0 0 1 680.61 762.07)" class="st2 st13 st14">es</text>
<text transform="matrix(1 0 0 1 568.38 774.07)" class="st2 st13 st14">y/o amigos cercanos</text>
<rect x="539" y="369" class="st12" width="169" height="31"/>
<text transform="matrix(1 0 0 1 569.85 389.07)" class="st2 st13 st14">Seguridad de barrio</text>
<path class="st0" d="M552,426h-29v-40"/>
<rect x="539" y="409" class="st12" width="169" height="31"/>
<text transform="matrix(1 0 0 1 587.9399 429.07)" class="st2 st13 st14">Conectividad</text>
<path class="st0" d="M552,467h-29v-40"/>
<rect x="539" y="450" class="st12" width="169" height="31"/>
<text transform="matrix(1 0 0 1 563.15 470.07)" class="st2 st13 st14">Tamaño de la vivienda</text>
<path class="st0" d="M552,507h-29v-40"/>
<rect x="539" y="490" class="st12" width="169" height="31"/>
<text transform="matrix(1 0 0 1 564.16 510.07)" class="st2 st13 st14">Calidad de la vivienda</text>
<rect x="758" y="282" class="st12" width="189" height="28"/>
<text transform="matrix(1 0 0 1 771.8201 300.87)" class="st2 st13 st14">Confianza Social Generalizada</text>
<rect x="758" y="319" class="st12" width="189" height="28"/>
<text transform="matrix(1 0 0 1 772.29 337.87)" class="st2 st13 st14">Altruismo Social Generalizado</text>
<path class="st0" d="M765,472h-29v-40"/>
<path class="st0" d="M765,510h-29v-40"/>
<rect x="726" y="418" class="st9" width="221" height="28"/>
<text transform="matrix(1 0 0 1 773.9399 437.4)" class="st10 st11">Comp. prosocial</text>
<path class="st0" d="M765,766h-29v-53"/>
<rect x="758" y="742" class="st12" width="189" height="43"/>
<text transform="matrix(1 0 0 1 766.27 760.07)" class="st2 st13 st14">Asisto a reunión sobre temas de </text>
<text transform="matrix(1 0 0 1 778.8501 774.47)" class="st2 st13 st14">interés público/comunitario</text>
<path class="st0" d="M765,712h-29v-53"/>
<rect x="758" y="688" class="st12" width="189" height="43"/>
<text transform="matrix(1 0 0 1 804.03 706.07)" class="st2 st13 st14">Ayudo a alguien a</text>
<text transform="matrix(1 0 0 1 805.8401 720.47)" class="st2 st13 st14">conseguir trabajo</text>
<rect x="758" y="457" class="st12" width="189" height="28"/>
<text transform="matrix(1 0 0 1 790.49 475.87)" class="st2 st13 st14">Visito la casa de vecino</text>
<rect x="758" y="494" class="st12" width="189" height="28"/>
<text transform="matrix(1 0 0 1 787.1599 512.87)" class="st2 st13 st14">Amigos visitaron su casa</text>
<path class="st0" d="M765,548h-29v-40"/>
<rect x="758" y="532" class="st12" width="189" height="28"/>
<text transform="matrix(1 0 0 1 787.1599 550.87)" class="st2 st13 st14">Amigos visitaron su casa</text>
<path class="st0" d="M765,586h-29v-40"/>
<rect x="758" y="570" class="st12" width="189" height="28"/>
<text transform="matrix(1 0 0 1 797.1699 588.87)" class="st2 st13 st14">Hizo un voluntariado</text>
<path class="st0" d="M765,624h-29v-40"/>
<rect x="758" y="608" class="st12" width="189" height="28"/>
<text transform="matrix(1 0 0 1 792.27 626.87)" class="st2 st13 st14">Donó dinero a caridad</text>
<path class="st0" d="M765,664h-29v-40"/>
<rect x="758" y="648" class="st12" width="189" height="28"/>
<text transform="matrix(1 0 0 1 796.26 666.87)" class="st2 st13 st14">Prestó 10.000 o más.</text>
<rect x="79" y="1010" class="st9" width="234" height="28"/>
<text transform="matrix(1 0 0 1 101.97 1030.4)" class="st10 st11">Confianza Instituciones</text>
<path class="st0" d="M122,1416H93v-40"/>
<rect x="116.4" y="1401" class="st12" width="196.6" height="28"/>
<text transform="matrix(1 0 0 1 132.1 1419.87)" class="st2 st13 st14">Satisfacción con la democracia</text>
<rect x="79" y="1362" class="st9" width="234" height="28"/>
<text transform="matrix(1 0 0 1 100.47 1382.4)" class="st10 st11">Actitud hacia la democ.</text>
</svg>
