<?xml version="1.0" encoding="utf-8"?>
<!-- Generator: Adobe Illustrator 16.0.0, SVG Export Plug-In . SVG Version: 6.00 Build 0)  -->
<!DOCTYPE svg PUBLIC "-//W3C//DTD SVG 1.1//EN" "http://www.w3.org/Graphics/SVG/1.1/DTD/svg11.dtd">
<svg version="1.1" xmlns="http://www.w3.org/2000/svg" xmlns:xlink="http://www.w3.org/1999/xlink" x="0px" y="0px" width="399px"
	 height="88px" viewBox="0 0 399 88" enable-background="new 0 0 399 88" xml:space="preserve">
<g id="Capa_1">
	<g>
		<g>
			<path fill="#FC4E47" d="M36.213,46.115c0,6.497-5.783,12.042-10.376,12.042c-3.786,0-6.893-1.979-8.162-5.53V20.527H6.268v32.817
				c0.317,4.911,4.714,14.003,14.892,14.003c10.221,0,15.529-7.923,15.529-7.923v6.893H47.78v-45.79H36.213V46.115z"/>
			<path fill="#FC4E47" d="M85.646,1.672v24.845c-3.541-4.413-8.461-7.149-13.903-7.149c-10.787,0-19.526,7.43-19.526,23.99
				c0,13.25,5.812,23.989,19.526,23.989c5.442,0,10.363-2.737,13.903-7.147v6.117h11.251V1.672H85.646z M75.177,58.077
				c-7.336,0-10.444-6.605-10.444-14.755c0-10.184,4.677-14.754,10.444-14.754c5.768,0,10.445,6.606,10.445,14.754
				C85.622,51.472,80.945,58.077,75.177,58.077z"/>
			<path fill="#FC4E47" d="M113.758,84.812V59.968c3.543,4.413,8.461,7.149,13.902,7.149c10.787,0,19.528-7.432,19.528-23.989
				c0-13.249-5.81-23.989-19.528-23.989c-5.441,0-10.359,2.736-13.902,7.147v-6.118h-11.251v64.644H113.758z M124.229,28.407
				c7.336,0,10.445,6.607,10.445,14.756c0,10.186-4.681,14.756-10.445,14.756c-5.77,0-10.447-6.606-10.447-14.756
				C113.781,35.015,118.458,28.407,124.229,28.407z"/>
		</g>
		<g>
			<path fill="#424242" d="M154.981,19.941c0-0.274,0.247-0.523,0.525-0.523h1.048c0.306,0,0.525,0.249,0.525,0.523v11.514
				c0,3.146,1.959,5.603,5.189,5.603c3.255,0,5.244-2.402,5.244-5.55V19.941c0-0.274,0.22-0.523,0.523-0.523h1.05
				c0.276,0,0.523,0.249,0.523,0.523v11.677c0,4.196-2.981,7.399-7.341,7.399c-4.334,0-7.288-3.204-7.288-7.399V19.941z"/>
			<path fill="#424242" d="M176.384,19.637c0-0.274,0.248-0.496,0.526-0.496h0.688l12.449,15.514c0.029,0,0.029,0,0.058,0V19.941
				c0-0.274,0.219-0.523,0.523-0.523h0.966c0.276,0,0.524,0.249,0.524,0.523V38.52c0,0.277-0.248,0.497-0.524,0.497h-0.497
				l-12.669-15.818h-0.029v15.019c0,0.274-0.222,0.522-0.523,0.522h-0.966c-0.278,0-0.526-0.248-0.526-0.522V19.637z"/>
			<path fill="#424242" d="M199.145,19.941c0-0.274,0.248-0.523,0.524-0.523h1.103c0.276,0,0.525,0.249,0.525,0.523v18.277
				c0,0.274-0.249,0.522-0.525,0.522h-1.103c-0.276,0-0.524-0.248-0.524-0.522V19.941z"/>
			<path fill="#424242" d="M205.69,20.135c-0.168-0.358,0.056-0.717,0.47-0.717h1.103c0.25,0,0.413,0.166,0.469,0.302l6.875,15.461
				h0.109l6.875-15.461c0.056-0.137,0.246-0.302,0.468-0.302h1.104c0.415,0,0.635,0.359,0.469,0.717l-8.392,18.579
				c-0.083,0.164-0.248,0.303-0.469,0.303h-0.274c-0.193,0-0.387-0.139-0.472-0.303L205.69,20.135z"/>
			<path fill="#424242" d="M228.033,19.941c0-0.274,0.222-0.523,0.523-0.523h10.877c0.305,0,0.524,0.249,0.524,0.523v0.802
				c0,0.274-0.22,0.525-0.524,0.525h-9.276v6.736h7.924c0.276,0,0.523,0.247,0.523,0.524v0.8c0,0.304-0.247,0.523-0.523,0.523
				h-7.924v7.04h9.276c0.305,0,0.524,0.25,0.524,0.526v0.801c0,0.274-0.22,0.522-0.524,0.522h-10.877
				c-0.302,0-0.523-0.248-0.523-0.522V19.941z"/>
			<path fill="#424242" d="M245.763,19.941c0-0.274,0.222-0.523,0.526-0.523h7.149c3.312,0,6.015,2.597,6.015,5.88
				c0,2.539-1.682,4.667-4.082,5.629l3.78,7.013c0.193,0.358,0,0.8-0.469,0.8h-1.408c-0.25,0-0.386-0.137-0.443-0.248l-3.672-7.314
				h-5.271v7.04c0,0.274-0.248,0.522-0.523,0.522h-1.075c-0.305,0-0.526-0.248-0.526-0.522V19.941z M253.299,29.354
				c2.125,0,3.976-1.767,3.976-4.03c0-2.097-1.851-3.891-3.976-3.891h-5.355v7.921H253.299z"/>
			<path fill="#424242" d="M264.156,35.842c0.137-0.165,0.276-0.358,0.413-0.524c0.277-0.359,0.58-0.579,0.967-0.248
				c0.193,0.165,2.209,2.097,4.667,2.097c2.234,0,3.697-1.407,3.697-3.035c0-1.905-1.655-3.037-4.83-4.361
				c-3.037-1.326-4.857-2.569-4.857-5.718c0-1.875,1.49-4.912,5.877-4.912c2.707,0,4.723,1.409,4.723,1.409
				c0.165,0.081,0.498,0.414,0.165,0.937c-0.11,0.167-0.222,0.36-0.33,0.528c-0.25,0.383-0.524,0.496-0.967,0.246
				c-0.193-0.109-1.933-1.27-3.617-1.27c-2.926,0-3.811,1.876-3.811,3.037c0,1.851,1.41,2.927,3.729,3.894
				c3.725,1.516,6.128,2.926,6.128,6.126c0,2.87-2.732,4.97-5.964,4.97c-3.256,0-5.465-1.906-5.824-2.237
				C264.101,36.587,263.826,36.367,264.156,35.842z"/>
			<path fill="#424242" d="M281.501,19.941c0-0.274,0.248-0.523,0.523-0.523h1.104c0.278,0,0.525,0.249,0.525,0.523v18.277
				c0,0.274-0.247,0.522-0.525,0.522h-1.104c-0.275,0-0.523-0.248-0.523-0.522V19.941z"/>
			<path fill="#424242" d="M290.671,19.941c0-0.274,0.22-0.523,0.496-0.523h6.185c5.327,0,9.687,4.332,9.687,9.632
				c0,5.357-4.359,9.69-9.687,9.69h-6.185c-0.276,0-0.496-0.248-0.496-0.522V19.941z M296.908,36.837
				c4.525,0,7.812-3.229,7.812-7.787c0-4.525-3.287-7.756-7.812-7.756h-4.141v15.543H296.908z"/>
			<path fill="#424242" d="M309.923,38.022l8.393-18.578c0.082-0.165,0.22-0.303,0.47-0.303h0.275c0.248,0,0.387,0.138,0.469,0.303
				l8.336,18.578c0.166,0.358-0.055,0.718-0.467,0.718h-1.106c-0.247,0-0.414-0.167-0.469-0.302l-2.042-4.554h-9.8l-2.017,4.554
				c-0.054,0.136-0.222,0.302-0.467,0.302h-1.105C309.978,38.74,309.758,38.381,309.923,38.022z M323.034,32.171
				c-1.35-3.01-2.677-6.048-4.03-9.054h-0.219l-4.03,9.054H323.034z"/>
			<path fill="#424242" d="M332.267,19.941c0-0.274,0.22-0.523,0.495-0.523h6.186c5.326,0,9.687,4.332,9.687,9.632
				c0,5.357-4.36,9.69-9.687,9.69h-6.186c-0.275,0-0.495-0.248-0.495-0.522V19.941z M338.504,36.837
				c4.527,0,7.812-3.229,7.812-7.787c0-4.525-3.285-7.756-7.812-7.756h-4.141v15.543H338.504z"/>
			<path fill="#424242" d="M155.229,47.56c0-0.272,0.222-0.523,0.5-0.523h6.183c5.324,0,9.687,4.333,9.687,9.633
				c0,5.357-4.362,9.69-9.687,9.69h-6.183c-0.278,0-0.5-0.25-0.5-0.525V47.56z M161.468,64.456c4.527,0,7.812-3.229,7.812-7.786
				c0-4.526-3.285-7.757-7.812-7.757h-4.141v15.542H161.468z"/>
			<path fill="#424242" d="M177.24,47.56c0-0.272,0.249-0.523,0.525-0.523h1.104c0.276,0,0.525,0.25,0.525,0.523v18.276
				c0,0.274-0.249,0.525-0.525,0.525h-1.104c-0.276,0-0.525-0.25-0.525-0.525V47.56z"/>
			<path fill="#424242" d="M186.412,47.56c0-0.272,0.22-0.523,0.523-0.523h10.875c0.305,0,0.523,0.25,0.523,0.523v0.803
				c0,0.274-0.219,0.523-0.523,0.523h-9.276v6.737h7.925c0.276,0,0.524,0.246,0.524,0.523v0.799c0,0.304-0.248,0.526-0.524,0.526
				h-7.925v7.039h9.276c0.305,0,0.523,0.249,0.523,0.525v0.8c0,0.274-0.219,0.525-0.523,0.525h-10.875
				c-0.304,0-0.523-0.25-0.523-0.525V47.56z"/>
			<path fill="#424242" d="M212.615,46.76c2.787,0,4.804,0.966,6.681,2.567c0.22,0.222,0.245,0.553,0.026,0.772
				c-0.248,0.25-0.552,0.527-0.773,0.775c-0.247,0.276-0.413,0.248-0.717-0.028c-1.408-1.243-3.396-2.154-5.244-2.154
				c-4.362,0-7.676,3.643-7.676,7.924c0,4.25,3.313,7.977,7.676,7.977c3.036,0,4.968-1.161,4.968-1.161V59.57h-3.174
				c-0.304,0-0.524-0.221-0.524-0.497v-1.022c0-0.304,0.221-0.524,0.524-0.524h4.774c0.276,0,0.498,0.25,0.498,0.524v6.322
				c0,0.138-0.113,0.357-0.222,0.44c0,0-2.814,1.823-6.817,1.823c-5.521,0-9.967-4.39-9.967-9.91S207.094,46.76,212.615,46.76z"/>
			<path fill="#424242" d="M234.16,46.76c5.521,0,9.938,4.446,9.938,9.966s-4.417,9.91-9.938,9.91c-5.521,0-9.91-4.39-9.91-9.91
				S228.64,46.76,234.16,46.76z M234.16,64.704c4.388,0,8.005-3.587,8.005-7.978s-3.617-8.034-8.005-8.034
				c-4.389,0-7.978,3.643-7.978,8.034S229.771,64.704,234.16,64.704z"/>
			<path fill="#424242" d="M257.225,47.56c0-0.272,0.219-0.523,0.523-0.523h6.101c3.396,0,6.183,2.76,6.183,6.101
				c0,3.422-2.786,6.211-6.155,6.211h-4.555v6.487c0,0.274-0.246,0.525-0.523,0.525h-1.05c-0.305,0-0.523-0.25-0.523-0.525V47.56z
				 M263.711,57.307c2.265,0,4.198-1.851,4.198-4.224c0-2.236-1.934-3.945-4.198-3.945h-4.39v8.169H263.711z"/>
			<path fill="#424242" d="M283.569,46.76c5.522,0,9.939,4.446,9.939,9.966s-4.417,9.91-9.939,9.91c-5.52,0-9.911-4.39-9.911-9.91
				S278.05,46.76,283.569,46.76z M283.569,64.704c4.391,0,8.008-3.587,8.008-7.978s-3.617-8.034-8.008-8.034
				c-4.386,0-7.977,3.643-7.977,8.034S279.184,64.704,283.569,64.704z"/>
			<path fill="#424242" d="M299.124,47.56c0-0.272,0.22-0.523,0.523-0.523h7.15c3.312,0,6.017,2.597,6.017,5.878
				c0,2.541-1.684,4.667-4.084,5.633l3.78,7.012c0.193,0.356,0,0.801-0.47,0.801h-1.407c-0.25,0-0.387-0.138-0.443-0.25l-3.67-7.312
				h-5.271v7.038c0,0.274-0.248,0.525-0.523,0.525h-1.078c-0.304,0-0.523-0.25-0.523-0.525V47.56z M306.658,56.975
				c2.127,0,3.976-1.767,3.976-4.03c0-2.098-1.849-3.892-3.976-3.892h-5.355v7.922H306.658z"/>
			<path fill="#424242" d="M321.496,48.887h-4.804c-0.304,0-0.525-0.25-0.525-0.523V47.56c0-0.272,0.222-0.523,0.525-0.523h11.703
				c0.304,0,0.523,0.25,0.523,0.523v0.803c0,0.274-0.22,0.523-0.523,0.523h-4.804v16.949c0,0.274-0.249,0.525-0.523,0.525h-1.049
				c-0.278,0-0.523-0.25-0.523-0.525V48.887z"/>
			<path fill="#424242" d="M329.645,65.643l8.393-18.579c0.082-0.163,0.219-0.303,0.469-0.303h0.276c0.247,0,0.386,0.14,0.469,0.303
				l8.336,18.579c0.165,0.358-0.055,0.718-0.468,0.718h-1.105c-0.247,0-0.415-0.167-0.469-0.303l-2.043-4.554h-9.8l-2.015,4.554
				c-0.055,0.136-0.223,0.303-0.468,0.303h-1.108C329.698,66.361,329.479,66,329.645,65.643z M342.756,59.79
				c-1.35-3.009-2.677-6.044-4.03-9.053h-0.22l-4.029,9.053H342.756z"/>
			<path fill="#424242" d="M351.988,47.56c0-0.272,0.22-0.523,0.523-0.523h1.075c0.278,0,0.523,0.25,0.523,0.523v16.951h7.951
				c0.304,0,0.525,0.249,0.525,0.525v0.8c0,0.274-0.222,0.525-0.525,0.525h-9.55c-0.304,0-0.523-0.25-0.523-0.525V47.56z"/>
			<path fill="#424242" d="M366.93,47.56c0-0.272,0.22-0.523,0.523-0.523h10.879c0.302,0,0.522,0.25,0.522,0.523v0.803
				c0,0.274-0.221,0.523-0.522,0.523h-9.277v6.737h7.923c0.276,0,0.523,0.246,0.523,0.523v0.799c0,0.304-0.247,0.526-0.523,0.526
				h-7.923v7.039h9.277c0.302,0,0.522,0.249,0.522,0.525v0.8c0,0.274-0.221,0.525-0.522,0.525h-10.879
				c-0.304,0-0.523-0.25-0.523-0.525V47.56z"/>
			<path fill="#424242" d="M383.417,63.46c0.136-0.164,0.275-0.357,0.412-0.523c0.278-0.359,0.58-0.58,0.967-0.247
				c0.194,0.163,2.21,2.097,4.667,2.097c2.235,0,3.697-1.406,3.697-3.037c0-1.903-1.655-3.036-4.829-4.359
				c-3.037-1.328-4.858-2.57-4.858-5.716c0-1.878,1.491-4.915,5.882-4.915c2.702,0,4.718,1.41,4.718,1.41
				c0.165,0.08,0.498,0.413,0.165,0.938c-0.111,0.166-0.222,0.36-0.33,0.526c-0.25,0.383-0.523,0.496-0.967,0.247
				c-0.193-0.112-1.934-1.269-3.617-1.269c-2.926,0-3.81,1.875-3.81,3.035c0,1.85,1.409,2.926,3.728,3.893
				c3.726,1.518,6.128,2.927,6.128,6.127c0,2.871-2.732,4.97-5.963,4.97c-3.257,0-5.467-1.906-5.822-2.236
				C383.36,64.207,383.086,63.987,383.417,63.46z"/>
		</g>
	</g>
</g>
<g id="Pregrado">
</g>
<g id="Capa_3">
</g>
</svg>
