<?xml version="1.0" encoding="utf-8"?>
<!-- Generator: Adobe Illustrator 16.0.0, SVG Export Plug-In . SVG Version: 6.00 Build 0)  -->
<!DOCTYPE svg PUBLIC "-//W3C//DTD SVG 1.0//EN" "http://www.w3.org/TR/2001/REC-SVG-20010904/DTD/svg10.dtd" [
	<!ENTITY ns_extend "http://ns.adobe.com/Extensibility/1.0/">
	<!ENTITY ns_ai "http://ns.adobe.com/AdobeIllustrator/10.0/">
	<!ENTITY ns_graphs "http://ns.adobe.com/Graphs/1.0/">
	<!ENTITY ns_vars "http://ns.adobe.com/Variables/1.0/">
	<!ENTITY ns_imrep "http://ns.adobe.com/ImageReplacement/1.0/">
	<!ENTITY ns_sfw "http://ns.adobe.com/SaveForWeb/1.0/">
	<!ENTITY ns_custom "http://ns.adobe.com/GenericCustomNamespace/1.0/">
	<!ENTITY ns_adobe_xpath "http://ns.adobe.com/XPath/1.0/">
]>
<svg version="1.0" id="Capa_1" xmlns:x="&ns_extend;" xmlns:i="&ns_ai;" xmlns:graph="&ns_graphs;"
	 xmlns="http://www.w3.org/2000/svg" xmlns:xlink="http://www.w3.org/1999/xlink" x="0px" y="0px" width="792px" height="180px"
	 viewBox="0 0 792 180" enable-background="new 0 0 792 180" xml:space="preserve">
<metadata>
	<sfw  xmlns="&ns_sfw;">
		<slices></slices>
		<sliceSourceBounds  height="159.988" width="775.823" y="-325.714" x="8.271" bottomLeftOrigin="true"></sliceSourceBounds>
	</sfw>
</metadata>
<g>
	<path fill="#010202" d="M560.336,67.5V36.68h-173.54v30.785L560.336,67.5z M187.931,12.159v79.019h174.39V12.159h222.57v79.331
		h174.691V47.747h24.512v67.948H560.336V92.656h-173.54v23.039H163.407V12.159H187.931z M759.539,11.729h24.249v23.803h-24.249
		V11.729z"/>
	<g>
		<path fill="#010202" d="M188.049,137.886h-6.166v19.132c0,2.588-0.153,3.627-0.835,4.487c-0.79,1.051-2.555,1.644-4.531,1.644
			c-1.94,0-3.531-0.555-4.359-1.657c-0.593-0.949-0.835-2.008-0.835-4.474v-19.132h-7.762v19.132c0,4.487,0.771,6.998,2.705,8.961
			c2.177,2.025,5.299,3.039,9.652,3.039c4.056,0,7.1-0.886,9.266-2.861c2.117-1.943,2.865-4.149,2.865-9.139V137.886z"/>
		<path fill="#010202" d="M217.286,137.886h-5.536v16.067c0,0.586,0.029,1.013,0.134,2l-10.461-18.067h-7.695v30.61h5.573v-18.311
			l-0.089-1.319l-0.08-1.064l12,20.694h6.154V137.886z"/>
	</g>
	<rect x="223.454" y="137.886" fill="#010202" width="7.161" height="30.622"/>
	<polygon fill="#010202" points="259.5,137.886 253.516,137.886 247.098,159.842 241.012,137.886 233.384,137.886 242.555,168.496 
		250.298,168.496 	"/>
	<polygon fill="#010202" points="284.202,143.724 284.202,137.886 262.25,137.886 262.25,168.502 284.202,168.502 284.202,162.473 
		269.56,162.473 269.56,155.756 281.082,155.756 281.082,150.026 269.56,150.026 269.56,143.724 	"/>
	<g>
		<path fill="#010202" d="M295.681,156.374h5.168l4.688,12.128h7.937l-5.65-13.453c1.492-0.702,2.126-1.096,2.798-1.772
			c1.567-1.542,2.481-3.868,2.481-6.207c0-2.741-1.242-5.526-3.208-7.125c-1.851-1.517-3.975-2.052-7.944-2.052h-13.486v30.61h7.215
			V156.374z M295.681,143.334h4.263c2.859,0,3.454,0.083,4.349,0.803c0.829,0.714,1.438,1.848,1.438,3.027
			c0,1.319-0.732,2.734-1.785,3.346c-0.895,0.561-1.427,0.701-3.819,0.701h-4.445V143.334z"/>
		<path fill="#010202" d="M339.827,144.647c-0.988-2.511-1.776-3.677-3.436-4.844c-2.042-1.6-4.719-2.338-8.027-2.338
			c-3.432,0-5.967,0.739-8,2.613c-2.142,1.854-3.187,4.282-3.187,7.093c0,3.109,1.328,5.583,3.711,7.042
			c1.711,0.976,3.642,1.651,7.135,2.429c4.072,0.783,5.317,1.574,5.317,3.384c0,1.981-1.917,3.263-4.833,3.263
			c-3.486,0-5.45-1.312-6.291-4.263l-6.618,1.491c0.869,2.988,1.743,4.365,3.632,5.889c2.329,1.752,5.223,2.612,8.792,2.612
			c3.227,0,6.128-0.669,8.119-2c2.747-1.754,4.513-4.946,4.513-8.178c0-2.854-1.31-5.371-3.713-7.119
			c-1.677-1.147-3.511-1.791-8.312-2.76c-3.304-0.624-4.432-1.427-4.432-3.167c0-1.791,1.501-2.779,4.164-2.779
			c2.975,0,4.322,0.892,5.39,3.62L339.827,144.647z"/>
	</g>
	<rect x="345.358" y="137.886" fill="#010202" width="7.19" height="30.622"/>
	<g>
		<path fill="#010202" d="M358.668,137.886v30.616h10.539c4.653,0,8.15-1.428,10.761-4.417c2.5-2.83,3.833-6.66,3.833-10.917
			c0-4.314-1.396-8.176-3.941-11.038c-2.839-3.11-5.972-4.244-11.823-4.244H358.668z M365.698,143.545h3.047
			c2.488,0,4.116,0.714,5.493,2.454c1.367,1.899,2.116,4.281,2.116,7.094c0,2.733-0.749,5.269-2.212,7.214
			c-1.281,1.7-3.024,2.497-5.513,2.497h-2.931V143.545z"/>
	</g>
	<path fill="#010202" d="M403.494,137.886h-8.34l-9.815,30.61h6.352l1.892-6.253h9.911l1.902,6.253h7.715L403.494,137.886z
		 M395.317,156.63l3.247-10.747l3.267,10.747H395.317z"/>
	<g>
		<path fill="#010202" d="M416.44,137.886v30.616h10.535c4.591,0,8.17-1.428,10.71-4.417c2.498-2.83,3.833-6.66,3.833-10.917
			c0-4.314-1.352-8.176-3.906-11.038c-2.85-3.11-6.003-4.244-11.88-4.244H416.44z M423.406,143.545h3.031
			c2.6,0,4.167,0.714,5.512,2.454c1.38,1.899,2.177,4.281,2.177,7.094c0,2.733-0.797,5.269-2.234,7.214
			c-1.287,1.7-3.039,2.497-5.49,2.497h-2.995V143.545z"/>
	</g>
	<path fill="#010202" d="M472.724,137.886h-8.31l-9.787,30.61h6.298l1.896-6.253h9.903l1.862,6.253h7.752L472.724,137.886z
		 M464.567,156.63l3.25-10.747l3.254,10.747H464.567z"/>
	<g>
		<path fill="#010202" d="M485.633,137.886v30.616h10.569c4.615,0,8.119-1.428,10.721-4.417c2.46-2.83,3.808-6.66,3.808-10.917
			c0-4.314-1.37-8.176-3.878-11.038c-2.862-3.11-5.978-4.244-11.877-4.244H485.633z M492.662,143.545h3.082
			c2.485,0,4.078,0.714,5.441,2.454c1.378,1.899,2.181,4.281,2.181,7.094c0,2.733-0.803,5.269-2.224,7.214
			c-1.32,1.7-3.021,2.497-5.507,2.497h-2.974V143.545z"/>
		<path fill="#010202" d="M527.329,137.465c-4.331,0-7.609,1.459-9.93,4.422c-2.24,2.848-3.438,6.852-3.438,11.28
			c0,4.416,1.214,8.38,3.532,11.433c2.226,2.952,5.418,4.417,9.408,4.417c4.158,0,7.648-1.606,9.833-4.435
			c2.084-2.927,3.391-7.113,3.391-11.307c0-4.295-1.259-8.342-3.479-11.389C534.502,139.013,531.188,137.465,527.329,137.465
			 M527.017,143.271c2.056,0,3.359,0.783,4.321,2.523c0.827,1.746,1.297,4.251,1.297,7.532c0,6.577-1.88,9.821-5.51,9.821
			c-3.766,0-5.656-3.307-5.656-9.821C521.469,146.769,523.359,143.271,527.017,143.271"/>
	</g>
	<polygon fill="#010202" points="552.044,162.473 552.044,137.886 544.794,137.886 544.794,168.502 564.209,168.502 
		564.209,162.473 	"/>
	<polygon fill="#010202" points="589.706,143.94 589.706,137.886 567.938,137.886 567.938,168.502 575.386,168.502 575.386,156.63 
		586.72,156.63 586.72,150.835 575.386,150.835 575.386,143.94 	"/>
	<g>
		<path fill="#010202" d="M605.288,137.465c-4.306,0-7.619,1.459-9.933,4.422c-2.243,2.848-3.441,6.852-3.441,11.28
			c0,4.416,1.21,8.38,3.556,11.433c2.199,2.952,5.397,4.417,9.42,4.417c4.133,0,7.635-1.606,9.802-4.435
			c2.07-2.927,3.361-7.113,3.361-11.307c0-4.295-1.242-8.342-3.441-11.389C612.444,139.013,609.21,137.465,605.288,137.465
			 M605.01,143.271c2.027,0,3.309,0.783,4.248,2.523c0.852,1.746,1.354,4.251,1.354,7.532c0,6.577-1.873,9.821-5.56,9.821
			c-3.706,0-5.655-3.307-5.655-9.821C599.396,146.769,601.346,143.271,605.01,143.271"/>
	</g>
	<rect x="634.224" y="137.886" fill="#010202" width="7.173" height="30.622"/>
	<g>
		<path fill="#010202" d="M647.527,137.886v30.61h14.318c3.785,0,6.29-0.624,8.229-2.25c1.702-1.512,2.833-3.767,2.833-6.131
			c0-2.161-0.939-4.226-2.529-5.635c-1.039-0.949-1.964-1.388-3.909-1.886c3.782-1.147,5.579-3.377,5.579-6.806
			c0-2.403-0.994-4.417-2.862-5.921c-1.791-1.472-3.705-1.982-7.341-1.982H647.527z M654.715,143.334h4.923
			c2.635,0,3.218,0.051,4.024,0.803c0.681,0.555,1.031,1.492,1.031,2.435c0,1.102-0.516,2.161-1.351,2.74
			c-0.669,0.51-1.475,0.714-3.218,0.714h-5.41V143.334z M654.715,155.5h5.837c3.11,0,4.821,1.289,4.821,3.607
			c0,1.23-0.68,2.506-1.594,3.144c-0.797,0.458-1.646,0.661-3.56,0.661h-5.505V155.5z"/>
	</g>
	<path fill="#010202" d="M692.506,137.886h-8.312l-9.812,30.61h6.304l1.937-6.253h9.885l1.899,6.253h7.718L692.506,137.886z
		 M684.355,156.63l3.228-10.74l3.254,10.74H684.355z M694.405,127.976l-9.688,4.678l1.133,2.651l9.995-3.416L694.405,127.976z"/>
	<g>
		<path fill="#010202" d="M729.023,137.892h-5.563v16.061c0,0.586,0.02,1.013,0.115,2l-10.452-18.061h-7.718v30.61h5.607v-18.316
			l-0.126-1.319l-0.064-1.064l12.036,20.7h6.165V137.892z M723.735,128.918c-0.96,1.192-2.216,1.899-3.258,1.899
			c-0.541,0-1.347-0.198-2.274-0.58c-1.575-0.759-2.378-0.957-3.518-0.957c-1.855,0-3.417,0.752-5.061,2.492l2.025,2.524
			c1.002-0.943,2.039-1.446,2.951-1.446c0.517,0,1.263,0.216,2.026,0.503c2.072,0.943,2.577,1.058,3.768,1.058
			c2.001,0,3.61-0.835,5.362-2.836L723.735,128.918z"/>
	</g>
	<polygon fill="#010202" points="757.116,143.724 757.116,137.886 735.178,137.886 735.178,168.502 757.116,168.502 
		757.116,162.473 742.445,162.473 742.445,155.756 753.98,155.756 753.98,150.026 742.445,150.026 742.445,143.724 	"/>
	<polygon fill="#010202" points="783.434,143.181 783.434,137.886 760.284,137.886 760.284,143.705 774.671,143.705 
		759.186,163.378 759.186,168.502 783.94,168.502 783.94,162.709 767.932,162.709 	"/>
	<g>
		<path fill="#010202" d="M121.443,136.133c-1.443,0-3.782,0.994-6.876,2.772c0,0-2.377,1.6-4.216,1.638l-0.905-0.205l4.391,6.564
			c4.7-3.212,7.21-5.735,7.21-5.735s2.228-2,2.228-3.531l-0.185-0.72C122.715,136.375,122.241,136.133,121.443,136.133
			 M13.704,137.574l1.017-1.04v0.039c0.389-0.567,1.287-0.726,2.128-0.726c0.755,0,1.539,0.114,2.026,0.229
			c1.788,0.376,3.42,1.683,6.852,2.498l1.096,0.159c1.038-0.032,1.141-0.497,1.156-0.987l-0.118-0.784v-0.019l-0.047-0.071
			l-0.599-0.593c-0.679-0.688-1.979-1.892-4.442-4.079c-4.136-3.696-4.987-7.1-5.125-8.578c-0.765,1.408-1.003,3.46-1.003,5.411
			c0,2.631,0.408,4.952,0.408,4.952l0.083,0.338l-0.337-0.051l-0.265-0.051l-0.554-0.184c-2.607-0.905-5.335-3.41-6.357-4.366
			C9.708,134.074,13.704,137.574,13.704,137.574 M110.351,140.084c1.556,0,3.932-1.555,3.945-1.581
			c3.133-1.81,5.497-2.842,7.147-2.842l0.845,0.095l2.02,1.472c1.893-1.982,2.756-5.271,3.088-7.099
			c-1.747,1.861-6.16,3.372-6.192,3.39l-0.332,0.134v-0.37l0.045-1.083c0-3.919-1.109-6.341-1.887-7.533v0.363l-0.321,1.625
			c-0.644,1.811-4.261,5.494-5.65,7.062c-1.275,1.383-4.085,3.537-4.06,5.079l0.223,0.702L110.351,140.084z M43.125,160.918
			l-0.048-0.064l-0.128,0.064l-1.032,1.147l-0.227,0.268l0.227,0.146l1.058,0.396l0.256,0.07v-0.39L43.125,160.918z M25.631,139.064
			c-3.505-0.893-5.217-2.18-6.835-2.504l-1.947-0.223c-1.096,0-1.902,0.236-1.902,0.912c0,0.433,0.284,1.147,1.1,2.141l1.089,1.448
			c0.172,0.171,2.259,2.09,5.946,4.67l4.79-6.57l-1.048,0.273L25.631,139.064z M114.608,150.574
			c-1.167,0.803-0.873,1.958-0.188,2.958c0.628,1.008,2.008,2.147,3.248,1.288c1.15-0.81,0.937-1.938,0.191-3.098
			C116.871,150.192,115.475,149.938,114.608,150.574 M67.234,166.691l0.478,0.045l0.877-0.917c0.019-0.727-0.561-1.313-1.288-1.313
			l-0.602,0.752l-0.02,0.988L67.234,166.691z M90.174,164.436l-0.302,0.721l0.258,0.956c0.204,0.669,0.459,0.886,1.224,0.669
			c0.774-0.179,1.067-0.88,0.848-1.625C92.093,164.659,91.649,164.016,90.174,164.436 M77.696,164.085l-0.536,0.574l0.185,1.656
			l0.577,0.179c1.236-0.179,1.236-0.593,1.23-1.09C79.037,164.583,78.518,164.016,77.696,164.085 M30.171,155.475l-0.446-1.88
			l-0.759,0.142l-0.793,1.438l0.392,0.504C29.678,156.297,29.91,155.89,30.171,155.475 M67.164,167.062l-0.539,0.625l-0.025,0.975
			c0,0.758,0.201,0.988,0.988,0.988c0.832,0.076,1.205-0.467,1.307-1.301C68.895,167.909,68.671,167.138,67.164,167.062
			 M90.129,164.016l0.545-0.096l0.503-1.11c-0.169-0.744-0.896-1.102-1.578-0.897l-0.386,0.897l0.243,0.919L90.129,164.016z
			 M84.082,164.302l-0.036-0.038l-0.088,0.128l-0.348,1.542l-0.016,0.351h0.255l1.074-0.172l0.245-0.134l-0.121-0.325
			L84.082,164.302z M16.75,141.136l-1.08-1.446c-0.771-0.957-1.119-1.676-1.192-2.275l-0.676,0.663c0,0-1.73,1.281-4.493,4.735
			c-0.736,0.975-1.039,1.924-1.039,2.727c0,2.021,1.619,3.57,1.619,3.57s6.44,5.659,17.16,11.305
			c10.694,5.634,25.719,11.3,42.763,11.3c34.103,0,55.592-20.139,58.556-23.077c1.462-1.453,1.807-2.805,1.807-3.818
			c0-1.032-0.344-1.707-0.344-1.707l-5.77-5.494l-0.357-0.312l0.057,0.331c-0.032,1.932-2.335,3.869-2.335,3.869
			c0,0.019-12.823,12.618-33.896,17.735l-0.408,0.116c-0.921,0.209-1.879,0.439-2.868,0.593l-0.252,0.051
			c-1.074,0.248-2.138,0.413-3.202,0.593l-0.571,0.057c-0.857,0.134-1.71,0.236-2.59,0.319l-1.068,0.114
			c-0.768,0.057-1.539,0.12-2.304,0.159l-1.1,0.083c-1.023,0.045-2.138,0.082-3.225,0.082h-0.131h-0.166
			c-1.145,0-2.272-0.051-3.41-0.128l-1.093-0.037c-0.851-0.071-1.743-0.134-2.6-0.23l-0.921-0.089
			c-1.134-0.107-2.243-0.255-3.33-0.438l-0.468-0.071c-0.995-0.14-1.963-0.318-2.91-0.535l-0.721-0.14
			c-22.72-4.838-37.396-18.54-37.396-18.54 M17.467,152.436v-0.498l1.147-5.161l-0.179-0.771l-0.029-0.108l0.389,0.089l0.622,0.541
			l0.765,0.51l0.168,0.256l-0.675,0.102l-0.386,1.089l-0.729,2.811v0.173l0.159-0.07l2.422-1.351l0.794-0.625l-0.233-1.114
			l0.373,0.069l0.526,0.479l0.583,0.35l0.175,0.281l-0.851,0.197l-4.748,2.657L17.467,152.436z M23.457,156.374
			c-1.035-0.695-1.439-1.008-1.838-1.217l-0.892-0.612l-0.063-0.114c0.188-0.326,0.478,0.389,1.039-0.446l2.027-3.283l-0.334-1.166
			l0.229-0.051c0.28,0.197,0.783,0.542,1.845,1.179l1.599,0.994l0.083,0.242l-0.439,0.689l-0.249,0.293
			c-0.392-0.224,0.688-0.702-0.726-1.588c-0.816-0.528-0.848-0.528-1.132-0.057l-0.615,0.988l0.067,0.53l0.424,0.338l1.192-0.179
			v0.254l-0.736,1.263l-0.3,0.254l-0.315-1.216l-0.513-0.301l-0.599,0.301l-0.564,0.929l0.006,0.969
			c1.785,1.07,2.237,0.108,2.534,0.25v0.196L23.457,156.374z M29.678,159.172l0.175,0.223l0.303,0.063l0.016,0.147l-0.962-0.008
			l-0.558-1.438l0.048-1.504l-0.484-0.729l-0.517,0.122l-0.65,1.23c-0.459,0.809,0.417,0.88,0.287,1.179h-0.287l-0.586-0.37
			l-1.15-0.663l-0.182-0.203c0.118-0.216,0.596,0.286,1.096-0.58l1.752-3.192c0.447-0.86-0.494-1.014-0.309-1.27h0.191l0.845,0.498
			l1.466,0.771c1.612,0.88,1.185,1.994,0.953,2.307l-0.879,0.681l-0.567,0.077C29.617,156.584,29.678,157.96,29.678,159.172
			 M34.327,156.642l-1.692,3.474c-0.453,0.942,0.548,1.02,0.42,1.242h-0.284l-1.128-0.573l-0.815-0.39l-0.096-0.082l0.94-0.535
			l1.711-3.575l-0.443-1.153l0.29,0.044l0.864,0.421l0.953,0.439l0.208,0.249C35.098,156.437,34.678,155.89,34.327,156.642
			 M38.463,158.521l-1.494,3.454c-0.344,0.944,0.675,1.084,0.589,1.312h-0.434l-1.071-0.479l-1.086-0.425l-0.185-0.25
			c0.122-0.299,0.829,0.421,1.25-0.49l1.498-3.551l-0.221-0.586l-0.627-0.229c-0.912-0.364-1.071,0.752-1.427,0.592l0.032-0.363
			l0.551-0.866l0.204-0.205c0.691,0.319,1.211,0.575,2.292,1.071c1.105,0.452,1.632,0.651,2.377,0.95l0.054,0.185l-0.268,0.752
			l-0.264,0.383c-0.268-0.172,0.302-0.893-0.571-1.191l-0.605-0.325L38.463,158.521z M44.903,166.048l-0.318,0.064l-0.959-0.459
			l-0.911-0.249l-0.191-0.146l0.79-0.438l0.013-0.556c-0.013-0.759-0.013-0.848-0.249-0.886l-1.507-0.503l-0.743,0.324l-0.376,0.573
			l0.625,0.97l-0.452-0.083l-0.727-0.224l-0.704-0.248l-0.137-0.172l0.771-0.377l3.798-3.97l0.236-0.211l0.124,0.319l0.44,5.532
			L44.903,166.048z M50.47,162.123l-0.166,1.076l-0.258,0.217c-0.167-0.038,0.07-1.561-1.271-1.988l-1.145,0.579
			c-0.131,0.581,0.296,0.803,1.208,1.582c0.724,0.624,1.208,1.07,0.887,2.091c-0.323,1.088-1.211,1.521-2.25,1.287l-1.268-0.683
			l-0.179-0.383l0.058-1.159l0.204-0.307l0.114,0.198c0.083,0.853,0.354,1.682,1.227,1.969l1.361-0.701
			c0.239-0.7-0.249-0.925-1.392-1.886c-0.564-0.511-0.944-0.873-0.771-1.753c0.303-0.905,1.099-1.376,2.049-1.128l1.17,0.63h0.423
			V162.123z M54.258,165.244l-0.832,0.529l-0.5-0.814l0.793-0.523L54.258,165.244z M59.676,169.419
			c-1.271-0.217-1.743-0.331-2.132-0.351l-1.067-0.114l-0.166-0.057c0.063-0.421,0.634,0.12,0.762-0.917l0.585-3.896l-0.86-0.886
			l0.306-0.057l1.093,0.146l0.907,0.128l0.239,0.089l-0.698,0.58l-0.561,3.844l0.488,0.917c2.03,0.242,2.03-0.834,2.339-0.765
			l0.102,0.179L59.676,169.419z M63.758,164.819l-0.357,3.919c-0.095,1.031,0.931,0.713,0.829,0.987l-0.255,0.108l-1.249-0.185
			l-0.86-0.02l-0.115-0.134c0-0.255,0.561,0,0.669-0.758l0.306-3.958c0.067-0.765-0.851-0.638-0.819-0.892l0.276-0.116l0.915,0.116
			l1.051,0.051l0.284,0.076C64.433,164.392,63.856,164.016,63.758,164.819 M67.747,169.986c-1.223,0-1.667-0.038-2.014-0.038h-0.64
			l-0.274-0.179c0-0.273,0.749,0,0.762-0.815l0.152-3.645c0-1.167-0.914-0.709-0.914-1.097l0.115-0.197l0.551,0.069l2.103,0.058
			c2.023,0.07,2.023,1.281,1.963,1.472l-0.944,1.153v0.014c1.039,0.28,1.323,0.771,1.323,1.479
			C69.869,169.362,69.111,170.02,67.747,169.986 M74.102,169.948c-1.221,0.038-1.699,0.038-2.1,0.038l-1.106,0.033h-0.149
			c0-0.396,0.602-0.033,0.602-1.002l-0.195-3.861l-0.927-0.777l0.195-0.166c0.325,0,0.879,0,2.179-0.07
			c0.567,0,1.131-0.058,1.903-0.127l0.14,0.197l0.077,0.79l-0.121,0.401c-0.415,0,0.201-0.969-1.371-0.898
			c-0.988,0-1.054,0.038-1.054,0.638l0.066,1.141l0.36,0.357h0.567l0.857-0.74l0.159,0.146l0.099,1.505l-0.099,0.376
			c-0.265,0-0.083-0.867-0.956-0.816l-0.586,0.025l-0.351,0.549l0.038,1.12l0.647,0.785c2.029-0.141,1.89-1.185,2.173-1.243
			l0.083,0.198L74.102,169.948z M80.72,169.311l-1.269-0.834l-0.854-1.275l-0.781-0.362l-0.363,0.433l0.185,1.467
			c0.101,0.854,0.879,0.433,0.879,0.713l-0.227,0.173l-0.716,0.006l-1.266,0.204l-0.302-0.108c0-0.274,0.666-0.096,0.599-1.161
			l-0.424-3.588c-0.064-0.961-0.975-0.527-0.975-0.834l0.149-0.127l0.953-0.076l1.692-0.211c1.794-0.224,2.039,0.931,2.109,1.274
			l-0.338,1.109l-0.456,0.421c0,0,0.867,1.153,1.546,2.205h0.302h0.262h0.105L80.72,169.311z M87.944,168.037l-1.042,0.159
			L86,168.407l-0.271-0.059l0.427-0.765l-0.242-0.522l-0.641-0.599l-1.606,0.305l-0.401,0.651l-0.051,0.713l1.039,0.529
			l-0.404,0.185l-0.766,0.108l-0.729,0.134l-0.217-0.02l0.478-0.72l1.259-5.366l0.143-0.273l0.236,0.211l3.189,4.499l0.797,0.453
			L87.944,168.037z M91.602,167.062c-1.16,0.35-1.584,0.357-1.982,0.522l-0.561,0.178l-0.281-0.075
			c-0.118-0.268,0.679-0.268,0.436-0.995l-0.958-3.549c-0.262-1.136-1.014-0.434-1.135-0.81l0.07-0.159l0.535-0.108l2.014-0.561
			c1.947-0.535,2.291,0.63,2.352,0.828l-0.571,1.319c1.02,0,1.465,0.363,1.653,1.128C93.453,165.819,92.873,166.691,91.602,167.062
			 M96.771,165.475l-1.214,0.345l-0.889,0.293h-0.08l0.284-1.008l-1.269-3.842l-1.086-0.435l0.153-0.159l0.933-0.325l1.052-0.362
			l0.274-0.031l-0.341,0.968l1.227,3.773c0.312,0.962,1.115,0.312,1.198,0.566L96.771,165.475z M101.247,163.772l-1.08,0.415
			l-1.055,0.413l-0.35-0.018c-0.093-0.319,0.93-0.281,0.535-1.205l-1.383-3.536l-0.554-0.275l-0.605,0.242
			c-0.876,0.307-0.271,1.249-0.628,1.363l-0.208-0.202l-0.28-1.065l0.064-0.235c0.672-0.274,1.227-0.428,2.33-0.893
			c1.128-0.401,1.676-0.683,2.412-0.905l0.208,0.089l0.36,0.689l0.019,0.458c-0.303,0.134-0.379-0.847-1.246-0.458l-0.672,0.235
			l-0.219,0.548l1.334,3.513c0.334,0.943,1.3,0.317,1.364,0.56L101.247,163.772z M104.915,159.395l-0.917-0.287l0.322-0.948
			l0.95,0.362L104.915,159.395z M113.933,157.623h-0.245l-5.58-1.811l-0.188-0.057v0.114l1.398,2.505
			c0.8,1.402,1.444,0.401,1.6,0.732l-0.201,0.281l-0.886,0.42l-0.609,0.409l-0.248,0.031l0.222-1.281l-1.593-2.766
			c-0.755-1.435-1.271-0.472-1.466-0.822l0.039-0.205l0.443-0.209l0.716-0.427l0.389,0.006l4.655,1.606l0.363,0.051l-0.143-0.312
			l-1.304-2.421l-1.338-0.236l0.067-0.185l0.844-0.459l0.755-0.447h0.159c0.122,0.236-0.585,0.39-0.124,1.193l2.272,3.989V157.623z
			 M117.667,155.24c-1.358,0.962-2.979,0.63-3.858-0.752c-1.02-1.523-0.864-3.251,0.799-4.366c1.307-0.919,2.957-0.702,3.929,0.764
			C119.156,151.812,119.857,153.819,117.667,155.24 M122.623,151.721l-1.307,0.618l-0.382-0.115l-0.892-0.726l-0.127-0.344
			l0.258,0.057l2.257,0.166l0.248-1.555c-0.436-0.567-0.86-0.286-2.307,0.045l-1.894-0.447c-0.573-0.707-0.458-1.752,0.313-2.268
			l1.21-0.568l0.245-0.343l0.29,0.166l0.749,0.834l0.032,0.299c-0.207,0.128-1.22-0.975-2.32-0.14l-0.207,1.275
			c0.315,0.433,0.783,0.197,1.946-0.039c0.937-0.262,1.578-0.299,2.211,0.516C123.588,149.975,123.521,151.052,122.623,151.721"/>
		<path fill="#010202" d="M24.12,72.302l0.194,0.688l-0.261,0.756l0.351,0.344l0.389-1.17l-0.197-0.765L24.12,72.302z M55.53,22.949
			l0.268-0.121l-0.268-0.067l-0.847-0.114l-0.88,0.716v0.017l-0.232,0.111l-0.978,1.025l0.01-0.213v-0.181l-0.319-1.202l-0.348-0.34
			L51.9,22.497c0-0.784,0.628-0.934,0.628-0.934v-0.195l-0.287-0.096l-0.306-0.019c-0.898,0-1.052,0.773-1.052,1.284v0.159
			l-0.583,0.638l0.201-0.838h0.047l0.051-0.109l-0.08-0.114H50.47l-0.395,0.021l-0.755,1.196l-0.092,0.099l-0.293,1.587v0.118
			c0,0.774,0.663,1.38,1.131,2.104c0.484,0.739,0.513,1.434,0.58,2.581v0.252c0,1.02-0.5,2.39-0.924,3.919l-0.322,1.145l-0.08,0.258
			l-0.51,0.946c-0.287-1.625-1.526-2.454-1.586-2.498l-0.564-0.373l0.197,0.65l0.118,0.446c0,0.691-0.315,1.794-0.478,2.546
			c-0.156,0.905-0.293,0.847-0.724,1.345l-0.991,1.762c-0.302-0.724-0.669-1.586-1.297-2.33c-1.172-1.357-2.778-2.638-3.938-3.403
			c-1.122-0.81-2.013-1.851-2.023-2.345V32.26l0.035-0.777l1.329-0.198h0.249c0.528,0.042,1.271,0.749,2.463,0.762h0.012
			l0.896-0.118h0.058l1.089-0.528l0.048-0.045l0.363-0.36l0.156-0.022l-0.077-0.28l-0.067-0.115l-0.124-0.041h-0.092l-0.377,0.022
			l-1.172-0.329l-1.15-1.004l-0.221-0.242l0.424-0.528l0.829-0.829h0.032l1.322,0.815l0.386,0.548l0.02-0.66l0.035-0.318
			c0-0.807-0.127-3.196-2.192-3.26h-2.463c-0.197-0.303-0.704-1.103-1.625-1.119c-1.026,0-1.23,0.233-1.992,0.233l-0.334,0.013
			v-0.013l-1.905-0.351l-0.246-0.153l-0.092,0.293l-0.179,0.586l-0.276-0.044l-0.727-0.481l-0.42-0.627v0.847l-0.291,1.833
			l-0.268,0.226l0.334,0.16l0.268,0.334v0.003c0.016,0.064-0.899,0.905-1.326,2.537l-0.876-1.53
			c-0.296-0.803-0.497-1.593-0.497-1.593l-0.115-0.328l-0.306,0.204l-0.596,0.752c-0.35-1.596-0.599-4.904-0.599-4.904l-0.054-0.262
			l-0.232,0.08l-0.959,1.035c-0.223-0.853-0.347-2.016-0.347-3.259c0-2.97,0.494-6.312,0.494-6.312l0.061-0.344l-0.344,0.057
			c-2.202,0.522-3.805,4.987-3.862,7.759l0.028,0.245l-0.216,0.401l-0.191,1.154c-0.664-0.634-1.778-2.457-2.721-4.149
			c-1.036-1.973-1.948-3.82-1.948-3.82l-0.152-0.329l-0.239,0.293c-0.749,0.851-1.029,1.883-1.029,3.014
			c0.064,3.114,2.206,6.686,3.295,8.288c-1.182-0.793-2.836-2.335-2.836-2.335l-0.255-0.268l-0.13,0.329l-0.204,1.338
			c0,2.375,2.011,4.681,3.253,5.905c-1.233-0.393-2.514-0.472-2.514-0.472h-0.223l-0.048,0.185l-0.058,0.45
			c0.026,2.007,2.352,4.512,3.406,5.528c-1.481,0.064-2.131,0.611-2.186,0.641l-0.096,0.093l0.016,0.171
			c0.459,1.644,1.536,2.804,2.549,3.556l-0.204-0.035l-0.239,0.035c-2.326,0.198-4.206,1.529-4.369,3.987v0.41
			c0,2.053,1.338,3.343,1.269,3.875l-0.029,0.077c-0.144,0.758-0.421,0.94-1.004,4.142l-0.016,0.622c0,1.87,1.644,2.278,2.542,2.278
			l0.565-0.028l0.21-0.061l0.198-0.268l-0.128-0.245c-0.213-0.054-0.886-1.25-1.057-2.349l-0.017-0.092
			c-0.063-0.889,1.845-2.262,2.54-4.286l0.08-0.656c-0.029-1.635-1.931-2.224-2.391-2.352l-0.366-0.74v-0.06
			c0-1.45,1.338-1.979,1.768-1.979h0.045l0.016,0.044h0.06h0.044l0.717-0.086l0.893,0.217l-0.141,1.055v0.175l0.153,0.073
			l1.039,0.233c0.175,0.615,0.319,1.424,0.319,2.562v0.255c-0.083,5.688-6.188,10.965-6.242,14.562
			c0.028,3.075,2.539,5.325,3.256,5.923l-0.915,2.123l-0.083,0.258l0.949,0.067l-0.385,1.552l0.837-0.153l-0.309,0.876l-0.095,0.306
			h0.762l-0.121,0.978l-0.057,0.271h0.892l-0.328,0.949l-0.048,0.325l1.284,0.047l-0.768,1.593l-0.061,0.211l0.877,0.353
			l-0.453,1.157l-1.256,3.129c0.025,0.663,0.548,1.787,0.548,2.734c0,1.061-0.348,1.73-0.443,2.23l-0.66,3.941l0.472,2.039
			l0.389,2.792c0.242,0.745,1.287,1.096,1.912,1.389l0.803,0.134c0.902,0,2.145-0.191,2.96-0.281
			c1.255-0.114,2.54-0.624,3.499-1.389l1.017-1l-0.057-0.306l-1.616-1.39l-0.924-0.332l-0.663,0.071l-0.287-0.039v0.057
			l-0.513,0.051c-1.01,0.044-1.208,0.771-2.056,0.733l-0.21-0.013c-0.879,0.039-0.943-1.224-1.08-2.128l-0.191-1.135
			c0-0.548,0.166-1.198,0.618-1.95c0.497-0.875,0.612-1.629,0.612-2.248l-0.051-1.016c0.019-0.619,0.092-0.752,0.759-1.67
			c0.652-0.902,0.487-1.421,0.589-2.199c0.063-0.748,0.22-1.609,1.163-2.444c1.039-0.841,2.027-3.075,2.418-3.811l0.44-1.887
			l0.646-0.882l0.654-0.742c0.373-0.481,0.574-0.593,1.307-1.064l1.007-0.784l-0.036,0.271h0.09v0.022l0.019,0.261l-0.209,1.036
			l-0.87,1.761l-0.128,0.785l0.128,1l1.453,0.965l1.546,1.558l1.179,1.345l1.115,0.433l0.975,2.026
			c0.382,0.784,1.02,1.472,2.25,1.472c1.351-0.08,2.571-2.466,3.154-3.218c0.581-0.896,1.068-2.868,1.103-3.572l-0.191-2.01
			l-0.055-0.303l-0.264,0.095l-1.003,0.641l-0.762,0.568l-1.217,0.911l-0.472,1.771l-0.172,0.561l-0.975-0.851
			c-0.548-0.181-1.953-2.096-2.313-2.979c-0.433-0.79-1.122-1.498-1.122-2.154l0.297-0.784c0.987-1.128,2.852-2.855,3.75-3.635
			l0.494-0.857l-0.239-0.532c0.736-0.743,0.904-2.147,0.904-2.147c-0.226-3.209-2.192-4.032-3.922-3.983l-1.886,0.232l0.328-0.631
			l1.59-1.52l0.911-0.542l0.475-0.533l-0.063-0.121v-0.083l0.134-0.898c2.052,1.064,2.982,4.046,2.982,4.046l0.169,0.507
			l0.281-0.458c0.513-0.86,0.704-1.724,0.787-2.374l1.447,0.312c0.675,0.144,1.051,0.389,1.812,0.847
			c0.791,0.354,0.915,0.689,1.304,1.049l-0.465,0.825l-0.851,1.183l-0.599,1.472v0.181l0.456,1.01l0.156,0.816l0.682,0.296
			l0.749-0.083l0.111-0.042L47.8,65.26l-0.417-0.465l-0.099-0.533v-0.047l0.644-0.465l0.669-2.281l0.902-2.094
			c0.577-0.816,0.883-2.616,1.004-2.887l0.675-2.553l0.551-1.956l0.058-0.128l-0.201-0.462l0.242,0.029h0.149l0.111-0.077
			l-0.834-0.889l-0.303,0.034L50.9,50.442l-0.351-0.15l-1.051,0.618l-0.755,0.074l-0.765,0.93l-0.051,0.204l0.051,0.249
			l-0.144,0.146l-0.423,0.678l0.092,0.66v0.013v0.07l0.461,0.883l0.217,1.351l-0.096,0.341l-0.252,0.229l-0.111,0.02l-0.093,0.019
			l-1.223-0.373c-0.198-0.121-1.475-0.914-2.342-1.529l-0.233-0.574l1.507-1.73l0.249-0.325l-0.405-0.048l-0.379-0.016
			c-0.972,0-1.833,0.191-2.409,0.389c0.605-0.832,1.67-2.214,2.788-4.06l0.749-1.995l2.416-1.6c0.65-0.328,0.423-1.176,0.586-2.087
			c0.111-0.981,0.344-1.975,1.255-2.562l0.848-0.341c0.845-0.077,1.144,1.345,1.144,1.345l0.476-0.07
			c-0.128-2.61-1.004-3.311-1.791-3.359l0.207-1.078c0.074-0.497,0.657-1.542,0.864-2.358l0.593-1.322l0.092,0.188l0.08,1.084
			l0.379,1.714l0.491,0.408l1.074,0.751h0.121l0.478-0.465v-0.111h-0.089l-0.51-0.386l0.398-1v-0.051l-0.72-1.845l-0.834-3.352
			l-0.029-0.141c0-0.742,0.382-1.702,0.382-2.183l0.803-2.116l0.462-1.428l-0.077-0.37l-0.172-0.233L55.53,22.949z M44.145,30.816
			L44.145,30.816v0.022V30.816z M51.936,21.467l0.217,0.016l-0.484,0.976l0.032,0.08h-0.032l-0.555,0.117v-0.117L51.936,21.467z
			 M50.075,22.509l0.16-0.012l-0.16,0.784h-0.169l-0.376,0.064L50.075,22.509z M50.47,27.139c-0.519-0.723-1.115-1.446-1.077-1.787
			l0.006-0.058l0.21-1.453l0.064-0.057l0.369-0.022l0.146,0.022l-0.044,0.57l0.044,0.3c0.112,0.608,0.561,0.828,0.676,1.71
			l0.114,1.333l-0.029,0.542L50.47,27.139z M39.19,30.816h-0.303l-1.274,0.178v-0.382l-0.089-0.714v-0.054h0.185l1.106-0.042
			l0.519,0.213l0.864,0.905l0.571,0.479L39.19,30.816z M37.612,29.401v-0.067l0.271-0.235h1.058l0.883,0.098v0.013l-1.01,0.124
			l-1.106,0.067H37.612z M41.93,30.562l1.425,0.456l-0.032,0.029l-0.816,0.396v0.041h-0.194l-1.817-0.905l-0.799-0.873l0.235-0.044
			l0.65-0.354l0.21,0.201L41.93,30.562z M41.796,25.228c0.777,0.012,1.153,0.449,1.405,1.064l0.283,1.443l-1.258-0.586h-0.089
			L41,28.178l-0.51,0.596l-1.53-0.188h-0.879l0.507-1.702l0.688-1.656H41.796z M38.424,25.625l0.163-0.064v0.02L38.424,25.625z
			 M33.476,24.052l0.334,0.102l-0.347,0.045L33.476,24.052z M32.02,26.607l0.016-0.083l-0.284-0.65l0.268-1.517l0.45,0.297
			l0.49,0.076l0.373-0.026l1.479-0.238l0.904-0.112c0.905-0.035,1.081-0.277,1.992-0.277l1.163,0.908l-0.242,0.497l-1.071-0.56
			l-0.513-0.131l-0.612,0.16l-0.717,0.152l-0.755,0.296l-0.851,0.319l1.606,0.287l-0.038,0.188h0.016l-1.242,1.188l-0.028,0.074v0.5
			l0.315-0.099l1.587-0.529l0.72,0.227l0.958-0.465l-0.612,1.788l-0.067,0.083l-0.472,0.453l0.274,1.784l-0.083,1.064v0.057
			c0.117,0.86,1.07,1.833,2.211,2.712c1.15,0.758,2.715,2.017,3.852,3.349c1.071,1.274,1.371,2.811,1.833,3.562l1.263,1.357h-0.068
			l-0.334,0.02l-2.1-1.052c-0.73-0.544-1.137-1.105-1.664-1.147l-1.134,1.096l-0.37,0.816l-0.886-1.243l-0.453-0.898l-0.516-0.49
			l-0.051,0.013l-0.832,1.032l-0.313,0.59l-0.092,0.159l-0.229-0.216l-1.172-1.358l-0.236-0.299l-0.181,0.366l-0.408,0.854
			l-0.631,0.303l-0.163-0.016l-2.776-1.577c0.156-0.316,0.36-0.829,0.36-1.635l-0.022-0.208c0-0.87-0.459-2.291-0.854-3.929v-0.019
			l0.031-0.108v-0.031v-0.109l-0.232-0.742l-0.198-1.074l-0.137-1.892C30.656,28.041,31.88,27.076,32.02,26.607 M31.504,38.614
			l-0.259,1.191l-0.041,0.128c-2.087-0.166-2.384-1.408-2.419-2.39l0.112-0.988c0.905-0.026,1.504-0.816,1.864-1.431
			c0.35,1.431,0.713,2.636,0.743,3.295V38.614z M27.823,27.955l0.047,0.121l0.157-0.749l0.474-0.911l0.447,1.269
			c0.341,0.73,0.624,1.495,1.138,1.768l-0.032,0.287l0.032,0.743l-0.032,0.28l0.032,0.433l0.111,1.224l0.048,0.287l-1.785-1.568
			l-0.765-0.701l0.038-0.064l-0.131-0.765L27.823,27.955z M25.991,23.694l0.152,0.274l0.115-0.688l0.561-1.253
			c0.067,1.068,0.363,4.127,0.716,5.22c-0.121,0.405-0.414,1.425-0.414,2.362v0.051l-0.979-1.568l-0.545-1.575h0.035l-0.067-0.602
			C25.567,25.087,25.832,24.188,25.991,23.694 M25.599,13.6c-0.134,1.179-0.392,3.486-0.392,5.624c0,1.533,0.121,2.913,0.465,3.837
			c0,0-0.284,0.78-0.465,1.73h-0.022c-0.293-0.605-1.412-3.206-1.412-6.016C23.773,16.977,24.229,15.136,25.599,13.6 M24.478,14.307
			c-0.893,1.393-1.173,2.976-1.173,4.468c0,3.362,1.488,6.312,1.52,6.328l0.067-0.016l-0.328,0.981l-0.517-0.917l-1.172-2.654
			l-0.227-1.128l-0.051,0.02v-0.02l-0.06-0.198l-0.048-0.787C22.463,18.59,23.362,15.888,24.478,14.307 M22.021,22.675l0.204-1
			c0.35,2.262,1.896,4.576,2.18,5.021l-0.175,1.402l0.124,1.418l-0.729,0.287c-0.262-0.538-1.451-3.38-1.625-7.106L22.021,22.675z
			 M32.73,49.458l0.717-1.973l0.567-0.175l1.24-0.577l0.08,0.108l0.784,0.689v0.012h0.054h0.102h0.096
			C35.917,48.071,34.738,49.193,32.73,49.458 M33.09,49.926l-2.093,3.123l0.191-0.988c0.124-0.829,0.348-1.705,0.625-2.135
			l0.067,0.102l0.156-0.019L33.09,49.926z M32.147,49.426l-0.567-1.444h0.061l1.303-0.325L32.147,49.426z M31.628,49.426H31.58
			c-0.376,0.414-1.59,1.546-3.77,1.567c1.568-0.819,2.145-2.122,2.313-2.631l0.998-0.214L31.628,49.426z M24.053,41.411
			l-0.165,0.032l-0.208,0.032l-0.036-0.032l-0.06,0.032l-0.252,0.039l-0.631-0.103l1.775-1.357l-0.163,1.064l-0.261,0.245V41.411z
			 M24.089,45.083c0.898,0.408,1.771,0.574,2.291,0.666l-0.991,1.033l-1.744,1.338C23.696,47.45,23.888,45.812,24.089,45.083
			 M26.743,46.054c0.124,0.838,0.567,1.928,0.567,1.928l0.028,0.108l0.146,0.029c0.918,0.166,1.597,0.242,2.132,0.242
			c-0.239,0.608-0.912,1.832-2.638,2.476c0.016-0.529,0.089-1.518,0.506-2.435l-0.347-0.283l-0.366,0.175l-1.307,0.194l-1.236-0.146
			C25.232,47.759,26.3,46.589,26.743,46.054 M24.353,49.709l0.157-0.834l0.956,0.095l1.355-0.178
			c-0.338,1.038-0.338,2.004-0.338,2.301v0.117v0.208l0.201,0.013l0.988,0.057l0.832-0.057l-0.041,0.72
			c0,1.042-0.319,1.351-0.791,2.724c-0.404,1.182-2.628,3.152-3.989,4.289c-1.383,1.201-1.66,2.591-2.263,3.747l-0.487,1.193
			l-0.567,0.175l-0.229-0.017c-1.099,0.017-1.625-2.23-1.625-2.23v-0.347C18.445,57.778,22.849,56.168,24.353,49.709 M29.776,47.912
			l-1.561-0.153c0.809-0.589,1.233-1.546,1.402-2.17l0.235,0.784l1.1,1.348L29.776,47.912z M27.657,47.542l-0.446-1.812v-0.118
			l0.054-0.235l-0.271-0.025c0,0-1.083-0.08-2.358-0.548l1.845-1.396l0.153,1.182v0.088l0.073,0.068
			c0.112,0.057,0.287,0.153,1.23,0.287l1.269,0.083h0.083C29.117,45.656,28.655,47.052,27.657,47.542 M26.462,42.266l-0.07,0.284
			l0.07,0.168c-0.296,0.312-1.303,1.409-2.148,1.696l-0.194-1.326l0.019-0.354v-1.045v-0.127h0.058l0.207,0.16l0.389,0.245v-0.141
			l0.841,0.141l0.829-0.118V42.266z M22.489,40.959l-0.083-1.119l0.251-1.315l0.217-0.169l-0.227-0.178l-1.51-1.425l0.141-0.223
			v-0.013l1.908-0.249c-0.217,0.842-0.217,1.728-0.277,1.753v0.077l0.076,0.067l1.65,1.265L22.489,40.959z M23.305,35.765
			c-0.43,0.022-1.526,0.086-2.358,0.318l0.332-0.771l0.771-1.208l0.048-0.016l0.028,0.047l1.236,1.521L23.305,35.765z M22.298,33.49
			h-0.074l-0.051,0.034h-0.016l-0.255,0.103l-0.025,0.042c-0.268-0.296-0.93-1.048-1.214-1.887l0.363-0.032l1.848,0.351l0.58,0.198
			l-1.048,1.226L22.298,33.49z M23.397,31.782c-0.522-0.216-1.348-0.456-2.119-0.497l1.807-0.911v0.128L23.397,31.782z
			 M16.896,15.126c0.877,1.784,3.286,6.458,4.618,7.529c0.038,0.835,0.112,1.606,0.236,2.346c-1.335-1.523-4.904-5.978-4.869-9.649
			L16.896,15.126z M16.705,14.778l0.048,0.077l-0.061-0.029L16.705,14.778z M16.049,17.193l0.392-1.873v0.031
			c0,4.863,5.437,10.5,5.462,10.554c0.322,1.421,0.695,2.581,0.972,3.32c-0.65-0.57-1.647-1.529-2.728-2.778l-0.312-0.393
			C19.834,26.055,16.049,21.072,16.049,17.193 M19.42,26.364c1.526,1.813,2.896,3.047,3.549,3.569l-1.032,0.396
			c-0.296-0.239-1.428-1.202-2.62-2.457c-1.198-1.198-2.473-2.658-3.037-3.846C17.132,24.791,18.602,26.024,19.42,26.364
			 M19.783,31.4l0.281-0.37c-0.036,0-4.232-3.346-4.206-6.485l0.047-0.251c1.147,2.428,4.684,5.535,5.561,6.284L20.22,31.4
			l-0.134,0.088l0.06,0.154c0.217,1.089,1.039,1.985,1.367,2.319l-0.191,0.248c-0.296-0.12-1.259-0.652-2.282-1.312
			c-1.108-0.72-2.195-1.664-2.5-2.361C17.26,30.613,18.815,30.823,19.783,31.4 M18.184,34.319c-0.752-0.947-1.523-2.097-1.743-3.069
			c1.138,1.59,4.041,3.069,4.611,3.381l-0.688,1.574h-0.166l-0.316-0.035C19.599,35.886,18.875,35.172,18.184,34.319 M17.786,36.906
			c0.398-0.124,0.889-0.252,1.653-0.252h0.271l0.048,0.036l0.039,0.063h0.085l0.667,0.013l1.428,1.476l-1.737-0.195
			c-1.051-0.204-2.237-0.58-2.636-1.048L17.786,36.906z M17.731,37.719c1.255,0.768,3.496,0.937,4.346,0.978l-0.175,1.144
			l0.175,1.571L21.75,41.3l-0.182-0.08l-0.637-0.312C19.958,40.411,18.48,39.395,17.731,37.719 M19.758,42.355l-0.717,0.038h-0.006
			l-0.114-0.007c-0.673,0-2.308,0.667-2.308,2.47v0.143v0.039l0.548,1.039l0.083,0.025c0,0,2.195,0.526,2.148,1.906l-0.074,0.503
			c-0.57,1.893-2.473,3.065-2.52,4.404v0.178c0.159,0.985,0.532,1.909,0.959,2.396h-0.093l-0.144-0.274c0,0-0.312-0.596-0.723-1.514
			l-0.217-0.889l0.392-1.377c0.319-0.719,1.179-1.606,1.508-2.772l0.028-0.369c-0.028-1.145-1.456-1.896-1.456-1.896l-0.232,0.383
			c0,0,1.284,0.787,1.217,1.514l-0.029,0.216c-0.251,1.007-1.112,1.893-1.468,2.721l-0.412,1.581l0.232,1.061l0.3,0.686
			l-0.255-0.271c-0.357-0.354-0.182-0.641-0.312-1.443v-0.066c-0.044-0.8,1.014-3.496,1.211-4.069l0.06-0.262
			c-0.06-0.863-1.167-1.879-1.167-1.879l-0.34,0.299l0.548,0.618l0.49,0.962l-0.051,0.064c-0.197,0.637-1.22,3.228-1.229,4.25
			l0.009,0.153l0.424,1.683l1.112,0.892c-0.829-0.083-1.74-0.453-1.74-1.774l0.016-0.523c0.542-3.215,0.819-3.266,1.021-4.139
			v-0.127c-0.017-1.014-1.269-2.033-1.269-3.927l0.022-0.366c0.144-2.189,1.747-3.381,3.878-3.569h0.229l1.412,0.3l0.548,0.274
			l-0.522,0.956L19.758,42.355z M21.855,41.692l0.223-0.178l0.02,0.048l0.028,0.127l0.127,0.074l0.909,0.204l-2.147,1.698
			L21.855,41.692z M21.338,44.038c0.851-0.453,1.823-1.383,2.307-1.94v0.58l-0.021,0.411l0.213,1.45
			C23.454,44.474,22.298,44.264,21.338,44.038 M37.325,60.324c1.603,0.022,3.209,0.577,3.467,3.474l-0.968,2.017l-0.386,0.249
			l0.434,0.178l0.217,0.274l-0.316,0.516c-0.901,0.797-2.804,2.508-3.782,3.696l-0.417,1.064c0,0.937,0.796,1.67,1.146,2.377
			c0.465,0.978,1.705,2.858,2.613,3.218l0.756,0.847l0.019,0.208l-0.108,0.201l-0.227,1.201h0.459l0.175-0.987l0.255-0.401
			l0.044-0.013l0.235-0.175l0.669-1.167l0.583-0.59l0.239-0.025l0.675,0.15l0.303,0.168l0.242-0.404l-1.22-0.408l-0.383,0.06
			l-0.876,0.912l-0.048,0.204l0.36-1.476l0.908-0.682l0.169-0.057l0.487,0.115l0.65,0.487l0.287-0.382l-0.666-0.462l-0.197-0.089
			l0.359-0.395l0.469-0.329l0.159,1.645l-1.038,3.305c-0.51,0.777-1.948,3.078-2.744,3.008c-0.998-0.013-1.459-0.498-1.794-1.205
			c-0.347-0.784-1.08-2.135-1.08-2.135l-0.026-0.114l-0.137-0.032l-0.968-0.296l-1.15-1.329c-0.501-0.609-0.957-1.348-1.711-1.676
			l-1.189-0.664l-0.085-0.873l0.085-0.612l0.87-1.762l0.239-1.208l-0.051-0.382l-0.022-0.236c0.074-2.142,0.431-2.568,0.8-3.524
			c0.262-0.765,1.657-1.119,1.657-1.119l-0.051-0.487l-0.841-0.038v0.344l-1.208,1.112c-0.283,0.825-0.708,1.393-0.832,3.094
			l-1.3,1.077l-0.854,0.548c0.44-1.274,0.523-2.575,0.564-3.575V66.49l-0.165-1.23l0.108-0.198c0.051-0.076,0.72-0.739,1.495-1.313
			l1.408-0.589l0.14-0.054l0.067-0.141l0.182-0.796l0.395-1.396C35.254,60.626,36.245,60.324,37.325,60.324 M38.189,56.611
			l0.064,0.239c-0.37,0.29-2.336,1.131-2.957,2.399l-0.558,1.007l-0.064,0.067l-0.108,0.041l0.054,0.21l-0.168-0.063l-0.437,1.584
			l-0.118,0.586l-1.514,0.708l-1.478,1.3c-0.376-0.968-0.861-1.705-0.915-1.896v-0.188l0.36-2.241l-0.497-0.108
			c0,0-0.331,1.574-0.331,2.349l0.032,0.296c0.063,0.404,0.691,1.262,1.035,2.338l-0.083,0.21l0.149,0.045l0.137,0.994v0.255
			c-0.111,1.472-0.188,3.244-1.303,4.993l-0.669,0.781l-0.054,0.089l-0.013,0.07l-0.43,1.855c-0.363,0.745-1.374,2.957-2.252,3.687
			c-1.083,0.896-1.278,1.976-1.364,2.75c-0.096,0.928,0.085,1.147-0.51,1.958c-0.647,0.882-0.864,1.201-0.835,1.953l0.035,1.016
			c0,0.558-0.092,1.23-0.522,1.993c-0.522,0.835-0.65,1.587-0.65,2.205l0.128,1.224c0.185,0.746,0.137,2.422,1.577,2.499l0.21,0.013
			l1.093-0.299h0.016l0.491,0.134l1.081,0.732l0.232,0.797v0.077l0.463,0.102v-0.178l-0.249-0.975l-1.333-1.026l-0.05-0.019
			l0.312-0.057l0.784-0.09l0.981,0.383l0.733,1.185h0.49l-0.567-1.141l1.159,0.975l0.026,0.039l-0.883,0.688
			c-0.837,0.676-2.099,1.186-3.212,1.281c-0.86,0.07-2.122,0.286-2.928,0.286l-0.622-0.064L20.51,95.53l-0.363-2.651l-0.471-2.039
			l0.662-3.81c0.026-0.411,0.418-1.208,0.418-2.361c0-1.052-0.536-2.336-0.536-2.734l1.246-3.018l0.436-1.099l0.096,0.242
			l0.911-0.417l0.787-1.65v-0.144c-0.016-0.702-0.535-2.078-1.083-2.963c-0.456-0.957-1.545-3.751-1.72-4.604l-0.02-0.239
			c-0.025-0.988,1.125-2.964,1.125-2.964l-0.431-0.239c0,0-1.154,1.96-1.205,3.203l0.067,0.366c0.233,0.924,1.271,3.675,1.794,4.697
			c0.478,0.841,1.017,2.291,1.017,2.744v0.064l-0.593,1.351l-0.599,0.258l0.048-0.134l-0.912-0.36l0.264-0.608l0.628-0.928
			l0.746-0.417l-2.077-0.121l0.28-0.959l0.111-0.302h-0.956l0.155-0.975l0.013-0.268h-0.675l0.353-0.972l0.154-0.376l-0.944,0.162
			l0.265-1.028l0.096-0.284l-0.924-0.07l0.848-1.867l0.188-0.185l-0.207-0.179c0,0-3.248-2.441-3.222-5.682
			c-0.057-3.187,6.071-8.6,6.182-14.562v-0.207c0-1.097-0.111-1.861-0.239-2.499l1.361,0.299c-0.28,1.078-0.424,3.363-0.424,3.363
			v0.223l0.144,0.063l0.092,0.016l0.044,0.045l0.051-0.029l0.554,0.128l-0.159,0.816c-1.425,6.242-5.819,7.74-5.851,12.061v0.411
			c0,0,0.395,2.457,2.026,2.647l0.299,0.029h0.146l0.841-0.481l0.481-1.125c0.631-1.294,0.924-2.54,2.16-3.608
			c1.368-1.204,3.63-3.071,4.114-4.553c0.458-1.274,0.841-1.692,0.841-2.855l0.022-0.794c0.882-0.188,1.574-0.551,2.074-0.87
			c-0.456,1.428-0.589,3.346-0.589,3.346l-0.054,0.36l0.332-0.073c2.227-0.545,4.028-2.38,4.633-3.053l0.35,0.596l2.03,1.979
			l0.334,1.848l0.172,0.038l0.076,0.047L38.189,56.611z M47.503,65.208l-0.529,0.074l-0.456-0.108l-0.111-0.647l0.076,0.026
			l0.6-0.217l0.201,0.612L47.503,65.208z M51.254,50.646l0.574,0.532l-0.242-0.01H51.48l-0.367-0.522H51.254z M48.348,52.695
			l0.114-0.252l-0.028-0.273l0.016-0.144l0.36-0.583l0.51-0.025l-0.197,1.807l0.073,1.494v0.035l-0.357,0.736l0.036-0.114
			l0.089-0.941l-0.529-1.274l-0.086-0.347l0.019-0.118H48.348z M47.978,53.973v-0.039v-0.07l-0.064-0.673l0.013-0.099l0.051,0.239
			l0.532,1.102l-0.061,0.348l-0.102-0.255L47.978,53.973z M44.552,55.965l-0.073-0.233c0.749,0.497,1.513,0.965,1.724,1.09
			l1.392,0.439l0.238-0.042l0.252-0.08l0.472-0.484l0.125-0.121l0.49-0.701l0.5-1.045l-0.032-0.169l-0.044-1.396l0.198-1.935
			l0.755-0.529h0.029l0.694,1.09l-0.468,1.797l-0.762,2.677l-0.94,2.785c-0.58,0.765-0.876,1.689-0.988,2.23l-0.519,2.062
			l-1.099,0.666l-0.293-0.72v-0.102l0.404-1.214l0.93-1.341l0.548-1.004l-0.159-0.396c-0.331-0.236-0.561-0.685-1.408-1.074
			c-0.746-0.427-1.179-0.71-1.918-0.867l-1.526-0.354v-0.22v-0.166l0.554-0.077L44.552,55.965z M44.677,52.65l-1.266,1.398
			l-0.166,0.093l0.07,0.201l0.749,1.562l-0.653,0.185l-0.612,0.08h-0.235l0.009,0.235l0.032,0.373c0,0.497-0.083,1.402-0.52,2.375
			c-0.404-1.023-1.504-3.286-3.582-4.002v-0.146l0.083-0.025l-0.306-1.593l-0.137-1.202l-0.398-1.421l-0.421,0.15l0.347,1.354
			l0.074,0.777l-1.628-1.606l-0.544-0.896l-0.192-0.194l-0.207,0.194c0,0-1.699,2.011-3.818,2.843l2.454-3.675
			c2.116-0.656,3.142-2.167,3.142-2.167v-0.057l0.688-0.08l-0.083-0.465l-1.284,0.111h-0.077l-0.443-0.462l-0.261-0.343
			l-0.208-0.233l-0.191,0.201l-0.22,0.185l-0.978,0.443c-1.004,0.309-1.861,0.701-2.256,0.689h-0.045l-0.207-0.16l-0.077,0.016
			l-0.962-1.173l-0.497-1.411l-0.051-0.213l-0.185,0.034l-0.411,0.026l-1.224-0.08l-0.844-0.175h-0.07l-0.181-1.844v-0.195
			l0.137-0.717l0.127-0.497L26.708,41.3l-1.074,0.175l-0.809-0.14L24.792,41.3l0.291-1.57l0.028-0.058l0.354,0.15l0.255-0.373
			l-0.488-0.401l-0.191-0.201l-0.15,0.201l-1.485-1.103l0.172-1.23l0.194-0.797l0.663,0.376l0.551,0.325l-0.759-2.096l-0.236,0.152
			l-0.414,0.497l-0.982-1.115l1.24-1.437l0.283,0.417l0.424,0.631V31.73l-0.316,0.096l-0.236,0.102l-0.443-1.427v-0.164
			l-0.057-0.009h0.019h0.039l0.074,0.009l1.223-0.51v-0.185c0,0-0.114-0.707-0.114-1.545l0.191-1.676l0.118-0.319
			c0.089,0.796,0.273,1.737,0.679,2.291c0.742,0.832,0.869,1.835,2.454,3.139c1.01,0.783,1.816,1.504,2.195,2.093l0.108,0.334
			l0.111,0.43c-0.22,0.446-0.893,1.75-1.708,1.702h-0.096l-0.22-0.022l-0.064,0.168l-0.204,1.304c-0.019,1.071,0.522,2.6,2.68,2.868
			l0.144,0.089c0,0,2.454,1.631,3.209,1.766h0.204l1.039-0.479l0.276-0.585l1.508,1.465h0.073l0.823-1.02l0.334-0.631l0.073-0.128
			l0.615,1.208l1.055,1.31l0.407,1.45l0.093,0.873c0,1.322-0.5,3.273-0.742,4.241l-0.058,0.338c0,1.354,1.335,3.052,1.335,3.052
			l0.175,0.281l0.172-0.258l0.083-0.083C42.086,53.192,43.23,52.695,44.677,52.65 M23.929,35.478l0.102-0.07l0.058,0.144
			L23.929,35.478z M44.804,48.285c-1.488,2.361-2.766,3.986-3.231,4.56c-0.357-0.49-1.078-1.711-1.078-2.536l0.039-0.239
			c0.233-0.933,0.765-2.919,0.765-4.34L41.162,44.7l-0.332-1.164l0.064-0.13l0.439-0.954l0.704-0.892l1.354,1.105l1.835,1.052
			l0.302,1.893C45.53,46.481,45.339,47.387,44.804,48.285 M52.016,39.822l-0.979-0.373l-1.131,0.401
			c-1.096,0.717-1.383,1.937-1.444,2.945l-0.114,1.243l-0.121,0.436l-2.211,1.256v-0.118l-0.303-1.794h0.089l0.408-0.032
			l0.583-0.067l0.573-0.092l-0.471-0.363l-1.539-1.581l-0.328-0.705l1.096-2.026c0.359-0.427,0.707-0.596,0.86-1.587
			c0.146-0.688,0.398-1.749,0.427-2.59c0.423,0.443,0.956,1.205,0.937,2.224v0.111v0.637l0.423-0.478l0.838-1.176l0.312,1.826
			l-0.016,0.331l-0.296,0.723l0.656-0.449l0.6-0.204C51.177,38.321,51.7,38.525,52.016,39.822 M55.03,36.836l-0.21,0.21
			l-0.137-0.029l-0.88-0.5h0.032l0.389-0.054l0.255-0.074L55.03,36.836z M54.258,25.282l-0.896,2.415
			c0.048,0.258-0.343,1.333-0.343,2.1v0.334l0.875,3.426l0.676,1.615v0.045l-0.405,0.809h-0.325l-0.354-0.157l-0.287-1.513
			l-0.121-1.272l-0.315-0.583l-0.063-0.064V32.26l-0.044-0.58l-0.201,0.05l0.041,0.529v0.026l-0.156,0.216
			c0,0-0.688,0.95-0.876,1.817l-0.819,2.396l-0.264,1.099l-0.192-1.546l-0.238-0.611l-0.071-0.243l0.309-1.149
			c0.389-1.533,0.883-2.884,0.883-4.035v-0.252l-0.121-1.702l0.43,0.103l0.067-0.682l-0.14-1.405
			c-0.08-1.029-0.657-1.437-0.663-1.747l-0.044-0.191l0.226-0.924l0.351-0.271l0.491-0.141l0.16,0.042l0.309,1.061l-0.033,0.121
			l-0.016,0.461l0.016,0.398l-0.276,1.036v0.185l0.108,0.924v1.526h0.472v-1.526l-0.111-0.987l-0.013-0.067l0.319-0.867l-0.01-0.032
			l1.21-1.396l0.421-0.108l0.348,0.182l0.025,0.182L54.258,25.282z M54.711,23.43l-0.487-0.095l-0.249,0.028l0.708-0.528l0.545,0.07
			L54.711,23.43z M24.197,78.279l-0.501,1.243l-0.334,0.74l0.08,0.379l0.447-0.182l-0.083-0.184l0.315-0.447l0.516-1.427
			L24.197,78.279z M36.433,56.487c0,0-1.268,1.048-2.813,1.641c-1.485,0.571-2.184,0.685-2.416,1.526l-0.172,0.857l0.478,0.035
			l0.166-0.769c0.128-0.547,0.545-0.615,2.135-1.22c1.629-0.653,2.909-1.699,2.909-1.699L36.433,56.487z M21.138,81.712
			l-0.111,0.461l0.185,0.029l0.067,0.08l0.577,1.427l-0.022,0.099c-0.054,0.768,0.07,1.01-0.131,1.52l-1.039,1.613l-0.108,0.75
			c0,0.809,0.249,1.944,0.249,2.549l-0.214,2.147l0.074,0.491l0.72,0.72l0.318-0.389l-0.65-0.592l-0.025-0.23l0.252-2.147
			c0-0.675-0.252-1.817-0.252-2.549l0.042-0.528l1.089-1.647l0.159-1.647v-0.16c0-0.783-0.538-1.507-0.567-1.612L21.138,81.712z
			 M31.934,41.29l-0.695-0.149l-0.994,0.303l-0.159-0.08l-0.179-0.65c-0.21-0.732-0.701-0.732-1.8-1.233
			c-1.112-0.599-0.797-0.554-1.039-1.125v-0.077l0.417-0.812l0.118-0.357l-0.716-1.702l-0.115-1.271l0.366,0.249l0.277,0.092
			l0.883-0.548l0.067-0.23l-0.427-1.262l-1.303-1.517l-0.287,0.363l0.539,0.529l0.577,0.688l0.401,1.198v0.064l-0.45,0.213h-0.028
			l-0.721-0.525l-0.439-0.319l0.074,0.494l0.162,1.819l0.66,1.664l-0.054,0.108l-0.449,1.023l0.016,0.197
			c0.137,0.488,0.108,0.956,1.303,1.446c1.16,0.583,1.441,0.583,1.517,0.944l0.224,0.71l0.567,0.366l0.994-0.258l0.544,0.074
			c0.81,0.219,1.6,1.577,1.6,2.064v0.06l0.427,0.096l0.064-0.109C33.811,42.976,32.995,41.647,31.934,41.29 M36.197,31.782
			l0.236-2.138l0.612-0.87l-0.408-0.146l-0.52,0.707l-0.127,0.067v0.115l-0.223,2.049L36.197,31.782z M33.983,74.042l-0.363,0.165
			l0.191,0.434v-0.02v0.02l0.487-0.067l0.182,0.047l0.901,0.774c0.386,0.5,0.988,1.871,1.781,2.553l1.217,1.118l0.156,0.036
			l0.224-0.185l-0.172-0.401l-1.103-1.074l-1.791-2.412l-0.796-1.036l0.676-0.799l-0.444-0.179
			C35.129,73.016,34.897,73.64,33.983,74.042"/>
		<path fill="#010202" d="M112.713,31.285h-0.016H112.713z M114.917,72.302l-0.178,0.688l0.252,0.756l-0.319,0.344l-0.389-1.128
			l0.166-0.806L114.917,72.302z M83.499,22.949l-0.249-0.121l0.28-0.067l0.834-0.114l0.908,0.716v0.017l0.214,0.111l0.959,1.025
			v-0.213l-0.013-0.181l0.318-1.202l0.37-0.34l0.036-0.083c0-0.784-0.641-0.934-0.641-0.934v-0.195l0.265-0.096l0.34-0.019
			c0.873,0,1.033,0.773,1.033,1.284l-0.016,0.223l0.609,0.574l-0.179-0.838h-0.032h-0.013l-0.092-0.109l0.105-0.114h0.032
			l0.415,0.021l0.777,1.196l0.083,0.099l0.284,1.587v0.118c-0.042,0.774-0.673,1.38-1.144,2.104
			c-0.507,0.739-0.507,1.434-0.551,2.581l-0.013,0.252c0,1.02,0.481,2.39,0.879,3.919l0.322,1.145l0.114,0.258l0.488,0.946
			c0.261-1.625,1.539-2.454,1.571-2.498l0.567-0.373l-0.205,0.65l-0.044,0.446c0,0.691,0.309,1.794,0.399,2.546
			c0.213,0.905,0.318,0.847,0.787,1.345l0.978,1.762c0.297-0.724,0.653-1.586,1.307-2.33c1.176-1.357,2.741-2.638,3.919-3.403
			c1.083-0.81,1.998-1.851,2.026-2.345V32.26l-0.085-0.777l-1.278-0.198h-0.238c-0.536,0.042-1.256,0.749-2.486,0.762h-0.007
			l-0.879-0.118h-0.067L95.378,31.4l-0.032-0.039l-0.402-0.367l-0.088-0.022l0.044-0.28l0.044-0.115l0.176-0.041h0.067l0.395,0.022
			l1.186-0.329l1.103-1.004l0.239-0.242l-0.456-0.528l-0.771-0.829h-0.07l-1.315,0.815l-0.376,0.548l-0.045-0.66l-0.016-0.318
			c0-0.807,0.156-3.196,2.183-3.26h2.495c0.189-0.303,0.708-1.103,1.603-1.119c1.017,0,1.23,0.233,2.008,0.233l0.306,0.013v-0.013
			l1.899-0.351l0.268-0.153l0.121,0.293l0.121,0.586l0.287-0.044l0.74-0.481l0.405-0.627v0.847l0.299,1.833l0.249,0.226l-0.277,0.16
			l-0.283,0.334v0.003c-0.026,0.064,0.875,0.905,1.258,2.537l0.921-1.53c0.299-0.803,0.535-1.593,0.535-1.593l0.111-0.328
			l0.255,0.204l0.625,0.752c0.331-1.596,0.595-4.904,0.595-4.904v-0.262l0.319,0.08l0.959,1.035
			c0.201-0.853,0.271-2.016,0.271-3.259c0-2.97-0.461-6.312-0.461-6.312l-0.051-0.344l0.334,0.057
			c2.211,0.522,3.852,4.987,3.872,7.759v0.245l0.191,0.401l0.175,1.154c0.66-0.634,1.766-2.457,2.706-4.149
			c1.096-1.973,1.973-3.82,1.973-3.82l0.172-0.329l0.216,0.293c0.724,0.851,1.042,1.883,1.042,3.014
			c-0.032,3.114-2.215,6.686-3.298,8.288c1.163-0.793,2.826-2.335,2.826-2.335l0.249-0.268l0.131,0.329l0.245,1.338
			c-0.029,2.375-2.026,4.681-3.289,5.905c1.234-0.393,2.53-0.472,2.53-0.472h0.214l0.064,0.185l0.01,0.45
			c0,2.007-2.308,4.512-3.346,5.528c1.45,0.064,2.125,0.611,2.125,0.641l0.127,0.093l-0.019,0.171
			c-0.443,1.644-1.533,2.804-2.537,3.556l0.201-0.035l0.226,0.035c2.336,0.198,4.188,1.529,4.35,3.987v0.41
			c0,2.053-1.312,3.343-1.252,3.875v0.077c0.159,0.758,0.465,0.94,1.023,4.142l0.067,0.622c0,1.87-1.638,2.278-2.579,2.278
			l-0.566-0.028l-0.211-0.061l-0.181-0.268l0.127-0.245c0.227-0.054,0.89-1.25,1.049-2.349l0.031-0.092
			c0.032-0.889-1.902-2.262-2.524-4.286l-0.137-0.656c0.083-1.635,1.953-2.224,2.412-2.352l0.393-0.74v-0.06
			c0-1.45-1.361-1.979-1.788-1.979h-0.051l-0.025,0.044h-0.054H120l-0.708-0.086l-0.898,0.217l0.144,1.055l0.035,0.175l-0.188,0.073
			l-1.007,0.233c-0.227,0.615-0.354,1.424-0.354,2.562v0.255c0.086,5.688,6.157,10.965,6.236,14.562
			c-0.029,3.075-2.524,5.325-3.26,5.923l0.89,2.097l0.111,0.284l-0.927,0.067l0.414,1.552l-0.886-0.153l0.312,0.876l0.099,0.306
			h-0.774l0.131,0.978l0.048,0.271h-0.879l0.312,0.949l0.057,0.325l-1.281,0.047l0.759,1.593l0.073,0.211l-0.873,0.353l0.465,1.157
			l1.243,3.129c0,0.663-0.551,1.787-0.551,2.734c0,1.061,0.341,1.73,0.469,2.23l0.625,3.941l-0.465,2.039l-0.376,2.792
			c-0.229,0.745-1.326,1.096-1.912,1.389l-0.834,0.134c-0.883,0-2.123-0.191-2.954-0.281c-1.224-0.114-2.53-0.624-3.473-1.389
			l-1.081-1l0.108-0.306l1.609-1.39l0.934-0.332l0.679,0.071l0.265-0.039v0.057l0.484,0.051c1.039,0.044,1.223,0.771,2.071,0.733
			l0.188-0.013c0.918,0.039,0.95-1.224,1.119-2.128l0.175-1.135c0-0.548-0.175-1.198-0.554-1.95
			c-0.532-0.875-0.656-1.629-0.656-2.248l0.044-1.016c-0.029-0.619-0.086-0.752-0.755-1.67c-0.673-0.902-0.481-1.421-0.567-2.199
			c-0.105-0.748-0.265-1.609-1.223-2.444c-0.998-0.841-1.976-3.075-2.352-3.811l-0.475-1.887l-0.673-0.882l-0.627-0.742
			c-0.329-0.481-0.536-0.593-1.284-1.064l-1.029-0.784l0.034,0.271h-0.076v0.022l-0.032,0.261l0.188,1.036l0.876,1.761l0.13,0.785
			l-0.092,1l-1.482,0.965l-1.571,1.558l-1.147,1.345l-1.116,0.433l-0.972,2.026c-0.376,0.784-1.035,1.472-2.244,1.472
			c-1.357-0.08-2.559-2.466-3.161-3.218c-0.58-0.896-1.064-2.868-1.096-3.572l0.191-2.01l0.047-0.303l0.245,0.095l1.021,0.641
			l0.793,0.568l1.169,0.911l0.494,1.771l0.166,0.561l0.978-0.851c0.564-0.181,1.962-2.096,2.355-2.979
			c0.382-0.79,1.103-1.498,1.093-2.154l-0.319-0.784c-0.991-1.128-2.842-2.855-3.744-3.635l-0.504-0.857l0.255-0.532
			c-0.774-0.743-0.908-2.147-0.943-2.177c0.238-3.18,2.269-4.002,3.944-3.954l1.896,0.232l-0.325-0.631l-1.584-1.52l-0.917-0.542
			l-0.468-0.533l0.039-0.121v-0.127l-0.121-0.854c-2.049,1.064-2.98,4.046-2.98,4.046l-0.156,0.507l-0.318-0.458
			c-0.485-0.86-0.676-1.724-0.749-2.374l-1.431,0.312c-0.695,0.144-1.058,0.389-1.845,0.847c-0.777,0.354-0.889,0.689-1.297,1.049
			h-0.013l0.51,0.825l0.832,1.183l0.574,1.472v0.181l-0.443,1.01l-0.181,0.816l-0.612,0.296l-0.758-0.083l-0.175-0.042l0.064-0.085
			l0.386-0.465l0.166-0.533l-0.032-0.047l-0.612-0.465l-0.682-2.281l-0.886-2.094c-0.65-0.816-0.921-2.616-1.014-2.887l-0.704-2.553
			L87.3,51.979l-0.032-0.128l0.191-0.462l-0.302,0.029l-0.124-0.029l-0.083-0.048l0.8-0.889l0.37,0.034l0.019-0.044l0.338-0.15
			l1.09,0.618l0.768,0.074l0.717,0.93l0.035,0.204l-0.035,0.249l0.191,0.146l0.386,0.678l-0.105,0.66v0.013v0.07l-0.437,0.883
			l-0.235,1.351l0.108,0.341l0.22,0.229l0.118,0.02l0.105,0.019l1.243-0.373c0.184-0.121,1.437-0.914,2.3-1.529l0.271-0.574
			l-1.52-1.73l-0.245-0.325l0.414-0.048l0.363-0.016c0.988,0,1.854,0.191,2.419,0.389c-0.628-0.832-1.67-2.214-2.795-4.06
			l-0.739-1.995l-2.419-1.6c-0.676-0.328-0.471-1.176-0.567-2.087c-0.109-0.981-0.367-1.975-1.246-2.562l-0.887-0.341
			c-0.837-0.077-1.141,1.345-1.141,1.345l-0.458-0.07c0.131-2.61,0.984-3.311,1.787-3.359l-0.238-1.078
			c-0.02-0.497-0.628-1.542-0.823-2.358l-0.595-1.322l-0.093,0.188l-0.124,1.084l-0.315,1.714l-0.507,0.408l-1.093,0.751h-0.156
			l-0.424-0.465v-0.111h0.077l0.503-0.386l-0.392-1v-0.051l0.727-1.845l0.829-3.352l0.035-0.141c0-0.742-0.414-1.702-0.414-2.183
			l-0.784-2.116l-0.427-1.428l0.051-0.37l0.175-0.233L83.499,22.949z M94.899,30.816L94.899,30.816l0.029,0.022L94.899,30.816z
			 M87.121,21.467l-0.268,0.016l0.475,0.976v0.08l0.596,0.117l0.02-0.117L87.121,21.467z M88.931,22.509l-0.153-0.012l0.204,0.784
			h0.188l0.357,0.064L88.931,22.509z M88.587,27.139c0.487-0.723,1.099-1.446,1.032-1.787v-0.058l-0.201-1.453l-0.067-0.057
			l-0.326-0.022l-0.146,0.022l0.019,0.57l-0.019,0.3c-0.134,0.608-0.603,0.828-0.699,1.71l-0.111,1.333l0.048,0.542L88.587,27.139z
			 M99.867,30.816h0.296l1.252,0.178v-0.382l0.111-0.714v-0.054h-0.188l-1.118-0.042l-0.485,0.213l-0.895,0.905L98.249,31.4
			L99.867,30.816z M101.416,29.401v-0.067l-0.236-0.235h-1.08l-0.899,0.098l0.038,0.013l0.982,0.124h0.034l1.083,0.067H101.416z
			 M97.111,30.562l-1.427,0.456l0.051,0.029l0.765,0.396l0.054,0.041h0.204l1.785-0.905l0.8-0.873l-0.229-0.044l-0.666-0.354
			l-0.198,0.201L97.111,30.562z M97.242,25.228c-0.755,0.012-1.15,0.449-1.427,1.064l-0.258,1.443l1.255-0.586h0.115l1.108,1.029
			l0.526,0.596l1.539-0.188h0.886l-0.513-1.702l-0.688-1.656H97.242z M100.584,25.625l-0.125-0.064l0.013,0.064H100.584z
			 M105.552,24.052l-0.299,0.102l0.331,0.045L105.552,24.052z M106.992,26.607l-0.019-0.083l0.347-0.65l-0.261-1.517l-0.488,0.297
			l-0.52,0.076l-0.343-0.026l-1.514-0.238l-0.848-0.112c-0.943-0.035-1.08-0.277-2.008-0.277l-1.159,0.908l0.264,0.497l1.055-0.56
			l0.497-0.131l0.612,0.16l0.708,0.152l0.803,0.296l0.796,0.319l-1.568,0.287l0.013,0.188l1.237,1.188v0.074v0.5l-0.319-0.099
			l-1.549-0.529l-0.733,0.227l-0.966-0.465l0.66,1.788l0.013,0.083l0.44,0.453l-0.21,1.784l0.064,1.064v0.057
			c-0.105,0.86-1.067,1.833-2.211,2.712c-1.115,0.758-2.718,2.017-3.833,3.349c-1.081,1.274-1.38,2.811-1.887,3.562l-1.192,1.357
			h0.051l0.315,0.02l2.139-1.052l1.634-1.147l1.144,1.096l0.357,0.816l0.876-1.243l0.462-0.898l0.491-0.49l0.101,0.013l0.803,1.032
			l0.297,0.59l0.111,0.159l0.235-0.216l1.157-1.358l0.268-0.299l0.156,0.366l0.423,0.854l0.647,0.303l0.092-0.016l2.82-1.577
			c-0.134-0.316-0.35-0.829-0.35-1.635v-0.208c0-0.87,0.478-2.291,0.863-3.929v-0.019l-0.047-0.108l0.019-0.031l-0.019-0.109
			l0.252-0.742l0.22-1.074l0.086-1.892C108.392,28.041,107.194,27.076,106.992,26.607 M107.544,38.614l0.248,1.191l0.074,0.128
			c2.042-0.166,2.368-1.408,2.409-2.39l-0.125-0.988c-0.912-0.026-1.526-0.816-1.857-1.431c-0.354,1.431-0.71,2.636-0.749,3.295
			V38.614z M111.187,27.955l-0.02,0.121l-0.156-0.749l-0.481-0.911l-0.471,1.269c-0.303,0.73-0.586,1.495-1.083,1.768v0.287v0.743
			v0.28v0.433l-0.128,1.224l-0.047,0.287l1.762-1.568l0.812-0.701l-0.08-0.064l0.168-0.765L111.187,27.955z M113.06,23.694
			l-0.131,0.274l-0.163-0.688l-0.532-1.253c-0.089,1.068-0.344,4.127-0.733,5.22c0.125,0.405,0.44,1.425,0.44,2.362v0.051
			l0.988-1.568l0.554-1.575h-0.067l0.067-0.602C113.483,25.087,113.213,24.188,113.06,23.694 M113.442,13.6
			c0.163,1.179,0.367,3.486,0.367,5.624c0,1.533-0.093,2.913-0.479,3.837c0,0,0.287,0.78,0.51,1.73
			c0.303-0.605,1.431-3.206,1.431-6.016C115.271,16.977,114.793,15.136,113.442,13.6 M114.577,14.307
			c0.867,1.393,1.179,2.976,1.179,4.468c0,3.362-1.539,6.312-1.539,6.312h-0.032l0.303,0.981l0.526-0.917l1.156-2.654l0.201-1.128
			l0.061,0.02v-0.02l0.08-0.198l0.08-0.787C116.591,18.59,115.676,15.888,114.577,14.307 M117.043,22.675l-0.22-1
			c-0.348,2.262-1.906,4.576-2.151,5.021l0.121,1.402l-0.105,1.418l0.736,0.287c0.252-0.538,1.447-3.38,1.657-7.106L117.043,22.675z
			 M106.301,49.458l-0.71-1.973l-0.558-0.175l-1.243-0.577l-0.104,0.108l-0.73,0.689v0.012h-0.063h-0.137h-0.061
			C103.13,48.071,104.31,49.193,106.301,49.458 M105.97,49.926l2.071,3.123l-0.175-0.988c-0.144-0.829-0.385-1.705-0.656-2.135
			l-0.074,0.102l-0.162-0.019L105.97,49.926z M106.929,49.426l0.551-1.444h-0.083l-1.259-0.325L106.929,49.426z M107.455,49.426
			l0.026,0.032c0.385,0.382,1.549,1.514,3.772,1.535c-1.593-0.819-2.173-2.122-2.329-2.631l-1.004-0.214L107.455,49.426z
			 M114.991,41.411l0.185,0.032l0.172,0.032l0.016-0.032l0.08,0.032l0.261,0.039l0.609-0.103l-1.737-1.357l0.162,1.064l0.252,0.245
			V41.411z M114.939,45.083c-0.898,0.408-1.727,0.574-2.281,0.666l0.958,1.033l1.747,1.338
			C115.348,47.45,115.16,45.812,114.939,45.083 M112.298,46.054c-0.108,0.838-0.561,1.928-0.561,1.928l-0.028,0.108l-0.16,0.029
			c-0.898,0.166-1.59,0.242-2.103,0.242c0.214,0.608,0.886,1.832,2.654,2.476c-0.032-0.529-0.114-1.518-0.551-2.435l0.357-0.283
			l0.392,0.175l1.294,0.194l1.201-0.146C113.809,47.759,112.767,46.589,112.298,46.054 M114.688,49.709l-0.153-0.834l-0.943,0.095
			l-1.402-0.178c0.348,1.038,0.395,2.004,0.395,2.301v0.117l-0.047,0.208l-0.188,0.013l-0.959,0.057l-0.86-0.057l0.032,0.72
			c0,1.042,0.334,1.351,0.812,2.724c0.408,1.182,2.623,3.152,3.99,4.289c1.344,1.201,1.66,2.591,2.291,3.747l0.453,1.193
			l0.551,0.175l0.283-0.017c1.071,0.017,1.593-2.23,1.593-2.23v-0.347C120.599,57.778,116.195,56.168,114.688,49.709
			 M109.251,47.912l1.578-0.153c-0.796-0.589-1.223-1.546-1.453-2.17l-0.217,0.784l-1.064,1.348L109.251,47.912z M111.39,47.542
			l0.468-1.812l-0.028-0.118l-0.048-0.235l0.287-0.025c0,0,1.083-0.08,2.351-0.548c-0.732-0.338-1.437-0.969-1.835-1.396
			l-0.175,1.182v0.088l-0.076,0.068c-0.074,0.057-0.265,0.153-1.224,0.287l-1.277,0.083h-0.077
			C109.908,45.656,110.368,47.052,111.39,47.542 M112.602,42.266l0.024,0.284v0.168c0.243,0.312,1.256,1.409,2.113,1.696
			l0.178-1.326v-0.354v-1.045v-0.127h-0.054l-0.223,0.16l-0.357,0.245v-0.141l-0.867,0.141l-0.832-0.118L112.602,42.266z
			 M116.591,40.959l0.042-1.119l-0.287-1.315l-0.15-0.169l0.175-0.178l1.606-1.425l-0.195-0.223v-0.032l-1.931-0.229
			c0.216,0.842,0.216,1.728,0.28,1.753v0.077l-0.064,0.067l-1.647,1.265L116.591,40.959z M115.727,35.765
			c0.468,0.022,1.539,0.086,2.368,0.318l-0.348-0.771l-0.723-1.208l-0.077-0.016l-0.028,0.047l-1.243,1.521L115.727,35.765z
			 M116.759,33.49h0.064l0.047,0.034h0.029h0.019l0.207,0.103l0.025,0.042c0.3-0.296,0.957-1.048,1.234-1.887l-0.367-0.032
			l-1.848,0.351l-0.6,0.198l1.062,1.226L116.759,33.49z M115.676,31.782c0.52-0.216,1.329-0.456,2.106-0.497l-1.822-0.911v0.108
			L115.676,31.782z M122.167,15.126c-0.883,1.784-3.295,6.458-4.602,7.529c-0.047,0.835-0.175,1.606-0.261,2.346
			c1.341-1.523,4.891-5.978,4.891-9.649L122.167,15.126z M122.313,14.778l-0.019,0.077l0.073-0.029L122.313,14.778z M122.996,17.193
			l-0.363-1.873v0.031c0,4.863-5.481,10.5-5.506,10.554c-0.303,1.421-0.694,2.581-0.956,3.32c0.653-0.57,1.628-1.529,2.731-2.778
			l0.337-0.393C119.238,26.055,123.027,21.072,122.996,17.193 M119.618,26.364c-1.523,1.813-2.916,3.047-3.551,3.569l1.042,0.396
			c0.28-0.239,1.428-1.202,2.635-2.457c1.195-1.198,2.45-2.658,2.996-3.846C121.912,24.791,120.488,26.024,119.618,26.364
			 M119.292,31.4l-0.299-0.37c0,0,4.188-3.346,4.188-6.485l-0.01-0.251c-1.211,2.428-4.742,5.535-5.605,6.284l1.252,0.823
			l0.124,0.088l-0.035,0.154c-0.248,1.089-1.042,1.985-1.341,2.319l0.15,0.248c0.302-0.12,1.259-0.652,2.284-1.312
			c1.109-0.72,2.224-1.664,2.546-2.361C121.785,30.613,120.245,30.823,119.292,31.4 M120.873,34.319
			c0.752-0.947,1.495-2.097,1.759-3.069c-1.16,1.59-4.06,3.069-4.646,3.381l0.672,1.574h0.191l0.287-0.035
			C119.446,35.886,120.172,35.172,120.873,34.319 M121.205,36.906c-0.332-0.124-0.841-0.252-1.603-0.252h-0.271l-0.013,0.036
			l-0.08,0.063h-0.102l-0.599,0.013l-1.457,1.476l1.705-0.195c1.071-0.204,2.262-0.58,2.639-1.048L121.205,36.906z M121.312,37.719
			c-1.217,0.768-3.531,0.937-4.346,0.978l0.159,1.144l-0.159,1.571l0.299-0.111l0.198-0.08l0.644-0.312
			C119.05,40.411,120.548,39.395,121.312,37.719 M119.292,42.355L120,42.393l0.172-0.007c0.618,0,2.247,0.667,2.285,2.47
			l-0.028,0.143v0.039l-0.517,1.039l-0.096,0.025c0,0-2.215,0.526-2.135,1.906l0.051,0.503c0.564,1.893,2.463,3.065,2.508,4.404
			v0.178c-0.153,0.985-0.545,1.909-0.957,2.396h0.08l0.191-0.274c0,0,0.281-0.596,0.686-1.514l0.216-0.889l-0.389-1.377
			c-0.319-0.719-1.179-1.606-1.521-2.772l-0.013-0.369c0.013-1.145,1.425-1.896,1.444-1.906l0.245,0.393
			c0,0-1.262,0.787-1.223,1.514l0.019,0.216c0.293,1.007,1.116,1.893,1.489,2.721l0.408,1.581l-0.236,1.061l-0.312,0.686
			l0.284-0.271c0.344-0.354,0.188-0.641,0.318-1.443v-0.066c0-0.8-1.01-3.496-1.22-4.069l-0.077-0.262
			c0.064-0.863,1.166-1.879,1.202-1.918l0.306,0.338l-0.529,0.618l-0.484,0.962l0.028,0.064c0.224,0.637,1.256,3.228,1.256,4.25
			v0.153l-0.456,1.683l-1.119,0.892c0.803-0.083,1.775-0.453,1.775-1.774l-0.064-0.523c-0.532-3.215-0.812-3.266-1-4.139
			l-0.029-0.127c0.074-1.014,1.3-2.033,1.3-3.927l-0.028-0.366c-0.143-2.189-1.743-3.381-3.916-3.569h-0.182l-1.427,0.3
			l-0.558,0.274l0.52,0.956L119.292,42.355z M117.184,41.692l-0.236-0.178v0.048l-0.028,0.127l-0.096,0.074l-0.944,0.204l2.17,1.698
			L117.184,41.692z M117.667,44.038c-0.797-0.453-1.788-1.383-2.304-1.94v0.58l0.08,0.411l-0.268,1.45
			C115.57,44.474,116.744,44.264,117.667,44.038 M101.703,60.324c-1.539,0.022-3.189,0.577-3.454,3.474l0.991,2.017l0.399,0.249
			l-0.453,0.178l-0.268,0.274l0.351,0.516c0.912,0.797,2.811,2.508,3.779,3.696l0.461,1.064c-0.038,0.937-0.885,1.67-1.153,2.377
			c-0.465,0.978-1.737,2.858-2.648,3.218l-0.724,0.847l-0.08,0.208l0.144,0.201l0.249,1.201h-0.504l-0.124-0.987l-0.347-0.401
			v-0.013l-0.204-0.175l-0.686-1.167l-0.551-0.59l-0.278-0.025l-0.652,0.15l-0.313,0.168L95.378,76.4l1.226-0.408l0.408,0.06
			l0.857,0.912l0.057,0.204l-0.372-1.476l-0.908-0.682l-0.16-0.057l-0.488,0.115l-0.678,0.487l-0.262-0.382l0.644-0.462l0.216-0.089
			l-0.363-0.395l-0.481-0.329l-0.146,1.645l1.036,3.305c0.522,0.777,1.95,3.078,2.752,3.008c1.02-0.013,1.463-0.498,1.823-1.205
			c0.313-0.784,1.052-2.135,1.052-2.135l0.036-0.114l0.149-0.032l0.953-0.296l1.135-1.329l1.688-1.676l1.22-0.664l0.093-0.873
			l-0.093-0.612l-0.863-1.762l-0.249-1.208l0.048-0.382l0.057-0.236c-0.105-2.142-0.469-2.568-0.851-3.524
			c-0.249-0.765-1.612-1.119-1.612-1.119l0.013-0.487l0.88-0.038v0.344l1.179,1.112c0.302,0.825,0.678,1.393,0.803,3.094h0.012
			l1.304,1.077l0.898,0.548c-0.472-1.274-0.526-2.575-0.583-3.575l-0.017-0.274l0.175-1.23l-0.102-0.198
			c-0.057-0.076-0.73-0.739-1.517-1.313l-1.367-0.589l-0.191-0.054l-0.041-0.141l-0.207-0.796l-0.373-1.396
			C103.79,60.626,102.812,60.324,101.703,60.324 M100.843,56.611v0.239c0.309,0.29,2.288,1.131,2.843,2.399l0.624,1.007l0.074,0.089
			l0.114,0.019l-0.047,0.21l0.146-0.063l0.436,1.584l0.124,0.586l1.508,0.708l1.507,1.3c0.344-0.968,0.828-1.705,0.857-1.896v-0.188
			l-0.338-2.241l0.468-0.108c0,0,0.367,1.574,0.367,2.349l-0.016,0.296c-0.134,0.404-0.71,1.262-1.046,2.338l0.068,0.21
			l-0.141,0.045l-0.108,0.994v0.255c0.108,1.472,0.137,3.244,1.287,4.993l0.672,0.781l0.064,0.089v0.07l0.411,1.855
			c0.36,0.745,1.398,2.957,2.275,3.687c1.048,0.896,1.223,1.976,1.351,2.75c0.105,0.928-0.128,1.147,0.5,1.958
			c0.646,0.882,0.832,1.201,0.832,1.953v1.016c0,0.558,0.08,1.23,0.52,1.993c0.507,0.835,0.628,1.587,0.628,2.205l-0.121,1.224
			c-0.191,0.746-0.111,2.422-1.583,2.499l-0.23,0.013l-1.08-0.299h-0.033l-0.484,0.134l-1.058,0.732l-0.248,0.797v0.077
			l-0.469,0.102v-0.178l0.265-0.975l1.323-1.026l0.048-0.019l-0.334-0.057l-0.749-0.09l-0.991,0.383l-0.727,1.185h-0.475
			l0.525-1.141l-1.15,0.975l-0.013,0.039l0.88,0.688c0.893,0.676,2.116,1.186,3.212,1.281c0.87,0.07,2.113,0.286,2.916,0.286
			l0.653-0.064l1.638-1.127l0.363-2.651l0.43-2.039l-0.621-3.81c-0.051-0.411-0.443-1.208-0.443-2.361
			c0-1.052,0.551-2.336,0.551-2.734l-1.233-3.018l-0.459-1.099l-0.083,0.242l-0.912-0.417l-0.783-1.65v-0.096
			c0-0.749,0.531-2.125,1.083-3.011c0.468-0.957,1.545-3.751,1.714-4.604l0.025-0.239c0.019-0.988-1.128-2.964-1.128-2.964
			l0.421-0.239c0,0,1.182,1.96,1.195,3.203l-0.057,0.366c-0.217,0.924-1.211,3.675-1.778,4.697c-0.51,0.841-1.007,2.291-1.007,2.744
			v0.064l0.554,1.351l0.634,0.258l-0.057-0.134l0.918-0.36l-0.271-0.608l-0.627-0.928l-0.771-0.417l2.11-0.121l-0.287-0.959
			l-0.114-0.302h0.968l-0.162-0.975l-0.02-0.268h0.641l-0.337-0.972l-0.121-0.376l0.937,0.162l-0.271-1.028l-0.073-0.284l0.898-0.07
			l-0.832-1.867l-0.213-0.185l0.22-0.179c0,0,3.238-2.441,3.218-5.682c0.083-3.187-6.054-8.6-6.166-14.562v-0.207
			c0-1.097,0.111-1.861,0.232-2.499l-1.38,0.299c0.284,1.078,0.436,3.363,0.436,3.363l0.036,0.223l-0.188,0.063l-0.111,0.016v0.045
			l-0.064-0.038l-0.538,0.137l0.146,0.816c1.431,6.242,5.802,7.74,5.841,12.061v0.411c0,0-0.392,2.457-2.026,2.647l-0.316,0.029
			h-0.077l-0.915-0.481l-0.453-1.125c-0.624-1.294-0.901-2.54-2.16-3.608c-1.367-1.204-3.639-3.071-4.159-4.553
			c-0.392-1.274-0.837-1.692-0.837-2.855v-0.794c-0.867-0.188-1.581-0.551-2.062-0.87c0.468,1.428,0.605,3.346,0.611,3.388
			l0.016,0.318l-0.331-0.073c-2.192-0.545-4.015-2.38-4.607-3.053l-0.338,0.596l-2.052,1.979l-0.334,1.848l-0.118,0.038
			l-0.175,0.057L100.843,56.611z M91.522,65.208l0.589,0.074l0.399-0.108l0.134-0.647l-0.103,0.026l-0.577-0.217l-0.172,0.612
			L91.522,65.208z M87.749,50.646l-0.507,0.532l0.217-0.01h0.077h0.032l0.356-0.522H87.749z M90.693,52.695l-0.124-0.252
			l0.093-0.273l-0.064-0.144l-0.376-0.583l-0.488-0.025l0.172,1.807l-0.025,1.494v0.035l0.293,0.736v-0.114l-0.089-0.941
			l0.529-1.274l0.08-0.347l-0.007-0.118H90.693z M91.051,53.973v-0.039v-0.07l0.114-0.673v-0.099l-0.114,0.239l-0.501,1.102
			l0.048,0.348l0.124-0.255L91.051,53.973z M94.492,55.965l0.08-0.233c-0.752,0.497-1.514,0.965-1.744,1.09l-1.383,0.439
			l-0.204-0.042l-0.284-0.08h-0.035l-0.456-0.484l-0.093-0.121l-0.494-0.701l-0.494-1.045l0.022-0.169l0.044-1.396l-0.239-1.935
			l-0.739-0.529h-0.019l-0.708,1.09l0.497,1.797l0.759,2.677l0.946,2.785c0.532,0.765,0.86,1.689,0.972,2.23l0.522,2.062
			l1.096,0.666l0.332-0.72v-0.102l-0.424-1.214l-0.975-1.341l-0.551-1.004l0.227-0.396c0.296-0.236,0.538-0.685,1.361-1.074
			c0.758-0.427,1.236-0.71,1.918-0.867l1.536-0.354v-0.22v-0.121l-0.545-0.121L94.492,55.965z M94.364,52.65l1.274,1.398
			l0.159,0.093l-0.063,0.201l-0.759,1.562l0.708,0.185l0.583,0.08h0.22l-0.02,0.235l-0.025,0.373c0,0.497,0.045,1.402,0.513,2.375
			c0.446-1.023,1.491-3.286,3.584-4.002v-0.146l-0.066-0.025l0.299-1.593l0.127-1.202l0.377-1.421l0.426,0.15l-0.334,1.354
			l-0.073,0.777l1.632-1.606l0.545-0.896l0.214-0.194l0.178,0.194c0,0,1.688,2.011,3.853,2.843l-2.454-3.675
			c-2.16-0.656-3.154-2.167-3.154-2.167v-0.057l-0.708-0.08l0.042-0.465l1.312,0.111h0.057l0.491-0.462l0.261-0.343l0.167-0.233
			l0.216,0.201l0.223,0.185l0.987,0.443c0.988,0.309,1.835,0.701,2.241,0.689h0.057l0.232-0.16l0.029,0.016l1.004-1.173l0.439-1.411
			l0.064-0.213l0.153,0.034l0.456,0.026l1.217-0.08l0.857-0.175h0.054l0.184-1.844v-0.195l-0.096-0.759l-0.159-0.456l0.459,0.159
			l1.067,0.175l0.8-0.14V41.3l-0.219-1.57l-0.096-0.058l-0.309,0.15l-0.262-0.373l0.479-0.401l0.188-0.201l0.146,0.201l1.472-1.103
			l-0.141-1.23l-0.204-0.797l-0.631,0.376l-0.567,0.325l0.719-2.096l0.262,0.152l0.42,0.497l0.957-1.115l-1.227-1.437l-0.265,0.417
			l-0.436,0.631V31.73l0.312,0.096l0.239,0.102l0.436-1.427v-0.128l0.08-0.044h-0.047h-0.033l-0.047,0.009l-1.243-0.51v-0.185
			c0,0,0.089-0.707,0.089-1.545l-0.198-1.676l-0.095-0.319c-0.096,0.796-0.262,1.737-0.705,2.291
			c-0.691,0.832-0.825,1.835-2.425,3.139c-0.991,0.783-1.838,1.504-2.244,2.093l-0.061,0.334l-0.099,0.43
			c0.21,0.446,0.883,1.75,1.686,1.702h0.156l0.198-0.022l0.025,0.168l0.213,1.304c0.019,1.071-0.51,2.6-2.667,2.868L107.92,40.5
			c0,0-2.466,1.631-3.202,1.766h-0.175l-1.071-0.479l-0.277-0.585l-1.504,1.465h-0.086l-0.761-1.02l-0.383-0.631l-0.086-0.128
			l-0.589,1.208l-1.068,1.31l-0.395,1.45l-0.112,0.873c0,1.322,0.542,3.273,0.774,4.241l0.026,0.338
			c-0.026,1.354-1.326,3.052-1.326,3.052l-0.166,0.281l-0.204-0.258l-0.074-0.083C96.955,53.192,95.814,52.695,94.364,52.65
			 M115.077,35.478l-0.022-0.07l-0.115,0.144L115.077,35.478z M94.256,48.285c1.479,2.361,2.756,3.986,3.253,4.56
			c0.299-0.49,1.052-1.711,1.033-2.536l-0.029-0.239c-0.22-0.933-0.771-2.919-0.771-4.34L97.87,44.7l0.34-1.164l-0.054-0.13
			l-0.437-0.954l-0.653-0.892l-1.383,1.105l-1.864,1.052l-0.29,1.893C93.53,46.481,93.746,47.387,94.256,48.285 M87.033,39.822
			l0.961-0.373l1.147,0.401c1.081,0.717,1.341,1.937,1.457,2.945l0.095,1.243l0.118,0.436l2.214,1.256v-0.118l0.271-1.794h-0.058
			l-0.411-0.032l-0.551-0.067l-0.589-0.092l0.43-0.363l1.546-1.581l0.363-0.705l-1.102-2.026c-0.329-0.427-0.695-0.596-0.886-1.587
			c-0.096-0.688-0.389-1.749-0.437-2.59c-0.389,0.443-0.915,1.205-0.908,2.224v0.111v0.637l-0.437-0.478l-0.803-1.176l-0.35,1.826
			l0.066,0.331l0.249,0.723l-0.609-0.449l-0.628-0.204C87.854,38.321,87.329,38.525,87.033,39.822 M84.001,36.836l0.236,0.21
			l0.127-0.029l0.848-0.5l-0.376-0.054l-0.271-0.074L84.001,36.836z M84.767,25.282l0.898,2.415c0,0.258,0.376,1.333,0.376,2.1
			l-0.017,0.334l-0.857,3.426l-0.682,1.615v0.045l0.38,0.809h0.347l0.379-0.157l0.248-1.513l0.154-1.272l0.315-0.583l0.019-0.064
			V32.26l0.092-0.58l0.168,0.05l-0.063,0.529v0.026l0.175,0.216c0,0,0.678,0.95,0.879,1.817l0.838,2.396l0.226,1.099l0.236-1.546
			l0.194-0.611l0.095-0.243l-0.315-1.149c-0.398-1.533-0.911-2.884-0.911-4.035v-0.252l0.175-1.702l-0.443,0.103l-0.064-0.682
			l0.114-1.405c0.128-1.029,0.656-1.437,0.692-1.747l0.013-0.191l-0.223-0.863l-0.354-0.332l-0.526-0.141l-0.108,0.042l-0.281,1.061
			v0.121l0.009,0.461l-0.009,0.459l0.302,0.975l-0.021,0.185l-0.1,0.924v1.526h-0.453v-1.526l0.083-0.987v-0.121l-0.305-0.812
			l0.034-0.032l-1.268-1.396l-0.376-0.108l-0.396,0.182l-0.031,0.182L84.767,25.282z M84.343,23.43l0.494-0.095l0.21,0.028
			l-0.682-0.528l-0.551,0.07L84.343,23.43z M114.863,78.279l0.485,1.243l0.328,0.74l-0.06,0.379l-0.456-0.182l0.044-0.184
			l-0.288-0.447l-0.516-1.427L114.863,78.279z M102.624,56.487c0,0,1.271,1.048,2.797,1.641c1.508,0.571,2.183,0.685,2.387,1.526
			l0.232,0.857l-0.497,0.035l-0.179-0.769c-0.092-0.547-0.519-0.615-2.112-1.22c-1.623-0.653-2.897-1.699-2.925-1.708
			L102.624,56.487z M117.904,81.712l0.083,0.461l-0.156,0.029l-0.083,0.08l-0.563,1.427v0.099c0.047,0.768-0.058,1.01,0.194,1.52
			l1.007,1.613l0.124,0.75c0,0.809-0.242,1.944-0.242,2.549l0.191,2.147l-0.096,0.491l-0.695,0.72l-0.277-0.389l0.596-0.592v-0.23
			l-0.205-2.147c0-0.675,0.268-1.817,0.268-2.549l-0.073-0.528l-1.058-1.647l-0.211-1.647v-0.16c0-0.783,0.522-1.507,0.597-1.612
			L117.904,81.712z M107.104,41.29l0.704-0.149l1.003,0.303l0.112-0.08l0.178-0.65c0.245-0.732,0.769-0.732,1.794-1.233
			c1.153-0.599,0.841-0.554,1.045-1.125l0.02-0.077l-0.412-0.812l-0.098-0.357l0.694-1.702l0.115-1.271l-0.353,0.249l-0.281,0.092
			l-0.864-0.548l-0.08-0.23l0.396-1.262l1.332-1.517l0.287,0.363l-0.581,0.529l-0.535,0.688l-0.414,1.198l0.02,0.045l0.439,0.232
			h0.035l0.749-0.525l0.379-0.319l-0.022,0.494l-0.165,1.819l-0.695,1.664l0.035,0.108l0.468,1.023v0.197
			c-0.111,0.488-0.111,0.956-1.274,1.446c-1.186,0.583-1.459,0.583-1.529,0.944l-0.246,0.71l-0.548,0.366l-1.003-0.258l-0.535,0.074
			c-0.813,0.219-1.613,1.577-1.597,2.064l0.033,0.06l-0.488,0.096v-0.109C105.253,42.976,106.052,41.647,107.104,41.29
			 M102.85,31.782l-0.255-2.138l-0.663-0.87l0.472-0.146l0.551,0.707l0.093,0.067v0.115l0.226,2.049L102.85,31.782z M105.049,74.042
			l0.373,0.165l-0.159,0.434l-0.009-0.02v0.02l-0.491-0.067l-0.22,0.047l-0.857,0.774c-0.412,0.5-1.011,1.871-1.795,2.553
			c-0.739,0.567-0.904,0.908-1.223,1.118l-0.083,0.036l-0.28-0.185l0.169-0.401l1.071-1.074l1.803-2.412h0.013l0.79-1.036
			l-0.678-0.799l0.443-0.179C103.915,73.016,104.169,73.64,105.049,74.042"/>
		<path fill="#010202" d="M114.739,48.629c-2.074,0.373-2.957-0.319-2.957-0.319c0.631,1.338,0.548,2.865,0.548,2.865
			c-0.745,0.121-1.431,0.085-2.026-0.025v0.994c0,1.09,0.379,1.479,0.837,2.785c0.469,1.354,2.699,3.263,4.035,4.426
			c1.357,1.15,1.65,2.451,2.275,3.681c0.646,1.243,0.146,1.514,1.535,1.472c1.335-0.074,1.782-2.441,1.782-2.441
			c0.279-4.384-4.337-5.851-5.852-12.417L114.739,48.629z M108.322,33.961l0.276-1.552L108.322,33.961z M69.854,153.851
			c0,0,4.223-1.492,10.347-4.742c-2.59,0.018-2.747,1.555-5.229,1.555c-2.536,0-2.877-1.555-5.98-1.555
			c-3.142,0-2.753,1.555-5.134,1.555c-1.95,0-2.578-0.994-4.133-1.403l-4.617-2.492c0.816-0.433,1.354-1.045,3.189-1.045
			c2.76,0,3.146,1.574,5.561,1.574c2.38,0,1.992-1.574,5.134-1.574c3.104,0,3.444,1.574,5.98,1.574c2.511,0,2.601-1.574,5.255-1.574
			c2.25,0,2.342,0.95,3.792,1.25l1.198-0.732c-2.09-0.039-2.361-1.44-4.99-1.44c-2.654,0-2.744,1.535-5.255,1.535
			c-2.536,0-2.877-1.535-5.98-1.535c-3.142,0-2.753,1.535-5.134,1.535c-2.415,0-2.801-1.535-5.561-1.535
			c-2.435,0-2.546,1.051-4.13,1.319l-6.003-3.933l0.883-0.057c3.25,0,4.442,1.466,4.442,1.466c2.291-0.083,2.042-1.466,4.808-1.466
			c2.76,0,3.146,1.568,5.561,1.568c2.38,0,1.992-1.568,5.134-1.568c3.104,0,3.531,2.116,5.98,1.568
			c2.511-0.517,2.601-1.568,5.255-1.568c2.629,0,2.9,1.466,5.047,1.466c2.186,0,2.476-1.466,5.65-1.466l0.599-0.057l0.991-0.726
			c-0.316-0.179-0.545-0.179-1.59-0.179c-3.174,0-3.464,1.498-5.65,1.498c-2.147,0-2.418-1.498-5.047-1.498
			c-2.654,0-2.744,1.593-5.255,1.593c-2.536,0-2.877-1.593-5.98-1.593c-3.142,0-2.753,1.593-5.134,1.593
			c-2.415,0-2.801-1.593-5.561-1.593c-2.766,0-2.517,1.313-4.808,1.498c0,0-1.192-1.498-4.442-1.498
			c-1.003,0-1.571,0.172-2.01,0.357l-1.906-1.466c1.447-0.408,1.447-1.274,3.917-1.274l0.105,0.013
			c-0.752-0.593-0.924-1.319-0.969-1.332l-0.019-0.134l0.064-0.083c0,0,1.303-1.62,2.23-2.568c0.876-0.943,1.476-1.606,1.839-2.11
			l1.545-1.115l1.016-5.691l-24.868-0.083C46.483,145.986,69.854,153.851,69.854,153.851 M68.99,150.046
			c3.104,0,3.444,1.529,5.98,1.529l-5.159,2.236l-5.284-2.256C66.16,151.294,66.177,150.046,68.99,150.046 M63.308,11.783h11.195
			v-0.058H63.308V11.783z M117.39,41.564l0.108-0.051l-0.121,0.016L117.39,41.564z M85.356,131.615l0.236,0.274l1.281,0.892
			l1.051,1.44l2.625,3.907l0.208,0.281l-0.316,0.095c0,0-1.851,0.51-3.285,0.664l-1.179,0.121c-0.797,0-1.415-0.154-2.416-0.351
			c-1.558-0.37-2.135-0.656-3.919-0.656c-1.686-0.026-2.907,0.943-4.86,1.07h-0.076c-1.874,0-4.381-1.18-5.749-1.147h-0.063
			c-1.383,0.051-3.754,1.447-4.684,1.562l-0.198,0.032c-0.79,0-1.683-0.332-2.533-0.664c-0.88-0.382-2.103-1.159-2.999-1.198H58.43
			c-0.765-0.032-2.524,1.179-3.123,1.453c-0.468,0.205-1.383,0.377-2.422,0.409l0.603,0.446c2.291-0.16,2.042-1.459,4.808-1.459
			c2.76,0,3.146,1.562,5.561,1.562c2.38,0,1.992-1.562,5.134-1.562c3.104,0,3.444,1.562,5.98,1.562c2.511,0,2.601-1.562,5.255-1.562
			c2.629,0,2.9,1.459,5.047,1.459c2.186,0,2.476-1.459,5.65-1.459c3.001,0,1.498,0.81,3.817,0.867
			c4.758-3.709,9.582-8.247,13.983-13.715l-24.421-0.063L85.356,131.615z M14.083,80.8c0,19.108,6.944,33.83,15.907,44.88
			L47.63,65.294l-1.223-0.127l-0.204-1.127l-0.278-0.807l0.481-1.36l0.921-1.274l0.439-1.116c-0.385-0.286-0.561-0.672-1.36-1.054
			c-0.784-0.415-1.15-0.689-1.855-0.861L42.8,57.211c-0.039,0.646-0.194,1.57-0.762,2.51c0,0-1.017-3.317-3.409-4.27l-0.125,1.399
			c0.157,0.265-2.335,1.163-2.935,2.504c-0.404,0.825-0.666,1.106-0.809,1.192c0.825-0.29,5.863-1.909,6.261,3.228
			c0,0-0.254,1.714-1.057,2.252c0,0,0.866,0.354,0,1.163c-0.909,0.787-2.805,2.508-3.796,3.671
			c-0.994,1.188,0.265,2.195,0.755,3.174c0.405,0.978,1.737,2.874,2.46,3.123l0.947,1.077l0.5-1.003l0.468-1.686l1.071-0.768
			l0.94-0.688l0.835-0.532l0.194,1.988c0,0.586-0.542,2.597-1.029,3.458c-0.596,0.768-1.899,3.084-2.979,3.084
			c-1.138,0-1.67-0.583-2.002-1.329c-0.35-0.759-1.077-2.125-1.077-2.125l-1.083-0.399l-1.147-1.325L33.384,75.3l-1.348-0.832
			v-1.657l0.902-1.743l0.152-1.421l-0.095-0.788c0,0-0.561,0.631-1.32,1.118l-1.357,1.09l-1.348,1.619c0,0-0.073,1.208-0.405,1.976
			c-0.392,0.711-1.383,2.947-2.371,3.738c-0.988,0.857-1.16,1.81-1.271,2.593c-0.08,0.848,0.111,1.211-0.517,2.087
			c-0.678,0.909-0.828,1.106-0.828,1.794c0,0.765,0.258,1.832-0.526,3.146c-0.806,1.371-0.634,2.422-0.456,3.225
			c0.172,0.854,0.172,2.32,1.332,2.352c1.182,0.115,1.354-0.72,2.266-0.72c0.873,0,1.619-0.42,2.231,0.115l1.564,1.332
			c0.182,0.396,0,0.268-0.905,0.975c-0.911,0.765-2.198,1.269-3.365,1.39c-1.157,0.083-3.062,0.458-3.649,0.172L20.274,95.6
			l-0.393-2.721l-0.443-2.039l0.644-3.857c0.1-0.468,0.472-1.214,0.472-2.311c0-0.985-0.561-2.244-0.561-2.725l1.233-3.094
			l0.551-1.334l-0.886-0.36l1.106-1.858l-1.581-0.095l0.386-1.31h-0.921l0.201-1.208h-0.704l0.456-1.3l-0.931,0.201l0.383-1.412
			l-0.931-0.092l1.023-2.263c0,0-3.33-2.447-3.33-5.854c0-3.41,6.124-8.734,6.198-14.565c0-1.344-0.121-2.307-0.37-3.008
			l-1.147-0.281l0.201-1.166c-0.797-0.561-1.743-0.248-1.935-0.287c-0.357-0.118-2.247,0.456-2.147,2.335l0.456,0.851
			c0,0,2.877,0.667,2.243,2.74c-0.644,2.056-2.699,3.327-2.517,4.478c0.179,1.182,0.755,2.322,1.153,2.542
			c0.382,0.125-3.473,0.796-2.973-2.457c0.542-3.228,0.838-3.313,1.014-4.148c0.182-0.788-1.415-2.043-1.278-4.42
			c0.191-2.307,1.902-3.562,4.143-3.753l1.714,0.287c-1.128-0.596-3.018-1.877-3.594-4.14c0,0,0.793-0.656,2.625-0.545
			c-0.599-0.547-4.13-4.015-3.706-6.204c0,0,2.438,0.149,3.753,0.981c0,0-5.356-4.216-4.05-7.912c0,0,2.807,2.613,3.808,2.897
			c0,0-6.149-8.024-2.89-11.88c0,0,3.601,7.441,5.029,8.27c0,0,0.22-0.398,0.293-1.511l0.245,0.255
			c-0.484-2.454,1.412-8.014,3.621-8.476c0,0-1.093,8.043,0.08,10.356c0,0,0.284-1.371,1.039-1.536c0,0,0.283,4.522,0.758,5.605
			l0.796-1.284c0,0,0.944,3.151,1.708,3.316c0,0-0.01,0.542,0,1.301c0.051-2.601,1.434-3.776,1.495-4.066l-0.405-0.593l0.373-2.084
			l0.812,0.554l0.717,0.061l-0.099-0.061l0.121-0.704l2.049,0.382l-0.57,0.105l0.904-0.105c0.873,0,1.017-0.232,1.992-0.232
			c0.921,0,1.446,1.128,1.446,1.128h2.642c2.189,0,1.925,3.301,1.925,3.301l-1.552-0.911l-1.606,1.645h0.02l0.392,0.318l1.115,1.029
			l1.845,0.386l-0.386,0.437c-0.407,0.296-0.867,0.58-1.95,0.58c-1.109,0-1.775-0.669-2.444-0.717l-1.797,0.22v-0.064l-0.064,1.096
			c0.035,0.691,0.988,1.66,2.09,2.521c1.15,0.781,2.785,2.04,3.926,3.375c0.755,0.94,1.147,1.986,1.443,2.763l1.173-2.189
			c0.417-0.462,0.65-0.507,0.835-1.447c0.131-0.953,0.605-2.438,0.37-3.135c0,0,1.552,1.022,1.465,2.909l0.934-1.536l0.08-0.076
			l0.376-1.297c0.389-1.647,0.965-3.091,0.841-4.216c0-1.128,0-1.935-0.561-2.709c-0.545-0.787-1.22-1.507-1.096-2.036l0.232-1.523
			v-0.016l-0.009,0.016l0.685-1.325h0.337l-0.227,1.035v0.083l0.185,0.074l0.663-0.628c-0.048-0.389-0.172-1.807,1.179-1.549
			l0.28,0.061c0,0-0.829,0.302-0.672,1.329l0.232,0.223l0.284,1.24v0.915l1.351-1.457l0.271-0.134h-0.038
			c0,0-0.392-1.224,1.559-0.743l-0.717,0.847l-0.039,0.093l0.09,0.105l-0.338,1.552l-0.848,2.256l-0.382,2.396l0.883,3.391
			l0.685,1.743l-0.593,0.985h0.284l0.646,0.544l-0.51,0.357l-1.014-0.835l0.262-0.003l-0.644-0.292l-0.274-1.619l-0.146-1.179
			l-0.277-0.561c0,0-0.669,0.937-0.851,1.74c-0.223,0.774-0.749,1.813-0.873,2.393l-0.277,1.377
			c0.631-0.134,1.667,0.025,1.906,3.091c0,0-0.447-2.438-2.413-1.195c-2,1.386-0.997,4.436-1.784,4.671
			c-0.755,0.332-2.199,1.064-2.578,1.733l-0.685,1.976c-1.481,2.316-2.689,3.948-3.199,4.543l0.134,0.201
			c0,0,1.243-0.796,3.253-0.708l-1.635,1.804l0.249,0.625c0.88,0.659,2.23,1.571,2.492,1.733l1.479,0.38l0.666-0.769l-0.271-1.548
			l-0.395-0.797l0.159-1.176l0.3-0.71l0.544-0.774l0.823-0.044l1.086-0.583l0.577-0.039l0.568,0.475l11.483-39.236H14.083V80.8z
			 M110.304,36.319c-1.145,0.172-1.912-1.536-2.084-1.867c-0.411,1.669-0.883,3.116-0.883,3.964c-0.041,1.02,0.236,1.564,0.38,1.778
			C111.498,39.981,110.304,36.319,110.304,36.319 M30.732,33.961l-0.28-1.552L30.732,33.961z M24.312,48.629l-0.188,1.02
			c-1.526,6.567-6.121,8.033-5.841,12.417c0,0,0.436,2.368,1.8,2.441c1.367,0.042,0.864-0.229,1.526-1.472
			c0.638-1.23,0.899-2.53,2.228-3.681c1.37-1.163,3.601-3.072,4.098-4.426c0.43-1.306,0.771-1.695,0.771-2.785l0.045-0.994
			c-0.577,0.111-1.284,0.146-2.039,0.025c0,0-0.045-1.526,0.554-2.865C27.266,48.311,26.38,49.002,24.312,48.629 M31.312,40.195
			c0.163-0.214,0.44-0.759,0.44-1.778c-0.067-0.848-0.513-2.295-0.911-3.964c-0.16,0.331-0.934,2.039-2.135,1.867
			C28.706,36.319,27.536,39.981,31.312,40.195 M21.702,41.529l-0.15-0.016l0.15,0.051V41.529z M51.037,53.718l-0.029,0.07
			l-0.669,2.253L51.037,53.718z M51.725,51.296h-0.14l-0.277,0.013l0.169,0.605l-0.077,0.44L51.725,51.296z M47.768,63.548
			l-0.596,0.44l0.156,0.898l0.302,0.363l1.899-6.433l-0.21,0.407c-0.548,0.746-0.87,1.67-0.972,2.16L47.768,63.548z M74.503,11.783
			l34.22,114.152c8.903-11.05,15.802-25.842,15.802-45.135V11.783H74.503z M123.858,53.15c0.507,3.253-3.339,2.582-2.985,2.457
			c0.363-0.22,0.962-1.361,1.15-2.542c0.169-1.15-1.887-2.422-2.495-4.478c-0.656-2.074,2.224-2.74,2.224-2.74l0.44-0.851
			c0.08-1.879-1.771-2.453-2.151-2.335c-0.185,0.039-1.131-0.274-1.896,0.287l0.149,1.166l-1.138,0.281
			c-0.239,0.702-0.363,1.664-0.332,3.008c0.074,5.832,6.172,11.156,6.172,14.565c0,3.406-3.308,5.854-3.308,5.854l1.004,2.263
			l-0.908,0.092l0.35,1.412l-0.895-0.201l0.449,1.3h-0.705l0.147,1.208h-0.912l0.38,1.31l-1.523,0.095l1.093,1.858l-0.941,0.36
			l0.568,1.334l1.259,3.094c0,0.481-0.548,1.74-0.548,2.725c0,1.096,0.363,1.842,0.478,2.311l0.583,3.857l-0.436,2.039L118.79,95.6
			l-1.797,1.262c-0.647,0.287-2.505-0.089-3.7-0.172c-1.147-0.121-2.394-0.625-3.33-1.39c-0.937-0.708-1.09-0.58-0.937-0.975
			l1.597-1.332c0.577-0.536,1.338-0.115,2.195-0.115c0.917,0,1.112,0.835,2.301,0.72c1.153-0.032,1.153-1.498,1.313-2.352
			c0.204-0.803,0.395-1.854-0.434-3.225c-0.822-1.314-0.554-2.382-0.554-3.146c0-0.688-0.159-0.886-0.771-1.794
			c-0.656-0.875-0.471-1.239-0.551-2.087c-0.105-0.784-0.281-1.736-1.303-2.593c-0.931-0.791-1.919-3.027-2.304-3.738
			c-0.36-0.768-0.472-1.976-0.472-1.976l-1.319-1.619l-1.354-1.09l-1.317-1.118l-0.111,0.788l0.194,1.421l0.857,1.743v1.657
			l-1.332,0.832l-1.625,1.609l-1.16,1.325l-1.099,0.399c0,0-0.717,1.367-1.045,2.125c-0.354,0.745-0.883,1.329-2.015,1.329
			c-1.086,0-2.405-2.317-2.953-3.084c-0.536-0.861-1.065-2.872-1.065-3.458l0.175-1.988l0.89,0.532l0.896,0.688l1.083,0.768
			l0.471,1.686l0.503,1.003c0-0.357,0.188-0.799,0.928-1.077c0.732-0.249,2.058-2.145,2.479-3.123
			c0.487-0.979,1.74-1.986,0.752-3.174c-0.988-1.163-2.849-2.884-3.763-3.671c-0.898-0.809,0-1.163,0-1.163
			C98.239,65.489,98,63.775,98,63.775c0.42-5.137,5.446-3.518,6.274-3.228c-0.125-0.086-0.38-0.367-0.766-1.192
			c-0.634-1.341-3.132-2.24-2.97-2.504l-0.143-1.399c-2.396,0.953-3.384,4.27-3.384,4.27c-0.574-0.94-0.746-1.864-0.796-2.51
			l-1.724,0.356c-0.676,0.172-1.065,0.447-1.896,0.861c-0.759,0.382-0.946,0.768-1.3,1.054l0.389,1.116l0.911,1.274l0.517,1.36
			L92.87,64.04l-0.274,1.127l-1.243,0.127l0.332-0.408l0.172-0.898l-0.561-0.44l-0.605-2.164c-0.102-0.49-0.437-1.414-0.924-2.16
			l-0.988-2.82l-0.733-2.616l-0.516-1.874l0.217-0.605l-0.287-0.013h-0.392l0.682-0.752l0.615,0.039l1.089,0.583l0.8,0.044
			l0.563,0.774l0.268,0.71l0.21,1.176l-0.417,0.797l-0.262,1.548l0.679,0.769l1.45-0.38c0.251-0.162,1.619-1.074,2.482-1.733
			l0.268-0.625l-1.606-1.804c1.988-0.088,3.225,0.708,3.225,0.708l0.152-0.201c-0.5-0.595-1.74-2.227-3.212-4.543l-0.708-1.976
			c-0.356-0.669-1.826-1.402-2.581-1.733c-0.749-0.236,0.204-3.286-1.762-4.671c-1.938-1.243-2.419,1.195-2.419,1.195
			c0.21-3.065,1.31-3.225,1.883-3.091l-0.287-1.377c-0.067-0.58-0.653-1.618-0.854-2.393c-0.172-0.803-0.815-1.74-0.815-1.74
			L86.2,33.181l-0.127,1.179l-0.281,1.619l-0.625,0.292l0.233,0.003l-1.039,0.835l-0.45-0.357l0.65-0.544h0.274l-0.599-0.985
			l0.685-1.743l0.87-3.391l-0.392-2.396l-0.838-2.256l-0.325-1.552l0.064-0.105v-0.063l-0.74-0.876
			c1.947-0.481,1.523,0.743,1.523,0.743h-0.041l0.28,0.134l1.387,1.457v-0.915l0.267-1.24l0.265-0.223
			c0.141-1.026-0.713-1.329-0.713-1.329l0.268-0.061c1.386-0.258,1.249,1.16,1.227,1.549l0.64,0.628l0.191-0.067l0.022-0.089
			l-0.264-1.035h0.318c0.759,0.105,0.759,1.325,0.759,1.325l-0.09-0.016v0.016l0.274,1.523c0.089,0.529-0.551,1.25-1.096,2.036
			c-0.538,0.774-0.538,1.581-0.596,2.709c-0.067,1.125,0.481,2.568,0.877,4.216l0.395,1.297l0.058,0.076l0.93,1.536
			c-0.077-1.887,1.504-2.909,1.504-2.909c-0.261,0.698,0.21,2.183,0.364,3.135c0.137,0.94,0.41,0.985,0.803,1.447l1.163,2.189
			c0.31-0.777,0.673-1.823,1.489-2.763c1.118-1.334,2.75-2.593,3.881-3.375c1.128-0.86,2.058-1.83,2.119-2.521l-0.08-1.096v0.064
			l-1.817-0.22c-0.624,0.048-1.31,0.717-2.428,0.717c-1.064,0-1.549-0.284-1.943-0.58l-0.373-0.437l1.832-0.386l1.115-1.029
			l0.376-0.318l-1.564-1.645l-1.584,0.911c0,0-0.239-3.301,1.944-3.301h2.625c0,0,0.529-1.128,1.472-1.128
			c0.962,0,1.145,0.232,2.008,0.232l0.879,0.105l-0.541-0.105l2.023-0.382l0.152,0.704l-0.048,0.061l0.644-0.061l0.816-0.554
			l0.347,2.084l-0.376,0.593c0.074,0.29,1.428,1.465,1.479,4.066c0.016-0.758,0-1.301,0-1.301c0.787-0.165,1.679-3.316,1.679-3.316
			l0.797,1.284c0.51-1.083,0.806-5.605,0.806-5.605c0.739,0.166,1.036,1.536,1.036,1.536c1.16-2.313,0.061-10.356,0.061-10.356
			c2.183,0.462,4.113,6.022,3.601,8.476l0.29-0.255c0.086,1.112,0.238,1.511,0.238,1.511c1.459-0.829,5.042-8.27,5.042-8.27
			c3.267,3.856-2.855,11.88-2.855,11.88c1.004-0.284,3.764-2.897,3.764-2.897c1.344,3.696-4.047,7.912-4.047,7.912
			c1.386-0.832,3.785-0.981,3.785-0.981c0.421,2.188-3.11,5.656-3.677,6.204c1.806-0.111,2.593,0.545,2.593,0.545
			c-0.599,2.263-2.466,3.544-3.569,4.14l1.692-0.287c2.234,0.191,3.968,1.447,4.121,3.753c0.188,2.377-1.447,3.633-1.256,4.42
			C122.999,49.837,123.279,49.923,123.858,53.15"/>
		<path fill="#010202" d="M68.502,54.301l-1.931,11.966l1.931,1.938V54.301z M67.234,69.255L65.5,67.828l-10.815,1.3l0.357-0.032
			C57.298,69.096,64.934,69.229,67.234,69.255 M69.943,70.336l0.599-0.003c0,0,12.542-0.229,14.231-0.229l0.624-0.083v-0.035
			l-0.229-0.392H70.02l4.496-4.092l0.319-0.994l-1.167,0.507l-4.11,4.253v-0.554V54.241l-0.019-0.121h-0.032l-0.516,0.242V69.37
			l-3.862-3.881l-1.874-0.981l0.937,1.558l4.353,3.696l-0.637-0.022c0,0-10.213-0.146-12.864-0.146l-1.271,0.146l-0.236,0.14
			l0.217,0.167l0.815,0.165H68.61l-4.381,3.958l-0.847,1.268L65,74.778l4.098-3.938v20.842l0.127,0.592l0.045,0.103l0.287-0.835
			V71.295v-0.627l3.61,4.012l1.54,0.866l-0.523-1.21L69.943,70.336z M85.914,69.985l-1.141,0.631
			c-1.446,0-11.137,0.144-13.635,0.175l1.839,1.74l16.538-2.428v-0.469l-4.133-0.507l0.016,0.029L85.914,69.985z M70.02,91.541
			c0,0.733-0.21,1.269-0.749,1.287l-0.676-1.146V71.964l-2.278,2.243l2.795,23.732h0.446l2.865-23.406l-2.402-2.607V91.541z
			 M67.406,70.667H54.567c-0.761-0.016-1.43-0.214-1.491-0.788l0.73-0.65l-4.29,0.533v0.472l15.894,2.258L67.406,70.667z
			 M71.262,69.096h13.906l-12.252-1.453L71.262,69.096z M69.506,53.647l0.393,0.147l0.121,0.446v13.855l2.402-2.479l-2.865-15.088
			h-0.446l-0.596,3.549l0.08-0.032L69.506,53.647z"/>
		<path fill="#010202" d="M64.819,122.259c0.857-1.217,2.195-2.262,4.49-2.326v-0.644h-6.521v2.613h2.275L64.819,122.259z
			 M65.925,116.44h-6.036v2.384h6.036V116.44z M69.395,114.089h-5.857v1.88h5.857V114.089z M66.237,111.023h-5.593v2.581h5.593
			V111.023z M59.201,124.394h4.668l0.867-2.021v0.013h-5.535V124.394z M73.632,127.249h2.859v-2.39h-1.214l0.185,1.033l0.028,0.204
			l-1.858,0.249V127.249z M66.699,113.604h5.35v-2.581h-5.35V113.604z M79.629,122.386h-5.365l0.885,2.007h4.48V122.386z
			 M65.453,126.121h-1.842l0.019-0.229l0.128-1.033h-1.329v2.39h3.024V126.121z M69.395,121.953
			c-3.419,0.031-3.441,2.473-3.499,4.142v5.315l7.271,0.02v-5.538C73.167,125.069,72.772,121.959,69.395,121.953 M73.632,131.43
			h1.721h9.419l-0.682-3.69H73.632V131.43z M76.985,127.249h7.017l-0.407-2.39h-6.609V127.249z M74.971,125.675
			c-0.171-1.026-0.972-5.284-5.5-5.284c-4.538,0-5.261,4.194-5.337,5.246h1.319c0-0.752,0.111-1.625,0.522-2.441
			c0.511-0.975,1.552-1.721,3.419-1.721c3.773,0.013,4.238,3.41,4.238,4.391L74.971,125.675z M82.176,102.069h-2.065v2.683h-2.262
			v-2.683h-3.302v2.517H71.75v-2.734h-4.978v2.9h-2.798l0.039-2.511h-3.457v2.511h-2.339v-2.632h-1.475v4.308h25.435V102.069z
			 M87.459,134.387l-0.93-1.217l-0.108-0.083l0.16,0.433l-0.606,0.383l-0.073,0.057h-1.855l0.036,0.185v0.171h0.048l0.175,0.071
			v0.299l0.423,0.842v0.108l0.937,0.739l-0.044,0.205l0.774-0.103l0.389,0.057l0.061,0.026l0.057,0.038l0.191,0.204l0.064,0.045
			v0.114l0.456,1.243l0.14,0.147h0.036l-0.061,0.127v0.02l-0.05-0.032l0.143,0.108c0.832-0.108,1.635-0.338,2.087-0.446
			C89.355,137.312,87.676,134.961,87.459,134.387 M53.532,134.725l0.446-1.039l0.472,0.121l-0.472,1.064v0.09l-0.086,0.076
			l-1.596,1.44l1.291,2.021l0.988,0.064l1.887-1.625l0.054-0.051h0.086l0.389-0.083l0.061-0.178h0.334l1.294-1.307l0.134-0.886
			v-0.134l0.408-0.152l0.06,0.286l-0.175,0.976l0.797,0.796l0.073,0.083v0.274l0.262,0.357l0.111,0.044v0.242l0.538,0.581
			l0.689,0.28l1.099,0.108l0.114,0.039l0.039,0.141l0.398,0.114h0.08l0.013,0.032l0.347,0.064l0.564-0.032h0.09v-0.178v-0.07
			l0.701-1.326l-0.401-0.249l-0.016-0.032l-0.028-0.051l-0.169-0.542l0.72-1.344l0.329-0.803l-0.752-0.044l-0.51,0.146h-0.366
			l-0.319,0.108l-0.048,0.083h-0.076c-0.759,0.16-1.507,0.268-2.295,0.268l-0.857-0.051h-0.07l-0.013-0.032
			c-0.822-0.351-1.619-0.478-2.456-0.478l-0.689,0.025l-0.092,0.019l-0.083-0.044l-0.366-0.16h-0.214
			c-0.806,0-1.482-0.389-2.192-0.535l-0.213-0.039v-0.114l-0.274-0.21h-0.784v-0.178l-0.159,0.178
			c-0.408,0.51-0.976,1.166-1.89,2.142c-0.749,0.771-1.8,2.039-2.1,2.415L48.969,138l0.274,0.019
			c1.022,0.013,1.749-1.103,2.639-1.733L53.532,134.725z M69.812,110.539h5.159v-1.478h-5.159V110.539z M72.524,113.604h5.685
			v-2.581h-5.685V113.604z M69.863,115.969h5.407v-1.88h-5.407V115.969z M78.977,116.44H72.89v2.384h6.086V116.44z M72.425,116.44
			h-5.997v2.384h5.997V116.44z M69.812,119.964c1.938,0.077,3.222,0.911,4.063,1.938h2.132v-2.613h-6.195V119.964z M63.895,110.539
			h5.484v-1.478h-5.484V110.539z M83.813,137.618l0.16,0.167h0.028l0.988-1.078l0.054-0.083h0.108l-0.474-0.363v0.025v0.229h-0.236
			l-0.717,0.229l-0.226,0.216h0.254v0.656H83.813z M65.453,127.74h-10.49l-0.705,3.652l11.195,0.019V127.74z M80.111,124.394h3.371
			l-0.395-2.007h-2.977V124.394z M58.716,122.386h-2.811l-0.379,2.007h3.189V122.386z M61.922,124.859H55.45l-0.423,2.39h6.896
			V124.859z M53.978,132.627l0.045,0.02l0.235,0.14c0.769,0.198,1.393,0.497,1.989,0.497h0.227l0.105-0.039l0.093,0.109l0.379,0.166
			l0.641-0.051c0.882,0,1.72,0.147,2.603,0.517l0.793,0.057c0.711,0,1.364-0.108,2.097-0.236l0.641-0.28h0.366l0.337-0.077
			l0.045-0.064h0.073c2.053,0.134,4.069,0.134,6.083,0.517l1.039-0.025c1.036,0,2.059,0.057,3.098,0.057h0.487v-0.032h0.42
			l0.038-0.025l0.042,0.025l1.24-0.128l1.354-0.044v-0.141l0.453,0.108l1.959-0.178h4.838l0.698-0.446l-1.214-0.874l-0.223-0.242
			l-9.215-0.044h-21.78l-0.825,0.504h0.841V132.627z M84.001,135.107l-0.155-0.089v-0.281l-0.236-0.567l-0.048-0.21h-2.654
			l-2.059,0.21l0.66,0.675l0.318-0.051l0.153-0.006l0.064,0.114l0.359,0.522l0.064,0.07v0.083l0.249,0.624l0.583,0.472l0.128,0.07
			v0.077l0.073,0.063l0.147,0.159l0.028,0.083h0.462v0.249h0.497l0.115-0.249v-0.134l0.104-0.076l0.564-0.555l0.08-0.076h0.111
			l0.589-0.205l0.054-0.554L84.001,135.107z M72.425,135.375l0.695-0.192l0.708,0.039l0.198-0.025l0.204-0.044l0.108,0.159
			c0.574,1.071,1.274,2.543,2.336,2.53c0.21-0.841,0.312-1.677,0.341-2.524l-0.832-0.701h-0.316l-0.054-0.172l-0.038-0.032h-0.908
			c-1.039,0-2.094-0.096-3.098-0.096l-1.039,0.032l-1.549-0.204l0.201,0.268l-1.144,1.396v0.223h-0.233l-0.255,0.255l-0.462-0.23
			l0.5-0.478l1.202-1.479c-1.011-0.063-2.014-0.14-3.015-0.165l-0.392,0.937v0.09l-0.099,0.076l-0.592,1.045l0.041,0.293
			l0.064,0.007v-0.096h2.291l0.083,0.102c0.471,0.861,1.411,1.001,2.44,1.001l0.838-0.013
			C71.252,136.745,71.835,136.12,72.425,135.375 M86.72,137.083l-0.124-0.121l-0.201-0.025l-1.179,0.191
			c-0.29,0.306-0.443,1.077-1.214,1.128l-0.363-0.083l-0.229-0.044l0.01-0.095v-0.013l-0.176-0.338v-0.433h-0.029l-0.299,0.51
			l-0.061,0.083h-0.959l-0.424-0.268h-2.023h-0.016l-1.412-1.211l-0.063-0.076v-0.122l-0.503-0.318
			c-0.077,0.765-0.15,1.529-0.329,2.281l-0.067,0.167l-0.175,0.025h-0.21c-1.438-0.038-2.125-1.613-2.674-2.639h-0.172l-0.708-0.019
			l-0.363,0.077l-1.851,2.046l-0.048,0.057h-0.111l-0.89,0.013c1.489,0.28,3.426,1.051,4.825,1.051h0.029
			c1.781-0.121,2.986-1.096,4.847-1.121c1.871,0,2.581,0.318,4.038,0.694c0.994,0.179,1.586,0.319,2.307,0.319l1.132-0.096
			l0.235-0.044l-0.077-0.16L86.72,137.083z M67.014,136.745h-1.529l0.013,0.191l-0.713,1.593v0.555l-0.351-0.064h-0.204h-0.564
			l-0.487-0.083l-0.727-0.3l-0.915-0.076h-0.057h-0.042l-0.835-0.39l-0.047-0.024l-0.064-0.083l-0.488-0.529l-0.102-0.051v-0.235
			l-0.37-0.503l-0.013-0.07v-0.179l-0.663-0.688l-1.287,1.274l-0.089,0.044h-0.147l-0.592,0.249l-1.887,1.587l-0.083,0.057h-0.198
			l-1.16-0.083l-0.089-0.02l-0.025-0.077c-0.536-0.669-1.083-1.249-1.371-2.02c-0.672,0.592-1.38,1.529-2.428,1.656l0.296,0.223
			c1.086,0.517,1.348,0.51,2.543,0.587h0.443c0.985,0,1.902-0.191,2.291-0.351c0.484-0.205,2.224-1.454,3.333-1.472h0.089
			c1.068,0.07,2.275,0.886,3.126,1.23c0.807,0.325,1.631,0.593,2.326,0.593h0.185c0.65-0.026,2.938-1.37,4.468-1.504L67.014,136.745
			z M79.557,137.083l1.507,0.044l-0.061-0.114l-0.411-0.389h-0.156l-0.038-0.128l-0.401-0.834l-0.224-0.351h-0.264l-1.116-1.135
			l-1.233,0.051l-0.625,0.07l0.842,0.721l0.105,0.089v0.114l-0.028,0.153l0.625,0.351h0.051l0.318-0.064v0.395L79.557,137.083z
			 M62.314,119.289h-5.853l-0.456,2.613h6.309V119.289z M75.462,109.061v1.478h5.446l-0.284-1.478H75.462z M81.472,113.604
			l-0.484-2.581h-2.307v2.581H81.472z M81.548,114.089h-5.806v1.88h6.185L81.548,114.089z M76.491,121.902h6.526l-0.491-2.613
			h-6.035V121.902z M79.448,116.44v2.384h2.97l-0.411-2.384H79.448z M59.411,116.44h-2.435l-0.398,2.384h2.833V116.44z
			 M57.48,113.604h2.708v-2.581h-2.24L57.48,113.604z M63.047,114.089H57.4l-0.35,1.88h5.997V114.089z M56.881,106.919l1.335,1.67
			h22.296v-0.032l1.495-1.638H56.881z M63.426,109.061h-5.111l-0.284,1.478h5.395V109.061z"/>
	</g>
</g>
</svg>
