<svg id="Capa_1" data-name="Capa 1" xmlns="http://www.w3.org/2000/svg" viewBox="0 0 444.1 228.4"><defs><style>.cls-1{fill:#383838;}</style></defs><title>Cohesión horizontal</title><path class="cls-1" d="M139,207.7a9.46,9.46,0,0,0,2.8-6.7,9.32,9.32,0,0,0-2.8-6.7L81.3,136.6H363.1l-57.9,57.6a9.46,9.46,0,0,0-2.8,6.7,9.32,9.32,0,0,0,2.8,6.7l18,18a9.46,9.46,0,0,0,6.7,2.8,9.32,9.32,0,0,0,6.7-2.8L441.3,120.9a9.46,9.46,0,0,0,2.8-6.7,9.32,9.32,0,0,0-2.8-6.7L336.7,2.8A9.46,9.46,0,0,0,330,0a9.32,9.32,0,0,0-6.7,2.8l-18,18a9.42,9.42,0,0,0-2.8,6.7,9.24,9.24,0,0,0,2.8,6.7L363,91.9H81.2l57.7-57.7a9.46,9.46,0,0,0,2.8-6.7,9.32,9.32,0,0,0-2.8-6.7l-18-18A9.46,9.46,0,0,0,114.2,0a9.32,9.32,0,0,0-6.7,2.8L2.8,107.5A9.42,9.42,0,0,0,0,114.2a9.24,9.24,0,0,0,2.8,6.7L107.5,225.6a9.46,9.46,0,0,0,6.7,2.8,9.32,9.32,0,0,0,6.7-2.8Z"/></svg>