<svg id="Capa_1" data-name="Capa 1" xmlns="http://www.w3.org/2000/svg" viewBox="0 0 500 500"><defs><style>.cls-1{fill:#383838;}</style></defs><title>Cohesión vertical</title><path class="cls-1" d="M343.5,333.1a9.47,9.47,0,0,0-6.7-2.8,9.29,9.29,0,0,0-6.7,2.8l-57.7,57.7V109l57.7,57.7a9.47,9.47,0,0,0,6.7,2.8,9.29,9.29,0,0,0,6.7-2.8l18-18a9.47,9.47,0,0,0,2.8-6.7,9.29,9.29,0,0,0-2.8-6.7L256.7,30.7a9.47,9.47,0,0,0-6.7-2.8,9.29,9.29,0,0,0-6.7,2.8L138.6,135.4a9.47,9.47,0,0,0-2.8,6.7,9.29,9.29,0,0,0,2.8,6.7l18,18a9.39,9.39,0,0,0,6.7,2.8,9.23,9.23,0,0,0,6.7-2.8l57.7-57.7V390.9L170,333.1a9.47,9.47,0,0,0-6.7-2.8,9.29,9.29,0,0,0-6.7,2.8l-18,18a9.47,9.47,0,0,0-2.8,6.7,9.29,9.29,0,0,0,2.8,6.7L243.3,469.2A9.39,9.39,0,0,0,250,472a9.23,9.23,0,0,0,6.7-2.8L361.4,364.5a9.47,9.47,0,0,0,2.8-6.7,9.29,9.29,0,0,0-2.8-6.7Z"/></svg>