<svg id="Capa_1" data-name="Capa 1" xmlns="http://www.w3.org/2000/svg" viewBox="0 0 500 500"><defs><style>.cls-1{fill:#383838;}.cls-2{fill:#fff;}</style></defs><title>Comportamiento prosocial</title><g id="_608hDH.tif" data-name="608hDH.tif"><path class="cls-1" d="M384.77,310.33c0,6.71-4.39,12.1-10.54,13.09-6.74,1.09-12.75-2.51-14.62-8.75a21.38,21.38,0,0,1-.61-6c-.19-22.58-.69-44.67-4.75-66.65-1.64-8.92-4.11-17.84-6.49-26.45-.83-3-1.67-6.07-2.47-9.11-.32-1.19-2.2-3.36-3.61-3.05a3.17,3.17,0,0,0-2.22,1.45c-.63,1.14-.27,2.57.17,3.82,1,2.82,1.88,5.75,2.74,8.57.72,2.36,1.47,4.8,2.27,7.18.58,1.73.52,2.18.48,2.26s-.38.25-2.25-.16a19.79,19.79,0,0,0-23.34,24.56c2,7.4,7.16,12.27,14.89,14.09a49.36,49.36,0,0,0,8.73,1.5c2.39.11,2.75.91,2.75,3.59q-.06,52.31,0,104.62,0,30.82,0,61.66c0,11.86-4.49,17.8-17.13,22.65h-7.56c-11.62-3.9-16.76-12-16.65-26.27.28-35.44.24-71.47.19-106.31q0-20.1,0-40.2c0-.33,0-.66,0-1,.06-1.44.11-2.93-.93-4-.81-.83-2.07-1.22-4-1.23s-3.27.4-4.11,1.26c-1.1,1.12-1.06,2.73-1,4.28,0,.28,0,.57,0,.87q0,30.81,0,61.63V358.9q0,9.24,0,18.47c0,15.17,0,30.86-.05,46.28-.07,10.47-7.41,19.1-17.47,20.51a20.26,20.26,0,0,1-22.53-14.1,33.59,33.59,0,0,1-1.12-9.44c0-35.26,0-71.12,0-105.8v-48.6c0-21.35,0-43.43,0-65.15,0-1.71-.08-3.33-1.18-4.35a4.14,4.14,0,0,0-3.29-.85,3.19,3.19,0,0,0-2.5,1.13,3.69,3.69,0,0,0-.24,3.1c.11.51.15.89.16.92.26,1.14-.89,9.47-5,32.24v32.09q0,73.47,0,146.94a59,59,0,0,1-.32,7,20.44,20.44,0,0,1-34.32,12.24,21.49,21.49,0,0,1-6.45-15.68c0-35.77-.07-82.9,0-130.3,0-3.89-1.27-5.21-5.09-5.22h0c-1.89,0-3.09.35-3.87,1.13-1,.95-1.14,2.35-1.14,4.15.06,32.08.06,64.7.07,96.24q0,27.5,0,55c0,8.52-3,14.67-9.17,18.8a32.88,32.88,0,0,1-5.06,2.58c-.76.34-1.53.67-2.27,1h-8.23c-.85-.43-1.71-.82-2.58-1.22a31.63,31.63,0,0,1-5.68-3.06c-5.57-4.08-8.27-10-8.26-18.14q0-62.73,0-125.47v-41.2c0-2.85,0-5.69,0-8.54,0-8.33,0-16.94.1-25.41a11.49,11.49,0,0,1,1.73-5.65c2.17-3.49,4.49-7,6.73-10.36,1.77-2.65,3.6-5.4,5.34-8.14a3.5,3.5,0,0,1,3.83-1.93c10.42.79,18.57-5.67,20.3-16.08.2-1.2.33-2.41.46-3.58l.21-1.88c.51-4.52,1-8.79,4.1-12.66,3.9-4.86,4.4-11.25,1.37-17.52a12.31,12.31,0,0,1-1.08-8.07c.46-2.59.7-5.24.93-7.8.1-1.08.2-2.17.31-3.25,0-.34.13-1.25.36-1.41,0,0,.32-.18,1.32,0,7.25,1.72,14.84,1.38,24.61-1.07,9.56-2.41,18,.4,24.47,8.12a9.32,9.32,0,0,1,1.44,3.54c4.89,18.08,19.74,30.65,38.75,32.82,17.33,2,35.09-7.92,43.2-24.05,1.31-2.61,2-2.67,4.75-1.83,12.55,3.86,22,12.15,29.81,26.09,10.75,19.25,15.15,40.34,17.78,56.56C383.38,259.49,385,283.11,384.77,310.33Z"/><path class="cls-1" d="M242.63,102.82c-3.73,18.87-21,31.56-41,30.15-17.69-1.23-33.12-16.79-34.4-34.68a38.32,38.32,0,0,1,30.54-40.76,17.19,17.19,0,0,0,1.88-.55l.66-.22h10c.75.22,1.51.42,2.27.62,1.67.46,3.4.92,5.05,1.49A38.19,38.19,0,0,1,242.63,102.82Z"/><path class="cls-1" d="M288.43,98.13a39.2,39.2,0,0,1-.2,78.39,39.2,39.2,0,0,1,.2-78.39Z"/><path class="cls-2" d="M288.44,97.13h-.08a40.2,40.2,0,0,0-.13,80.39h.24a40.24,40.24,0,0,0,40-40.14v0A39.74,39.74,0,0,0,288.44,97.13Zm-.2,78.39a38.2,38.2,0,0,1,.12-76.39h.07a38.2,38.2,0,0,1-.19,76.39Z"/><path class="cls-1" d="M182.5,177c-4.79,2.32-7.45,6-9.77,9.49-12.14,18.47-23,34.95-33.32,50.36-4.39,6.58-11.56,8.46-17.85,4.68-4.52-2.72-6.75-6.83-6.28-11.58,1.72-17.43,4.94-40.19,14.58-61.59,5.54-12.31,11.88-20.85,19.95-26.86a51.62,51.62,0,0,1,4.69-3l1-.58c-.14,1.27-.28,2.52-.41,3.75-.62,5.57-1.21,10.82-1.88,16.06a6.38,6.38,0,0,1-1.16,2.32l-3.17,4.82c-3.93,6-8,12.21-12.13,18.22-1.68,2.44-3.27,5.39-.88,9.47a1,1,0,0,0,.82.49.94.94,0,0,0,.86-.42l.71-1c.5-.69,1-1.36,1.43-2l3.6-5.42q6.72-10.12,13.4-20.25c4.41-6.72,11.5-9.15,17.86-10.64,5.78-1.36,11.73,2.39,13.82,8.71C190.34,168.09,187.89,174.39,182.5,177Z"/><path class="cls-1" d="M187.66,137.59c-.33,2-.54,4.06-.74,6-.17,1.73-.36,3.51-.62,5.23a2.82,2.82,0,0,1-.77.64c-6.64-3.65-13.51-3.23-21.58,1.31-1.08.61-2.23,1.17-3.57,1.82l-.65.32.69-5.49c1-7.82,1.92-15.22,2.92-22.64a7.57,7.57,0,0,1,1.2-2.65l.11-.18c.51-.86,1.89-3.16,2.58-3.19h0c.69,0,2.24,2,2.83,2.83a43,43,0,0,0,16.1,13.12C187.67,135.44,187.93,136,187.66,137.59Z"/><path class="cls-1" d="M350.35,260.35a2.72,2.72,0,0,1-2.15.31h-.11c-4.28-.63-8.71-1.28-12.94-2.34-6.33-1.58-10.23-7.72-9.27-14.61.87-6.24,6.51-10.74,13.43-10.74h.05c.42.07.89.12,1.39.18a28.34,28.34,0,0,1,4.65.83,3,3,0,0,1,1.6,1.69c1.46,8.5,2.69,16.91,3.6,23.28A1.68,1.68,0,0,1,350.35,260.35Z"/><path class="cls-1" d="M181.54,185.4c-.38,8.28-2.22,13.84-5.47,16.53a10,10,0,0,1-7.64,2c1.52-2.14,2.94-4.34,4.32-6.48A86,86,0,0,1,181.54,185.4Z"/></g></svg>