<svg id="Capa_1" data-name="Capa 1" xmlns="http://www.w3.org/2000/svg" viewBox="0 0 500 500"><defs><style>.cls-1{fill:#383838;}</style></defs><title>Confianza interpersonal</title><g id="_0DfInt.tif" data-name="0DfInt.tif"><path class="cls-1" d="M468.07,149.88V282.43l-10.35,5.64c-4.39,2.4-7,1.63-9.43-2.77q-24.51-44.91-49-89.85c-2.55-4.68-1.83-7.21,2.84-9.75Z"/><path class="cls-1" d="M100.79,195.27q-24.56,45-49.13,90.06c-2.35,4.31-5,5.11-9.25,2.82l-10.48-5.71V149.76l41.48,22.63c8.22,4.49,16.46,8.94,24.66,13.43C102.46,188.21,103.2,190.85,100.79,195.27Z"/><path class="cls-1" d="M378.76,345.56c-5,6.37-13.57,7.23-20.27,2q-45.94-36.15-91.88-72.34a25.77,25.77,0,0,0-3.14-2.3,3.2,3.2,0,0,0-4.51.87,3.26,3.26,0,0,0,.24,4.42,13.78,13.78,0,0,0,1.9,1.66q39.25,30.9,78.52,61.77c4.16,3.28,6.43,7.4,5.95,12.73A13.84,13.84,0,0,1,337,366.23c-5.15,2.32-10.06,1.44-14.47-2q-31.15-24.45-62.26-48.91c-5.62-4.42-11.21-8.86-16.82-13.26-.77-.6-1.66-1.51-2.49-1.51-1.32,0-3.12.27-3.8,1.14s-.57,2.74-.12,3.93c.37,1,1.64,1.75,2.59,2.5q31.75,25.19,63.51,50.33c6.94,5.51,7.74,14.35,2,20.87-4.95,5.66-13.09,6.41-19.27,1.59-9.44-7.36-18.79-14.83-28.17-22.27a5.79,5.79,0,0,0-.55-.43c-2.79-1.66-3.91-3.95-4.32-7.36-1.36-11.18-12-18.4-23.15-16.29a4.81,4.81,0,0,1-3.27-.79,24.66,24.66,0,0,1-7.42-7.9c-6.5-10.6-21.51-11.94-30.25-3-.47.48-.88,1.05-1.53,1.83-5-16-24.47-19.95-35.07-6.62l-.78-1.87c-3.36-7.7-9.22-11.93-17.62-12.3a18.88,18.88,0,0,0-18.29,11.56c-.86,2-1.79,1.81-3.2,1q-9.81-5.58-19.6-11.17-12.18-7-24.34-14c-3.36-1.94-3.81-3.42-2-6.71q23-41.43,46-82.85c1.78-3.21,3.42-3.8,6.82-2.5,6.81,2.62,13.61,5.22,20.4,7.88a12.25,12.25,0,0,0,8.54.24c17.1-5.49,34.2-10.94,51.27-16.49,4.15-1.36,8.18-.89,12.24.12.55.15,1.44.88,1.38,1.21a3.28,3.28,0,0,1-1.23,1.78c-5.07,3.83-10.15,7.67-15.32,11.4-9,6.45-17.94,12.89-27,19.23-11,7.67-12.3,20.33-3,30.06,8.14,8.53,20.91,11,32.52,6.19,13.46-5.6,26.88-11.3,40.3-17,5.67-2.38,11.36-4.67,16.94-7.22,3.34-1.55,6.06-1.12,8.93,1.13q51,40.3,102.13,80.49c3,2.34,5.93,4.64,8.87,7C382.88,330.64,384,339,378.76,345.56Z"/><path class="cls-1" d="M432.12,291.65l-41.49,30.2c-3.07,2.24-4.87,2.2-7.85-.17Q325,275.83,267.28,229.9c-2.85-2.26-5.57-2.71-8.93-1.28-20.4,8.7-40.83,17.29-61.25,25.93-9.68,4.09-19.63,2.34-26.11-4.59s-5.47-14.63,2.07-20.05c15.64-11.24,31.16-22.65,46.86-33.79a40.37,40.37,0,0,1,10.53-5.45c16.06-5.42,32.22-10.54,48.36-15.75,1.23-.39,2.5-.61,4.19-1a52.23,52.23,0,0,1,5.3,1.92q31.84,15.31,63.6,30.78a10.59,10.59,0,0,0,9.08.31c6.62-2.65,13.3-5.19,19.95-7.74,3.26-1.26,5-.65,6.67,2.4q23.1,41.5,46.15,83C435.52,287.79,435.11,289.48,432.12,291.65Z"/><path class="cls-1" d="M248.06,353.53a28.88,28.88,0,0,1-.82,4.26c-3.41,10.1-6.81,20.2-10.41,30.22a14,14,0,0,1-14,9.21,13.85,13.85,0,0,1-13-10.55,15.8,15.8,0,0,1,.15-7.88c3.2-10.15,6.69-20.23,10.3-30.25a14.07,14.07,0,0,1,15.86-9A14.56,14.56,0,0,1,248.06,353.53Z"/><path class="cls-1" d="M216.39,340.18c-3.32,10.43-6.93,20.79-10.68,31.08A13.64,13.64,0,0,1,192.54,380c-9.44-.06-16.47-9-13.65-18,3.24-10.38,6.84-20.66,10.59-30.88a14.22,14.22,0,0,1,26.91,9.1Z"/><path class="cls-1" d="M182.54,329.32a30.32,30.32,0,0,1-.79,4.27c-2.08,6.24-4.14,12.5-6.43,18.66A14.21,14.21,0,0,1,148,349.52a15.92,15.92,0,0,1,.51-6.76c1.87-6.15,4-12.23,6.21-18.27a14.11,14.11,0,0,1,15.94-9.11A14.45,14.45,0,0,1,182.54,329.32Z"/><path class="cls-1" d="M147.42,324.47c-.83,4.23-2,9.41-5.11,13.79a14,14,0,0,1-17.46,4.35,14.16,14.16,0,0,1-7.69-16.48,68.62,68.62,0,0,1,2.9-8.46A14.11,14.11,0,0,1,136,309.32C142.87,310.8,147.52,316.55,147.42,324.47Z"/><path class="cls-1" d="M261.41,397.32c-1.74.74-3.89.51-5.84.71-6.18,1.26-9.56-3.38-13.64-6.45a1.83,1.83,0,0,1-.21-1.57c2.94-8.63,5.94-17.23,8.91-25.84.36-1,.66-1.41,1.7-.57,4.32,3.55,8.86,6.84,13,10.58A14,14,0,0,1,261.41,397.32Z"/></g><path class="cls-1" d="M100.79,195.27q-24.56,45-49.13,90.06c-2.35,4.31-5,5.11-9.25,2.82l-10.48-5.71V149.76l41.48,22.63c8.22,4.49,16.46,8.94,24.66,13.43C102.46,188.21,103.2,190.85,100.79,195.27Z"/><path class="cls-1" d="M147.42,324.47c-.83,4.23-2,9.41-5.11,13.79a14,14,0,0,1-17.46,4.35,14.16,14.16,0,0,1-7.69-16.48,68.62,68.62,0,0,1,2.9-8.46A14.11,14.11,0,0,1,136,309.32C142.87,310.8,147.52,316.55,147.42,324.47Z"/><path class="cls-1" d="M181.75,333.59c-2.08,6.24-4.14,12.5-6.43,18.66A14.21,14.21,0,0,1,148,349.52a15.92,15.92,0,0,1,.51-6.76c1.87-6.15,4-12.23,6.21-18.27a14.11,14.11,0,0,1,15.94-9.11,14.45,14.45,0,0,1,11.88,13.94A30.32,30.32,0,0,1,181.75,333.59Z"/><path class="cls-1" d="M216.39,340.18c-3.32,10.43-6.93,20.79-10.68,31.08A13.64,13.64,0,0,1,192.54,380c-9.44-.06-16.47-9-13.65-18,3.24-10.38,6.84-20.66,10.59-30.88a14.22,14.22,0,0,1,26.91,9.1Z"/><path class="cls-1" d="M247.24,357.79c-3.41,10.1-6.81,20.2-10.41,30.22a14,14,0,0,1-14,9.21,13.85,13.85,0,0,1-13-10.55,15.8,15.8,0,0,1,.15-7.88c3.2-10.15,6.69-20.23,10.3-30.25a14.07,14.07,0,0,1,15.86-9,14.56,14.56,0,0,1,11.92,14A28.88,28.88,0,0,1,247.24,357.79Z"/><path class="cls-1" d="M265.35,374.18a14,14,0,0,1-3.94,23.14c-1.74.74-3.89.51-5.84.71-6.18,1.26-9.56-3.38-13.64-6.45a1.83,1.83,0,0,1-.21-1.57c2.94-8.63,5.94-17.23,8.91-25.84.36-1,.66-1.41,1.7-.57C256.65,367.15,261.19,370.44,265.35,374.18Z"/><path class="cls-1" d="M378.76,345.56c-5,6.37-13.57,7.23-20.27,2q-45.94-36.15-91.88-72.34a25.77,25.77,0,0,0-3.14-2.3,3.2,3.2,0,0,0-4.51.87,3.26,3.26,0,0,0,.24,4.42,13.78,13.78,0,0,0,1.9,1.66q39.25,30.9,78.52,61.77c4.16,3.28,6.43,7.4,5.95,12.73A13.84,13.84,0,0,1,337,366.23c-5.15,2.32-10.06,1.44-14.47-2q-31.15-24.45-62.26-48.91c-5.62-4.42-11.21-8.86-16.82-13.26-.77-.6-1.66-1.51-2.49-1.51-1.32,0-3.12.27-3.8,1.14s-.57,2.74-.12,3.93c.37,1,1.64,1.75,2.59,2.5q31.75,25.19,63.51,50.33c6.94,5.51,7.74,14.35,2,20.87-4.95,5.66-13.09,6.41-19.27,1.59-9.44-7.36-18.79-14.83-28.17-22.27a5.79,5.79,0,0,0-.55-.43c-2.79-1.66-3.91-3.95-4.32-7.36-1.36-11.18-12-18.4-23.15-16.29a4.81,4.81,0,0,1-3.27-.79,24.66,24.66,0,0,1-7.42-7.9c-6.5-10.6-21.51-11.94-30.25-3-.47.48-.88,1.05-1.53,1.83-5-16-24.47-19.95-35.07-6.62l-.78-1.87c-3.36-7.7-9.22-11.93-17.62-12.3a18.88,18.88,0,0,0-18.29,11.56c-.86,2-1.79,1.81-3.2,1q-9.81-5.58-19.6-11.17-12.18-7-24.34-14c-3.36-1.94-3.81-3.42-2-6.71q23-41.43,46-82.85c1.78-3.21,3.42-3.8,6.82-2.5,6.81,2.62,13.61,5.22,20.4,7.88a12.25,12.25,0,0,0,8.54.24c17.1-5.49,34.2-10.94,51.27-16.49,4.15-1.36,8.18-.89,12.24.12.55.15,1.44.88,1.38,1.21a3.28,3.28,0,0,1-1.23,1.78c-5.07,3.83-10.15,7.67-15.32,11.4-9,6.45-17.94,12.89-27,19.23-11,7.67-12.3,20.33-3,30.06,8.14,8.53,20.91,11,32.52,6.19,13.46-5.6,26.88-11.3,40.3-17,5.67-2.38,11.36-4.67,16.94-7.22,3.34-1.55,6.06-1.12,8.93,1.13q51,40.3,102.13,80.49c3,2.34,5.93,4.64,8.87,7C382.88,330.64,384,339,378.76,345.56Z"/><path class="cls-1" d="M433.75,284.62c1.77,3.17,1.36,4.86-1.63,7l-41.49,30.2c-3.07,2.24-4.87,2.2-7.85-.17Q325,275.83,267.28,229.9c-2.85-2.26-5.57-2.71-8.93-1.28-20.4,8.7-40.83,17.29-61.25,25.93-9.68,4.09-19.63,2.34-26.11-4.59s-5.47-14.63,2.07-20.05c15.64-11.24,31.16-22.65,46.86-33.79a40.37,40.37,0,0,1,10.53-5.45c16.06-5.42,32.22-10.54,48.36-15.75,1.23-.39,2.5-.61,4.19-1a52.23,52.23,0,0,1,5.3,1.92q31.84,15.31,63.6,30.78a10.59,10.59,0,0,0,9.08.31c6.62-2.65,13.3-5.19,19.95-7.74,3.26-1.26,5-.65,6.67,2.4Q410.7,243.08,433.75,284.62Z"/><path class="cls-1" d="M468.07,149.88V282.43l-10.35,5.64c-4.39,2.4-7,1.63-9.43-2.77q-24.51-44.91-49-89.85c-2.55-4.68-1.83-7.21,2.84-9.75Z"/></svg>