<svg id="Capa_1" data-name="Capa 1" xmlns="http://www.w3.org/2000/svg" viewBox="0 0 500 500"><defs><style>.cls-1{fill:#383838;}</style></defs><title>Confianza en instituciones</title><g id="_4B5CJF.tif" data-name="4B5CJF.tif"><path class="cls-1" d="M254.89,76.27a83.79,83.79,0,0,0,6.75,5q72.54,44.13,145.19,88.07c6.9,4.16,11.64,9,9.47,17.36-2.26,8.73-9.22,9.74-17.05,9.73q-149.17-.17-298.34.06c-8,0-14.12-1.83-18-9.06v-8.69c3.8-3.41,7.17-7.5,11.45-10.12Q166,124.82,237.85,81.36a74.66,74.66,0,0,0,6.62-5.09ZM221.4,149.74a28.61,28.61,0,0,0,28.5,28.79,29.18,29.18,0,0,0,28.8-28.75A28.62,28.62,0,0,0,250,121.23,28.13,28.13,0,0,0,221.4,149.74Z"/><path class="cls-1" d="M82.9,392.46c4.19-6.82,10.18-9.93,18.19-8.77,6,.87,8.65-.81,8.57-7.76-.22-19,.14-19,18.9-19,83.82,0,167.64.13,251.46-.2,8.37,0,11.79,2.09,10.3,10.47a10,10,0,0,0,0,1.73c0,13.72,0,13.71,13.4,14.78,7.71.61,12.65,4.68,12.89,12.46.31,10.07,3.11,21.28-8.83,27.55H91.59L82.9,415Z"/><path class="cls-1" d="M350.28,289.06c0-15.32.17-30.64-.18-45.95-.06-2.41-1.89-5.81-3.91-7-8.12-4.59-12.67-14.94-9.23-23.59.51-1.27,3-2.48,4.52-2.49,19.07-.17,38.15-.24,57.21.1,1.71,0,4.69,3,4.81,4.81.67,9.14.71,18.22-10.9,21.64-1.36.4-2.18,4.77-2.19,7.3-.15,30.35-.27,60.7,0,91,.06,6.5-1.22,9.42-8.45,8.82a163.71,163.71,0,0,0-24.26,0c-6.31.42-7.72-2-7.58-7.89C350.52,320.27,350.28,304.66,350.28,289.06Z"/><path class="cls-1" d="M109.47,289.63c0-15.34-.06-30.68,0-46,0-4-.36-6.63-5.12-8.4-7-2.59-11.33-17.34-7.52-23.38.77-1.22,3.38-1.78,5.15-1.79,18.52-.13,37.05,0,55.58-.16,4.17,0,5.43,1.4,5.44,5.5,0,8.94.4,17.54-10.59,21.22-1.64.55-2.68,5.21-2.69,8-.19,30.1-.28,60.21,0,90.32.06,6.51-1.35,9.48-8.56,8.88a158,158,0,0,0-23.43,0c-6.36.43-8.66-1.39-8.45-8.1C109.8,320.33,109.47,305,109.47,289.63Z"/><path class="cls-1" d="M189.84,289.67c0-15.34-.06-30.68,0-46,0-4-.36-6.65-5.18-8.42-7.17-2.64-11.47-16.76-7.75-23.29.7-1.22,3.3-1.89,5-1.9,18.53-.13,37.06-.23,55.57.15,1.88,0,5.12,3.16,5.3,5.08.8,8.8,1,17.57-10.09,21.29-1.62.55-2.6,5.22-2.62,8-.18,29.52-.4,59.05.08,88.57.13,8.08-1.52,11.72-10.31,10.66-6.27-.75-12.71-.14-19.08-.14-11,0-11,0-11-11.42Z"/><path class="cls-1" d="M270.13,289.41c0-15-.06-30.07,0-45.11,0-4.21-.05-7.25-5.36-9.11-7.22-2.54-11.54-16.71-7.82-23.27.69-1.22,3.3-1.87,5-1.88,18.5-.13,37,0,55.52-.17,4.63-.05,5.93,1.66,5.9,6-.06,8.61.2,16.91-10.28,20.57-1.67.59-2.8,5.06-2.82,7.75-.19,29.49-.12,59-.12,88.48,0,10.92,0,10.92-11.34,10.93-7.23,0-14.48-.38-21.68.11-6,.41-7.28-2-7.17-7.49C270.32,320.65,270.13,305,270.13,289.41Z"/></g></svg>