<?xml version="1.0" encoding="utf-8"?>
<!-- Generator: Adobe Illustrator 24.0.2, SVG Export Plug-In . SVG Version: 6.00 Build 0)  -->
<svg version="1.0" id="Capa_1" xmlns="http://www.w3.org/2000/svg" xmlns:xlink="http://www.w3.org/1999/xlink" x="0px" y="0px"
	 viewBox="0 0 500 500" style="enable-background:new 0 0 500 500;" xml:space="preserve">
<style type="text/css">
	.st0{fill:#383838;}
</style>
<title>Comportamiento prosocial</title>
<path class="st0" d="M167.4,344c1.8-1.8,2.8-4.2,2.8-6.7c0-2.5-1-4.9-2.8-6.7l-57.7-57.7h281.8l-57.9,57.6c-1.8,1.8-2.8,4.2-2.8,6.7
	c0,2.5,1,4.9,2.8,6.7l18,18c1.8,1.8,4.2,2.8,6.7,2.8c2.5,0,4.9-1,6.7-2.8l104.7-104.7c1.8-1.8,2.8-4.2,2.8-6.7c0-2.5-1-4.9-2.8-6.7
	L365.1,139.1c-3.7-3.7-9.6-3.7-13.3-0.1c0,0-0.1,0.1-0.1,0.1l-18,18c-1.8,1.8-2.8,4.2-2.8,6.7c0,2.5,1,4.9,2.8,6.7l57.7,57.7H109.6
	l57.7-57.7c1.8-1.8,2.8-4.2,2.8-6.7c0-2.5-1-4.9-2.8-6.7l-18-18c-3.7-3.7-9.6-3.7-13.3-0.1c0,0-0.1,0.1-0.1,0.1L31.2,243.8
	c-1.8,1.8-2.8,4.2-2.8,6.7c0,2.5,1,4.9,2.8,6.7L136,361.9c1.8,1.8,4.2,2.8,6.7,2.8c2.5,0,4.9-1,6.7-2.8L167.4,344z"/>
</svg>
