<svg id="Capa_1" data-name="Capa 1" xmlns="http://www.w3.org/2000/svg" viewBox="0 0 500 500"><defs><style>.cls-1{fill:#383838;}</style></defs><title>Interés político</title><g id="orYTbc"><path class="cls-1" d="M218.32,265.11q-1.26-33-2.47-66a3.33,3.33,0,0,0-2.35-3.29c-10.13-4.57-20.19-9.27-30.34-13.78a10.65,10.65,0,0,1-6.34-7q-5.92-19-12.11-38c-1.23-3.75-.43-7,2.35-9.49A5.38,5.38,0,0,0,169,123q-.11-31.11-.05-62.23a6.49,6.49,0,0,1,1.37-4.28c2.35-2.33,6-.59,6.39,3,.18,1.82.7,2.51,2.63,2.67a823.66,823.66,0,0,0,89.84,2.16c14.18-.43,28.34-1.48,42.51-2.22,1.46-.08,2.49-.35,2.48-2.15,0-2.73,1.38-4.33,4.17-4.32,2.37,0,3.69,1.9,3.7,5.11,0,21,0,41.89.08,62.84a8.79,8.79,0,0,0,1.72,4.68,9.37,9.37,0,0,1,1.47,8.73c-4.11,12.94-8.28,25.87-12.35,38.83-1,3.12-3.11,4.88-6,6.17-10.22,4.6-20.43,9.23-30.56,14a4.21,4.21,0,0,0-2,3c-1.07,23.49-2.32,47-2.87,70.49-.47,19.74-.06,39.5-.11,59.25a19.78,19.78,0,0,1-.85,6.43A11.2,11.2,0,0,1,249.19,333a25.24,25.24,0,0,1-.32-4.44c0-21.54,0-43.08-.05-64.62,0-1.24-.47-3.46-1-3.54a23,23,0,0,0-6.73.14c-.32,0-.53,1.94-.53,3,0,22.23,0,44.47,0,66.71,0,8.54-6.69,13.6-14.8,11.31-4.53-1.28-7.57-5.52-7.58-10.89,0-15.59,0-31.17,0-46.76q0-9.37,0-18.75ZM314.1,116.19c0-2.38-.14-4.78,0-7.14s-.8-3-3.09-2.79c-9.77,1-19.54,2.31-29.33,2.56-20.52.53-41.06.89-61.58.49-13.55-.27-27.08-1.94-40.62-3.07-2-.17-2.85.3-2.8,2.49.13,5.16,0,10.32.1,15.48a6.79,6.79,0,0,0,1,2.9c.91,1.71,2.3,3.24,2.89,5,3.67,11.11,7.14,22.28,10.77,33.39a4.6,4.6,0,0,0,2.05,2.6c8.8,4.1,17.64,8.15,26.56,12a11.71,11.71,0,0,0,5.71.64,160.55,160.55,0,0,1,38.88.09,9.06,9.06,0,0,0,4.57-.5q13.49-5.87,26.84-12.07a4.61,4.61,0,0,0,2.19-2.47c3.75-11.49,7.37-23,11.1-34.54.38-1.18,1-2.72,1.9-3.23,3.08-1.66,2.93-4.31,2.81-7.1C314,119.36,314.1,117.77,314.1,116.19Z"/><path class="cls-1" d="M320.77,286.42c-4.17,4.57-7.76,8.39-11.18,12.37a5.13,5.13,0,0,0-.66,3.06c0,11,0,22-.06,33,0,4.41-2.78,7.4-7.17,8.2a8.51,8.51,0,0,1-9-4.85,12.27,12.27,0,0,1-.72-4.35c-.05-12.11,0-24.22-.07-36.33a11.27,11.27,0,0,1,3.14-8.05c8.81-9.69,17.65-19.35,26.2-29.26,3.48-4,8.06-4,12.49-4.45a150.16,150.16,0,0,1,35.64.38,9.64,9.64,0,0,0,4.87-.64q13.38-5.79,26.6-11.92a4.66,4.66,0,0,0,2.21-2.51q5.24-16,10.22-32a4.5,4.5,0,0,0-.41-3c-5-9.68-10.19-19.29-15.2-29-.9-1.75-1.6-1.67-3.14-.79-7.08,4-14.24,7.86-21.38,11.76-3,1.65-4.93,1.13-6.62-1.94q-11.85-21.5-23.65-43c-1.75-3.18-1.27-4.85,1.89-6.6q27.09-15,54.2-29.87c3-1.64,5.06-1.11,6.52,1.57q11.58,21.15,23.14,42.3c.24.43.47.87.68,1.32,1.44,3,1,4.88-1.93,6.49-6.76,3.76-13.52,7.53-20.39,11.06-2.37,1.22-3.21,2.1-1.74,4.81,4.52,8.26,8.67,16.73,13.11,25a4,4,0,0,0,2.94,1.61c7.06.1,11,5.54,8.36,12.08-1.41,3.45-1.4,6.34.66,9.46a70.46,70.46,0,0,1,4.21,7.86c1.21,2.47.61,4.49-1.49,5.6s-4.42.33-5.72-2.06c-.76-1.38-1.44-2.79-2.51-4.9-1.34,4.07-2.48,7.46-3.59,10.86-1.17,3.58-2.43,7.14-3.43,10.77A9.58,9.58,0,0,1,412,257.1c-10.16,4.5-20.2,9.25-30.34,13.78a4,4,0,0,0-2.73,4c-.64,15.27-1.74,30.53-2,45.8-.49,28.18-.51,56.37-.73,84.55-.06,7.74-4.63,12.37-11.93,12.09a10.79,10.79,0,0,1-10.63-11c-.14-10.32,0-20.65,0-31,0-12.5-.05-25,0-37.51,0-1.88-.69-2.37-2.44-2.33-7.2.16-5.83-.78-5.85,5.75-.07,21.43,0,42.87,0,64.3,0,8-5.27,12.59-13.07,11.68-5.61-.66-9.44-5.33-9.48-11.83-.06-10.12.11-20.25,0-30.37-.39-26.7-.9-53.39-1.39-80.09C321.23,292.38,321,289.83,320.77,286.42Z"/><path class="cls-1" d="M176.91,313.41c-.12,1.37-.2,2-.23,2.67-1.65,31.53-2,63.08-1.75,94.64.06,7-.28,14.11.08,21.14.39,7.62-5.79,12.81-11.28,12.73-6.72-.11-11.37-5.25-11.36-12.92q0-29.32.12-58.65c0-2.78-.19-5.55-.14-8.33,0-1.67-.62-2.3-2.26-2.3-7.67,0-6.14-.47-6.15,5.82,0,21.63.1,43.27.07,64.9a11.17,11.17,0,0,1-15,10.8,11.35,11.35,0,0,1-7.36-10.83c0-14.2.26-28.4-.1-42.59-.75-29.75-1.82-59.49-2.87-89.23a4.2,4.2,0,0,0-2.11-2.92q-15.36-7.2-30.85-14.1a9.94,9.94,0,0,1-5.69-6.45c-2.58-8.13-5.25-16.22-8-24.56-.67.28-1.37.84-2,.77-1.48-.14-3.31-.17-4.27-1s-.83-2.63-1-4a3.47,3.47,0,0,1,.85-1.87c2-3,2.87-5.92,1.73-9.71-1.22-4.07,1.9-7.92,6.31-9.42A6.12,6.12,0,0,0,77,225.4c4.74-8.71,9.25-17.55,14-26.26,1-1.86.8-2.8-.8-4.14-14.28-12-12.37-37.23,7.21-45.56,11.85-5,24.59-2.45,33.42,9.75,7.44,10.26,6.27,24.42-2.59,33.94-7.23,7.76-16.12,10.12-26.27,8.05-2.21-.45-3.26.08-4.23,2-4.44,8.65-9,17.21-13.38,25.91a7.84,7.84,0,0,0-.41,5.27c3.4,11.2,7,22.33,10.67,33.44a5.5,5.5,0,0,0,2.55,2.92c9,4.21,18,8.29,27.08,12.31a6.82,6.82,0,0,0,3.73.48,127.07,127.07,0,0,1,42.36.38A10.57,10.57,0,0,1,175.8,287c6,6.35,11.73,12.93,17.56,19.42,3.31,3.69,6.83,7.22,9.86,11.12a11.68,11.68,0,0,1,2.48,6.42c.23,12.5.11,25,.12,37.52a8.44,8.44,0,0,1-5,8.11,8,8,0,0,1-8.45-.89c-2.57-1.84-3.31-4.57-3.31-7.58,0-10.33-.09-20.65,0-31a7.9,7.9,0,0,0-2.37-6.09C183.47,320.74,180.44,317.28,176.91,313.41Z"/><path class="cls-1" d="M171.63,251.54a23.66,23.66,0,1,1-47.32-.24,23.66,23.66,0,1,1,47.32.24Z"/><path class="cls-1" d="M373.43,224.23a23.67,23.67,0,0,1-47.34.24,23.67,23.67,0,0,1,47.34-.24Z"/><path class="cls-1" d="M268.62,149a23.64,23.64,0,0,1-47.27,0,23.64,23.64,0,1,1,47.27,0Z"/></g></svg>