<svg id="Capa_1" data-name="Capa 1" xmlns="http://www.w3.org/2000/svg" viewBox="0 0 500 500"><defs><style>.cls-1{fill:#383838;}</style></defs><title>Justicia distributiva</title><g id="eHM5vQ"><path class="cls-1" d="M101.09,191.48c-7,1.92-13.36,3.71-19.79,5.45a14.91,14.91,0,0,1-3.71.7A7.89,7.89,0,0,1,75.81,182c7.48-2.14,15-4.15,22.49-6.22q59.88-16.55,119.78-33.06a2.74,2.74,0,0,0,2.42-2.88c.57-8.08,4.16-14.66,10.14-20.08a6.88,6.88,0,0,0,2-3.53c2.75-14.19,5.37-28.41,8-42.61,1-5.21,4.55-8.37,9.32-8.33s8.25,3.15,9.21,8.18c2.69,14.21,5.3,28.42,8,42.61a9,9,0,0,0,2,3.58c1.48,1.84,3.35,3.38,4.71,5.29,1.08,1.52,2,1.75,3.78,1.27q42.89-11.92,85.79-23.74,27.85-7.71,55.72-15.43c6.36-1.76,11.71,2.24,11,8.2-.47,3.81-2.92,6-6.46,7-8.06,2.26-16.12,4.51-24.21,6.64-2,.53-2.56,1.2-1.9,3.31q8.63,27.43,17,54.95,11.38,36.83,22.69,73.67c.67,2.18,1.68,3.06,3.93,2.83a42.87,42.87,0,0,1,5.07,0c6,.08,9.28,3.74,8.6,9.65A67,67,0,0,1,437.6,292c-34.2,37.27-95.78,26-114.3-21-2.26-5.74-3.36-12-4.31-18.17-.88-5.7,2.6-9.07,8.43-9.18h.26c2.59-.13,5.89.65,7.59-.65s1.88-4.68,2.66-7.18Q356,177.43,374,119c.1-.32.17-.66.29-1,.72-1.78.33-2.27-1.62-1.7-6.58,1.9-13.2,3.66-19.79,5.49q-35.32,9.75-70.65,19.5c-1.58.43-2.67.86-2.76,2.9-.33,7.14-3.35,13.15-8.11,18.41a5.85,5.85,0,0,0-1.46,3.71c.86,22.65,1.88,45.29,2.78,67.94.35,8.53.39,17.07.75,25.6.45,11,1.11,21.95,1.62,32.92q1,20.66,1.82,41.32,1.32,31.43,2.55,62.87c.06,1.64.59,2.19,2.22,2.19,4.82,0,9.66-.17,14.45.27,6.14.58,10.73,3.93,13.58,9.4a3.39,3.39,0,0,0,3.55,2.11c4.56-.11,9.13-.05,13.7,0,12.8.06,21,9.34,19.38,22a2.45,2.45,0,0,1-1.68,1.53,21.86,21.86,0,0,1-4.05.08H157.88c-4.79,0-4.3.38-4.28-4.43,0-9.34,4.9-16.2,13.24-18.47a25.21,25.21,0,0,1,6-.71c4.82-.11,9.65.05,14.47-.12a3.71,3.71,0,0,0,2.65-1.64c3.64-6.64,9.26-9.88,16.73-10q5.7-.12,11.42,0c1.65,0,2.37-.38,2.44-2.23q1.2-31.82,2.56-63.63,1.51-36.63,3.06-73.26,1.53-36.46,3-72.92c.27-6.51.54-13,.93-19.51.14-2.23-.71-3.78-1.9-5.66-2.66-4.2-5.55-4.29-10.05-3-30.65,8.71-61.39,17.11-92.13,25.5-2.48.67-2.9,1.43-2.13,3.9q20,64.16,39.72,128.4c.6,1.94,1.42,2.77,3.52,2.6a49.6,49.6,0,0,1,6.33.11c5,.25,7.93,3.48,7.62,8.53a56.71,56.71,0,0,1-5.54,21.49c-12.64,26-33.59,39.84-62.42,40.36-35,.63-64.68-26.38-68.21-61.12-.56-5.59,2.7-9.27,8.35-9.41a39,39,0,0,1,5.07,0c2.42.26,3.53-.59,4.27-3,5.72-18.93,11.61-37.82,17.45-56.72q10-32.22,19.93-64.44C100.35,194.16,100.63,193.1,101.09,191.48ZM387.23,132.2l-.54.07c-.35,1-.73,2.06-1.05,3.1Q369.4,187.9,353.16,240.44c-1,3.17-1,3.2,2.36,3.2h62.86c3.33,0,3.32,0,2.3-3.31q-14.1-45.65-28.21-91.27C390.74,143.43,389,137.82,387.23,132.2Zm-274.11,75c-.54,1.53-.85,2.37-1.12,3.22q-7.19,23.24-14.36,46.46-9.28,30-18.58,60c-.43,1.39-1,2.51,1.43,2.5q32.46-.09,64.92,0c1.69,0,2.42-.44,1.74-2.2-.31-.79-.5-1.62-.75-2.42q-14.11-45.64-28.22-91.27C116.57,218.25,115,213,113.12,207.15ZM236.82,142a13.18,13.18,0,0,0,26.36.38,13.18,13.18,0,0,0-26.36-.38Z"/></g></svg>