<svg id="Capa_1" data-name="Capa 1" xmlns="http://www.w3.org/2000/svg" viewBox="0 0 500 500"><defs><style>.cls-1{fill:#383838;}</style></defs><title>SatisfaccioÌn residencial</title><g id="ycbD4R.tif"><path class="cls-1" d="M19.53,300.83c1.8-2,3.51-4,5.4-5.94q49.73-49.78,99.51-99.52c6-6,8.6-6,14.55-.07L239.46,295.77c5.74,5.73,5.75,8.62.12,14.27-1.7,1.7-3.39,3.39-5.1,5.07-5.06,5-8,5-12.93.07l-60.74-60.7q-11.28-11.31-22.57-22.58c-5.14-5.11-7.94-5.08-13.18.14L42.69,314.38c-6,6-8.52,6-14.51,0-2.92-3-5.77-6-8.65-9Z"/><path class="cls-1" d="M221,372v37.75c0,6.18-2.5,8.71-8.71,8.72h-41.8c-6.26,0-8.71-2.49-8.72-8.69v-53c0-7.08-2.33-9.39-9.44-9.4h-40.9c-7.34,0-9.51,2.21-9.52,9.72v51.23c0,8.11-2.08,10.16-10.06,10.18h-40c-7,0-9.37-2.41-9.37-9.52,0-24.86-.09-49.73.13-74.6a11.67,11.67,0,0,1,3-7.37q39.54-39.9,79.4-79.49c5.33-5.33,8.3-5.32,13.56-.07q39.27,39.21,78.6,78.38c2.72,2.7,4.08,5.37,4,9.34C220.77,347.44,220.94,359.73,221,372Z"/><path class="cls-1" d="M278.58,371.4c0-12.58-.12-25.17.11-37.75a9.86,9.86,0,0,1,2.47-6.21q40.07-40.35,80.37-80.45c4.71-4.69,7.87-4.68,12.58,0q40.09,40,80.06,80.11a10.94,10.94,0,0,1,2.88,7c.21,25,.15,50,.13,75,0,6.8-2.5,9.33-9.14,9.34H406.69c-6.51,0-8.86-2.37-8.89-9-.05-17.23,0-34.45,0-51.69,0-8.41-2-10.42-10.22-10.44H348c-8.08,0-10.17,2.06-10.17,10V409.5c0,6.53-2.4,9-8.9,9q-20.67.06-41.35,0c-6.55,0-9-2.42-9-8.89v-38.2Z"/><path class="cls-1" d="M279.6,257.2c0-4.12.1-7.55,0-11-.17-4.53-2.81-7.38-7.31-7.42q-22.47-.18-44.94,0c-4.71,0-7.28,3-7.4,7.79-.09,3.39,0,6.8,0,11.07-1.61-1.36-2.63-2.11-3.51-3-13.86-13.89-27.64-27.86-41.6-41.65-2.38-2.34-2.46-3.56,0-6q34.47-34.16,68.71-68.55c4.64-4.62,7.95-4.59,12.64.09q34.37,34.26,68.68,68.58c1.62,1.62,3.3,2.75.68,5.31-14.8,14.43-29.4,29.06-44.08,43.6A12.52,12.52,0,0,1,279.6,257.2Z"/><path class="cls-1" d="M480.47,302.46c-.94,2.1-1.26,3.7-2.2,4.73a130.64,130.64,0,0,1-9.83,9.86c-3.34,2.92-6.68,2.27-10.61-1.66q-22.12-22.06-44.2-44.18-19.72-19.68-39.42-39.41c-4.94-4.92-7.91-4.92-12.86,0Q320,273.14,278.71,314.48c-5.83,5.82-8.52,5.85-14.24.14-1.91-1.91-3.83-3.8-5.7-5.74-3.93-4.08-4-7.69-.11-11.71,1.86-1.95,3.8-3.82,5.71-5.73l96.34-96.29c5.76-5.76,8.39-5.75,14.21.07Q425.47,245.74,476,296.33C477.78,298.14,479.05,300.49,480.47,302.46Z"/><path class="cls-1" d="M249.93,81.47A64,64,0,0,1,257,86.89q41.69,41.55,83.26,83.23c3.92,3.92,7.92,7.76,11.68,11.83a3.5,3.5,0,0,1,0,3.38c-4.4,4.9-9.12,9.51-13.51,14.42-2.28,2.55-3.7,2.28-6-.08q-37.86-38.07-75.92-76c-5.38-5.38-8-5.38-13.51.07q-37.83,37.8-75.59,75.65c-2.45,2.46-3.87,2.74-6.34.09-4.18-4.49-8.68-8.71-13.25-12.8-2.21-2-2.15-3.16,0-5.23,11.11-10.91,22.07-22,33.08-33q31.1-31.11,62.24-62.19C245,84.46,247.36,83.26,249.93,81.47Z"/></g></svg>