<svg id="Capa_1" data-name="Capa 1" xmlns="http://www.w3.org/2000/svg" viewBox="0 0 500 500"><defs><style>.cls-1{fill:#383838;}</style></defs><title>Actitud hacia la democracia</title><g id="tOV7J4.tif"><path class="cls-1" d="M197.67,62.3c16.15,6.71,19.94,12.49,19.94,30.38q0,41.41,0,82.81c0,17.58-9.69,28-27.17,26.91-11.34-.71-18.27,2.62-23,12.89-3.3,7.11-8.15,13.53-12.49,20.14-4.12,6.28-10.23,6.26-14.3-.05-6.17-9.56-12.26-19.18-18.15-28.91-1.72-2.85-3.64-4-7-3.84a142.57,142.57,0,0,1-15-.06c-12.2-.68-22.28-10.1-22.42-22.29-.36-31.46-.28-62.92,0-94.38.1-12.46,8.24-19.21,18.88-23.6Zm-80.06,56.94c-4,3.22-7.84,5.19-9.92,8.36-2.94,4.45-1.63,9.38,2.09,13.23,5.9,6.11,11.93,12.1,18,18.06,6.68,6.58,13,6.65,19.62.1q18.31-18.15,36.45-36.46c5.77-5.82,6.23-13.16,1.36-17.93s-12.11-4.15-17.94,1.62c-7.28,7.19-14.49,14.46-21.72,21.69-7.95,8-7.82,7.81-16.16-.1C126.19,124.79,122.25,122.57,117.61,119.24Z"/><path class="cls-1" d="M373.79,62.3c1,.52,1.89,1.12,2.9,1.56,10,4.31,15.8,11.72,15.86,22.73.16,30.69.24,61.39,0,92.08-.12,14-10.55,24.9-24.45,23.67-13.69-1.21-21.92,3.39-27.33,15.66-2.77,6.29-7.13,11.9-11,17.68-3.95,5.93-10.09,5.93-14-.07-6.3-9.71-12.22-19.66-18.67-29.27a9.67,9.67,0,0,0-6.34-3.47c-4.77-.54-9.64-.05-14.46-.24-12.72-.52-23-10.09-23.18-22.85-.38-31.46-.31-62.93,0-94.4.09-10,5.75-16.88,14.75-21,1.35-.62,2.65-1.35,4-2Zm-13.65,45.93c-2.77-3.39-4.76-7.28-7.94-9.38-4.16-2.74-9-1.8-12.8,1.7-4.24,3.92-8.38,8-12.31,12.22-2.42,2.63-4.12,3.21-6.77.16-3.53-4.07-7.49-7.79-11.41-11.49-5.39-5.1-12.44-5.27-17.09-.6s-4.43,11.65.71,17.08c3.71,3.92,7.48,7.81,11.48,11.43,2.56,2.31,2.94,3.88.14,6.36-4,3.57-7.77,7.5-11.49,11.41-5.24,5.49-5.55,12.3-.94,17.06,4.77,4.91,11.79,4.66,17.49-.78,4-3.87,8-7.8,11.83-11.89,1.87-2,3.09-2.15,5-.08q5.93,6.33,12.26,12.28c5.45,5.12,12.42,5.27,17.1.59s4.35-11.66-.75-17.1A126.34,126.34,0,0,0,344.43,137c-3.62-3.08-4.53-5.35-.21-8.75a73,73,0,0,0,10.62-10.62C356.84,115.26,358,112.15,360.14,108.23Z"/><path class="cls-1" d="M77.17,390.2c.39-1.27.88-2.52,1.15-3.82,2.47-12.07,8.87-21.57,18.47-29.17,6.68-5.3,12.06-7.51,21.06-2,31.94,19.49,80.59,5.35,89.85-42.17,3.33-17.09,3.36-34.84,4.48-52.32.62-9.61,4.78-16.47,12.53-18.72A17.28,17.28,0,0,1,247,258.31c1.36,35.23-.67,69.95-20.93,100.8-5.89,9-8.1,19.06-8,29.73.14,12.16,0,24.33.31,36.48.15,5.28-1.43,9.34-5.68,12.38H83l-5.8-5.79Z"/><path class="cls-1" d="M259.08,437.7c-4.64-2.37-6.39-6.14-6.25-11.33.27-10.8-.16-21.63.29-32.42.84-19.84,11.41-33.46,28.53-42.41,1.52-.79,4.49-.32,6.06.7,25.14,16.15,52.05,15.18,75.26-3.1,12.54-9.88,18.75-23.74,20.95-38.82,2.4-16.52,2.82-33.35,3.77-50.06.51-9,4.87-16,12.45-18.25,10.34-3.12,21.67,3.8,22.2,15,1.69,35.61-.08,70.7-20.57,102-6,9.14-8.27,19.4-8.19,30.26.08,12.35-.07,24.71.25,37,.13,5.23-1.63,8.93-6.14,11.42Z"/><path class="cls-1" d="M190.75,302.4a42.89,42.89,0,0,1-43,42.54c-23.38-.11-42.75-19.65-42.62-43,.13-23.18,19.78-42.58,43.16-42.61S190.84,278.77,190.75,302.4Z"/><path class="cls-1" d="M280.94,302.17a43.05,43.05,0,0,1,43.31-42.84c23,.14,42.2,19.62,42.17,42.83a42.74,42.74,0,1,1-85.48,0Z"/></g></svg>