<?xml version="1.0" encoding="utf-8"?>
<!-- Generator: Adobe Illustrator 24.0.2, SVG Export Plug-In . SVG Version: 6.00 Build 0)  -->
<svg version="1.1" id="Capa_1" xmlns="http://www.w3.org/2000/svg" xmlns:xlink="http://www.w3.org/1999/xlink" x="0px" y="0px"
	 viewBox="0 0 500 500" style="enable-background:new 0 0 500 500;" xml:space="preserve">
<style type="text/css">
	.st0{fill:#383838;}
</style>
<title>Surgir en la vida</title>
<path class="st0" d="M343.5,333.1c-1.8-1.8-4.2-2.8-6.7-2.8c-2.5,0-5,1-6.7,2.8l-57.7,57.7l0-281.8l57.7,57.7
	c1.8,1.8,4.2,2.8,6.7,2.8c2.5,0,5-1,6.7-2.8l18-18c1.8-1.8,2.8-4.2,2.8-6.7s-1-5-2.8-6.7L256.7,30.7c-1.8-1.8-4.2-2.8-6.7-2.8
	s-5,1-6.7,2.8L138.6,135.4c-1.8,1.8-2.8,4.2-2.8,6.7s1,5,2.8,6.7l18,18c1.9,1.9,4.3,2.8,6.7,2.8c2.4,0,4.9-0.9,6.7-2.8l57.7-57.7
	l0,281.8L170,333.1c-1.8-1.8-4.2-2.8-6.7-2.8c-2.5,0-5,1-6.7,2.8l-18,18c-1.8,1.8-2.8,4.2-2.8,6.7c0,2.5,1,5,2.8,6.7l104.7,104.7
	c1.9,1.9,4.3,2.8,6.7,2.8s4.9-0.9,6.7-2.8l104.7-104.7c1.8-1.8,2.8-4.2,2.8-6.7s-1-5-2.8-6.7L343.5,333.1z"/>
</svg>
