<svg id="Capa_1" data-name="Capa 1" xmlns="http://www.w3.org/2000/svg" viewBox="0 0 500 500"><defs><style>.cls-1{fill:#383838;}</style></defs><title>Orgullo nacional</title><g id="_2khXdI" data-name=" 2khXdI"><path class="cls-1" d="M143.75,264.05c-4.05-34.71-7.89-67.63-11.72-100.55-1.85-15.9-4.07-31.77-5.22-47.71-.27-3.69,2.13-9,5.07-11.25,21.18-16.2,45.45-18.56,70.21-11.76,21.88,6,42.95,14.93,64.7,21.52,18.45,5.58,37.15,11,56.13,14,19.24,3.06,37.12-3.17,52.72-15.15a26.62,26.62,0,0,1,3.09-1.93c.18-.1.53.1,1.71.38,1.74,16.1,3.52,32.52,5.3,49,3.48,32.12,6.83,64.26,10.58,96.35.71,6-1.12,9.59-6,13-22.17,15.54-46.59,17.55-71.49,10.3S270,263.48,245.56,255.17c-8.13-2.77-16.41-5.21-24.75-7.29C193.33,241,167.63,243.91,143.75,264.05Z"/><path class="cls-1" d="M104,116.24c-.15-5.86-2.77-12.68,5.74-13.54,8-.81,9.19,5.56,10.06,11.61.18,1.22.33,2.44.47,3.66q5.52,47.25,11,94.48,10.74,93.1,21.46,186.22c.63,5.46,1.61,11.37-5.82,12.07-7,.66-9.09-4.56-9.8-10.76q-8.93-77.06-18.05-154.08C114,202.49,109,159.08,104,116.24Z"/></g></svg>