<svg id="Capa_1" data-name="Capa 1" xmlns="http://www.w3.org/2000/svg" viewBox="0 0 500 500"><defs><style>.cls-1{fill:#383838;}</style></defs><title>Participación cívica</title><g id="Gvx3ks"><path class="cls-1" d="M214.24,438.4c-42,0-83.92-.28-125.87.18-9.3.1-12.89-1.85-12.62-12,.72-27.21.48-54.46.1-81.69-.1-7.69,2.33-10,10-10q129.18.36,258.36,0c7.45,0,10.28,1.73,10.15,9.71q-.66,41.39,0,82.8c.14,8.49-2.1,11.32-11,11.22C300.36,438.16,257.3,438.41,214.24,438.4Z"/><path class="cls-1" d="M274.71,275.13c12,0,24,.11,36-.11,1.8,0,3.57-1.61,5.36-2.48-1.41-1.58-2.56-4-4.3-4.57-4.12-1.32-8.52-1.75-12.77-2.53,10.54-16.08,17.5-17.53,33.08-6.78,13.84,9.56,27.66,19.15,43.73,30.27H57.07c19.58-13.36,36.36-26.37,54.64-36.74,12.29-7,26.46-.36,33.81,12.59-11.39,5.11-25.9-4-37.84,9.07h54.95c-9.54-12.83-18.57-25-27.66-37.15-9.22-12.33-9.23-12.31,2.6-21.4,37.1-28.51,74.31-56.89,111.18-85.68,6-4.66,9.19-5.08,13.8,1.48,10.58,15.07,21.72,29.76,33,44.35,3.79,4.93,4.29,7.44-2.34,10.23a56.33,56.33,0,0,0-16.57,10.6c-8.45,8-8.8,19.6-2.08,29.22,6.17,8.85,15.32,11.43,26.34,7,6.14-2.46,11.86-6,18.12-8.1,3.77-1.23,8.19-.47,12.32-.61-2,3.26-3.25,7.41-6.05,9.63-16.87,13.42-34.1,26.39-51.2,39.51Z"/><path class="cls-1" d="M324,177c-20.09,2.25-26-13.31-34.52-24.51-14.07-18.44-14.14-18.82,5.75-30.71,5.1-3.05,11.59-4.52,17.61-5.16,21.18-2.25,42.43-3.94,63.68-5.49,2.25-.17,5.67,1.33,6.84,3.15,8.31,13,16.49,26.16,23.94,39.68,1.39,2.53.57,8-1.35,10.35-14.38,17.7-31.13,31.48-54.26,37.57-15.07,4-29,12.25-43.4,18.76-15.36,6.95-23.16,6.18-28-3.11s-1.18-15.83,14-24.31C304.05,187.69,314,182.38,324,177Z"/><path class="cls-1" d="M216.67,325.25c-49.7,0-99.41-.3-149.1.25-10.11.12-11.49-3.87-11-12.25.41-7.51-1.11-13.63,10.79-13.57q149.1.76,298.21,0c10.11,0,11.46,3.87,11,12.23-.4,7.54,1.07,13.78-10.79,13.62C316.08,324.84,266.37,325.25,216.67,325.25Z"/><path class="cls-1" d="M426.93,164c-2.64-2.15-6.83-4.16-8.93-7.5-12-19-23.41-38.33-35.07-57.53-4.23-7-2.78-12.8,3.91-17,10-6.3,20.09-12.3,30.21-18.34,7-4.2,12.74-2.37,16.88,4.4,11.7,19.17,23.75,38.15,34.55,57.82,2.06,3.76.94,12.85-2.05,15.15-10.42,8.05-22.29,14.22-33.66,21C431.55,162.76,430,163,426.93,164Z"/></g></svg>