<svg id="Capa_1" data-name="Capa 1" xmlns="http://www.w3.org/2000/svg" viewBox="0 0 500 500"><defs><style>.cls-1{fill:#383838;}</style></defs><title>Surgir en la vida</title><g id="jnS3Br"><path class="cls-1" d="M220.15,129c9.34,0,18.68,0,28,0a26.14,26.14,0,0,1,25.72,30.2c-3.78,22.55-7.39,45.12-11.22,67.65-.43,2.52.43,2.77,2.45,2.85q13.44.56,26.87,1.27a145.22,145.22,0,0,1,14.77,1.09c10.45,1.67,17,10.86,15.59,21.32-3.32,23.84-6.61,47.68-10.09,71.49C310.74,335.23,301.48,342,291,340.74c-11-1.26-18.61-9.79-17.5-20.43,1.24-11.87,3.18-23.67,4.83-35.5.6-4.34,1.2-8.69,1.88-13,.24-1.57-.2-2.1-1.85-2.17-15.21-.67-30.4-1.55-45.61-2.14-15-.58-26.8-14.62-24.41-29.45q6-37,12.15-74c.35-2.08-.24-2.37-2.05-2.32-3.54.11-7.11.19-10.64,0-2.24-.14-2.83.84-3.18,2.79q-3.84,21.77-7.85,43.52c-1.66,9.12-9.74,15.06-18.43,13.64-9.12-1.5-15.14-9.4-13.59-18.64,2.91-17.3,6.17-34.53,9.28-51.79.46-2.57,1-5.13,1.33-7.72A16.38,16.38,0,0,1,191.85,129C201.29,129.06,210.72,129,220.15,129Z"/><path class="cls-1" d="M370.24,309.57c13.73,0,27.46,0,41.18-.05,2.15,0,3.05.48,2.82,2.77-.28,2.75.71,6.42-.72,8-1.22,1.38-5.08.47-7.78.47-21.57,0-43.15.06-64.72,0-2.69,0-3.46.7-3.42,3.42.15,11.3,0,22.6.13,33.9,0,2.54-.55,3.31-3.19,3.3-25.22-.1-50.43,0-75.65-.12-2.76,0-3.39.77-3.35,3.43.15,11.2.08,22.41.05,33.62,0,4,.5,3.49-3.63,3.49-25.13,0-50.25.05-75.38,0-2.51,0-3.1.7-3.07,3.13.13,11.48,0,23,.11,34.46,0,2.33-.66,3-3,2.95q-41-.11-82.09,0c-2.16,0-3-.48-2.8-2.77.28-2.74-.72-6.41.71-8,1.22-1.38,5.08-.49,7.77-.5,21.67,0,43.34-.05,65,0,2.43,0,3.17-.51,3.14-3-.14-11.49,0-23-.12-34.47,0-2.55.77-3.06,3.16-3,25.31.09,50.62,0,75.93.11,2.47,0,3.12-.61,3.09-3.09-.14-11.58,0-23.16-.11-34.74,0-2.23.61-2.81,2.8-2.8,25.31.07,50.62,0,75.93.11,2.68,0,3.47-.63,3.43-3.37-.16-11.4,0-22.79-.12-34.19,0-2.28.57-3,2.95-3,13.63.12,27.27.06,40.91.06Z"/><path class="cls-1" d="M204.72,256.6c.78,1.18,1.26,1.95,1.78,2.69,6.52,9.45,15.37,14.71,27,14.93,2,0,3.91.29,5.87.25,2.14,0,2.32.84,2,2.74Q233.58,319.58,226,362c-2.07,11.47-12,18.78-23.1,16.92s-18.13-12.16-16.08-23.67c5.56-31.11,11.28-62.2,16.93-93.29C204,260.31,204.32,258.71,204.72,256.6Z"/><path class="cls-1" d="M293.89,89.51a31.57,31.57,0,1,1-31.55-31.78A31.62,31.62,0,0,1,293.89,89.51Z"/><path class="cls-1" d="M315.58,215.38c-13.67-1.18-27.34-2.38-41-3.51-1.76-.15-2.47-.64-2.14-2.56,1.62-9.47,3.15-18.95,4.68-28.43.22-1.35.77-1.79,2.25-1.66,13.57,1.25,27.16,2.29,40.72,3.61a16.4,16.4,0,0,1-2.53,32.67c-.66,0-1.31-.1-2-.15Z"/></g></svg>