<?xml version="1.0" encoding="utf-8"?>
<!-- Generator: Adobe Illustrator 13.0.0, SVG Export Plug-In  -->
<!DOCTYPE svg PUBLIC "-//W3C//DTD SVG 1.1//EN" "http://www.w3.org/Graphics/SVG/1.1/DTD/svg11.dtd" [
	<!ENTITY ns_flows "http://ns.adobe.com/Flows/1.0/">
]>
<svg version="1.1"
	 xmlns="http://www.w3.org/2000/svg" xmlns:xlink="http://www.w3.org/1999/xlink" xmlns:a="http://ns.adobe.com/AdobeSVGViewerExtensions/3.0/"
	 x="0px" y="0px" width="290px" height="139px" viewBox="69.424 29.994 290 139" enable-background="new 69.424 29.994 290 139"
	 xml:space="preserve">
<defs>
</defs>
<g>
	<defs>
		<rect id="SVGID_1_" width="446.437" height="277.422"/>
	</defs>
	<clipPath id="SVGID_2_">
		<use xlink:href="#SVGID_1_"  overflow="visible"/>
	</clipPath>
	<path clip-path="url(#SVGID_2_)" fill="#487ABC" d="M373.145,137.223c5.079,0,7.933,4.017,7.933,7.719
		c0,3.699-2.854,7.717-7.933,7.717s-7.934-4.018-7.934-7.717C365.211,141.24,368.066,137.223,373.145,137.223"/>
	<path clip-path="url(#SVGID_2_)" fill="#2A2F39" d="M274.789,54.745v18.05c-8.817-7.383-17.941-11.074-27.374-11.074
		c-10.394,0-19.147,3.733-26.271,11.198c-7.156,7.424-10.738,16.511-10.738,27.252c0,10.609,3.582,19.572,10.738,26.856
		c7.163,7.289,15.945,10.939,26.338,10.939c5.368,0,9.93-0.872,13.686-2.62c2.097-0.876,4.27-2.053,6.519-3.538
		c2.246-1.48,4.619-3.276,7.104-5.375v18.44c-8.732,4.961-17.896,7.435-27.514,7.435c-14.439,0-26.781-5.041-37-15.129
		c-10.178-10.171-15.264-22.444-15.264-36.811c0-12.885,4.253-24.372,12.776-34.454c10.48-12.36,24.035-18.541,40.676-18.541
		C257.541,47.374,266.325,49.833,274.789,54.745"/>
	<path clip-path="url(#SVGID_2_)" fill="#2A2F39" d="M350.703,64.34l-12.376,7.341c-2.318-4.021-4.523-6.641-6.624-7.865
		c-2.183-1.393-4.998-2.096-8.445-2.096c-4.237,0-7.755,1.202-10.544,3.608c-2.798,2.355-4.189,5.334-4.189,8.911
		c0,4.939,3.665,8.92,10.998,11.925l10.083,4.139c8.213,3.319,14.215,7.373,18.018,12.157c3.8,4.778,5.7,10.651,5.7,17.602
		c0,9.308-3.099,16.996-9.302,23.075c-6.249,6.113-13.997,9.171-23.253,9.171c-8.778,0-16.028-2.604-21.749-7.829
		c-5.63-5.208-9.149-12.537-10.542-21.971l15.455-3.403c0.7,5.939,1.915,10.037,3.667,12.308c3.143,4.368,7.729,6.552,13.759,6.552
		c4.757,0,8.712-1.591,11.851-4.778c3.144-3.181,4.721-7.223,4.721-12.111c0-1.961-0.273-3.765-0.816-5.4
		c-0.553-1.63-1.403-3.135-2.556-4.507c-1.155-1.379-2.655-2.665-4.487-3.868c-1.836-1.198-4.02-2.34-6.553-3.438l-9.762-4.056
		c-13.837-5.848-20.764-14.4-20.764-25.656c0-7.593,2.908-13.944,8.719-19.047c5.799-5.152,13.03-7.73,21.681-7.73
		C335.052,47.373,344.153,53.037,350.703,64.34"/>
	<path clip-path="url(#SVGID_2_)" fill="#A9C357" d="M94.281,122.894c-0.001-0.012-0.016-0.021-0.018-0.034l-0.108,0.093
		L94.281,122.894z"/>
	<path clip-path="url(#SVGID_2_)" fill="#763C7A" d="M101.005,131.51c-0.557-0.537-1.093-1.081-1.6-1.638
		c-1.028-1.105-1.985-2.25-2.846-3.442l0.008-0.008c-0.834-1.143-1.592-2.318-2.277-3.536l-0.01,0.008l-0.128,0.057l0.11-0.089
		c-3.094-5.505-4.695-11.812-4.695-18.913v-0.006v-0.006c0-3.651,0.931-7.205,1.782-10.45c-0.016-0.015-4.077-3.693-10.139-15.609
		c-0.314,0.505-0.74,1.13-1.115,1.741c-4.356,7.135-5.88,15.319-5.88,24.176c0,9.539,2.012,18.074,5.982,25.533
		c0.637,1.206,1.33,2.369,2.063,3.508c0.974,1.513,2.024,2.979,3.173,4.388c0.328,0.401,0.668,0.798,1.013,1.191
		c0.658,0.764,1.341,1.502,2.056,2.232l12.721-8.94C101.149,131.635,101.075,131.575,101.005,131.51"/>
	<path clip-path="url(#SVGID_2_)" fill="#D6CA60" d="M164.694,111.923c0.098-0.554,0.185-1.105,0.261-1.666
		C164.879,110.818,164.792,111.37,164.694,111.923"/>
	<path clip-path="url(#SVGID_2_)" fill="#D6CA60" d="M163.908,115.39c0.137-0.492,0.263-0.984,0.379-1.485
		C164.171,114.406,164.048,114.898,163.908,115.39"/>
	<path clip-path="url(#SVGID_2_)" fill="#D6CA60" d="M164.36,113.612c0.096-0.431,0.18-0.862,0.258-1.298
		C164.536,112.75,164.456,113.181,164.36,113.612"/>
	<path clip-path="url(#SVGID_2_)" fill="#D6CA60" d="M164.618,112.314c0.024-0.129,0.049-0.261,0.076-0.391
		C164.667,112.053,164.642,112.185,164.618,112.314"/>
	<path clip-path="url(#SVGID_2_)" fill="#D6CA60" d="M164.287,113.905c0.025-0.095,0.04-0.191,0.073-0.291
		C164.327,113.713,164.312,113.81,164.287,113.905"/>
	<polyline clip-path="url(#SVGID_2_)" fill="#D6CA60" points="163.904,115.399 163.907,115.39 163.904,115.399 	"/>
	<path clip-path="url(#SVGID_2_)" fill="#010101" d="M162.588,92.902c0.013,0.009,0.013,0.021,0.017,0.035
		c0.083,0,0.174-0.035,0.252-0.035h-0.252H162.588z"/>
	<path clip-path="url(#SVGID_2_)" fill="#487ABC" d="M154.011,78.414c3.957,4.003,6.829,8.361,8.58,14.488h0.014h0.252h17.169
		c-2.101-10.932-6.534-17.779-14.253-25.488c-8.858-8.841-19.135-14.291-30.759-15.604l-2.376,15.37
		C140.777,68.247,147.912,72.174,154.011,78.414"/>
	<path clip-path="url(#SVGID_2_)" fill="#2A2F39" d="M196.916,111.366c1.039-1.456,2.026-3.077,1.941-4.751
		c-0.127-2.511-1.013-4.898-1.216-7.41c-0.254-3.127,0.41-5.854,1.937-8.108c-1.396-0.441-2.524-1.279-3.148-2.522
		c-0.267,1.42-0.474,2.862-0.621,4.328h-32.95c-0.079,0-0.17,0.035-0.253,0.035c0-0.012,0-0.026-0.017-0.035h-33.224
		c-0.606,0-0.759,0.028-2.326,0.003c-6.247-0.315-12.609-1.732-19.009-6.182c-0.398-0.278-3.746-2.977-3.868-6.763
		c-0.07-2.405,1.328-4.791,4.043-7.067c1.024-0.86,2.222-1.862,3.98-2.767c4.735-2.421,7.619-2.621,11.85-3.078
		c0.622-0.058,1.222-0.107,1.801-0.133c0.416-0.03,0.813-0.056,1.203-0.058c1.567-0.007,0.852,0.02,1.016,0.02h0.044
		c0.054,0.004,0.169,0.011,0.219,0.011c1.37,0.048,2.71,0.108,4.031,0.271c0.087,0.013,0.665,0.083,0.751,0.095l1.915-15.445
		c-0.384-0.042-0.764-0.093-1.152-0.13c-1.712-0.15-3.447-0.216-5.209-0.185c-0.395,0.006-1.615,0-1.615,0
		c-0.607,0.006-1.205,0.028-1.812,0.052c-0.508,0.021-1.022,0.049-1.533,0.078c-12.613,0.799-23.466,5.451-32.781,14.197
		L90.629,66.1c-0.202,0.184-0.334,0.315-0.539,0.51c-3.579,3.508-6.523,7.284-8.88,11.268c6.067,11.931,10.26,15.721,10.26,15.721
		c10.007,9.679,23.081,14.517,35.568,14.911c1.567,0.021,1.8,0,2.398,0h66.914C196.512,109.476,196.707,110.425,196.916,111.366z"/>
	<path clip-path="url(#SVGID_2_)" fill="#EAE219" d="M145.837,137.971c-0.358,0.191-0.714,0.379-1.074,0.558
		c-0.202,0.104-0.413,0.204-0.62,0.305c-0.504,0.242-1.014,0.461-1.532,0.671c-4.362,1.826-9.128,2.764-14.29,2.854
		c-0.255,0-0.494-0.017-0.754-0.017h-0.529v-0.009c-9.284,0-18.398-3.563-25.815-10.626l-12.721,8.941
		c0.999,1.035,2.05,2.046,3.168,3.02c5.331,4.637,11.001,8.106,17.022,10.399l9.854,2.644c2.782,0.457,5.635,0.695,8.555,0.695
		c0.063,0-0.063-0.006-0.063-0.006c1.567-0.003,0.518-0.009,0.643-0.012l0.527-0.006c6.944-0.104,13.301-1.273,19.148-3.47
		c0.4-0.146,0.811-0.29,1.199-0.452c0.782-0.316,1.539-0.658,2.292-1.006c0.188-0.092,0.377-0.174,0.569-0.266
		c0.198-0.095,0.396-0.197,0.591-0.294l-6.139-13.946C145.859,137.958,145.846,137.962,145.837,137.971"/>
	<path clip-path="url(#SVGID_2_)" fill="#94B921" d="M163.904,115.399c-1.665,6.033-4.81,11.338-9.482,16.084
		c-0.536,0.545-1.085,1.053-1.642,1.558c-0.807,0.721-1.633,1.402-2.477,2.036c-0.333,0.253-0.669,0.501-1.013,0.742
		c-0.071,0.06-0.153,0.109-0.232,0.165c-0.247,0.171-0.49,0.34-0.743,0.504c-0.492,0.324-0.997,0.631-1.513,0.933
		c-0.308,0.176-0.617,0.35-0.935,0.53l6.14,13.944c0.112-0.059,0.237-0.118,0.35-0.177c0.529-0.265,1.051-0.54,1.568-0.828
		c0.647-0.359,1.294-0.735,1.929-1.123c0.023-0.009,0.042-0.026,0.064-0.045c0.134-0.076,0.27-0.165,0.407-0.255
		c1.845-1.141,3.623-2.412,5.36-3.812c1.357-1.093,2.675-2.261,3.954-3.511c9.314-9.074,14.632-21.135,15.682-33.636h-16.264
		C165.057,108.509,164.754,112.686,163.904,115.399"/>
</g>
<g>
	<rect x="34.9" y="170.736" fill="none" width="365" height="107"/>
	<path fill="#666771" d="M76.898,181.348c0,1.503-0.24,2.882-0.721,4.137c-0.48,1.256-1.16,2.338-2.037,3.248
		c-0.877,0.91-1.928,1.617-3.15,2.121s-2.581,0.756-4.074,0.756c-1.484,0-2.84-0.252-4.067-0.756
		c-1.228-0.504-2.277-1.211-3.15-2.121c-0.873-0.91-1.552-1.992-2.037-3.248c-0.485-1.255-0.728-2.634-0.728-4.137
		c0-1.493,0.243-2.87,0.728-4.13c0.485-1.261,1.164-2.346,2.037-3.255c0.873-0.91,1.922-1.62,3.15-2.129
		c1.227-0.508,2.583-0.763,4.067-0.763c1.493,0,2.851,0.255,4.074,0.763c1.223,0.509,2.273,1.219,3.15,2.129
		c0.877,0.909,1.556,1.994,2.037,3.255C76.658,178.478,76.898,179.855,76.898,181.348z M73.847,181.348
		c0-1.195-0.164-2.269-0.49-3.221c-0.327-0.951-0.791-1.759-1.393-2.422c-0.602-0.662-1.33-1.171-2.184-1.525
		s-1.808-0.532-2.863-0.532s-2.009,0.178-2.863,0.532s-1.584,0.863-2.191,1.525c-0.606,0.663-1.073,1.471-1.4,2.422
		c-0.327,0.952-0.49,2.025-0.49,3.221c0,1.204,0.163,2.279,0.49,3.227s0.793,1.753,1.4,2.415c0.607,0.663,1.337,1.169,2.191,1.52
		c0.854,0.35,1.808,0.524,2.863,0.524s2.009-0.175,2.863-0.524c0.854-0.351,1.582-0.856,2.184-1.52
		c0.602-0.662,1.066-1.468,1.393-2.415S73.847,182.552,73.847,181.348z"/>
	<path fill="#666771" d="M82.806,179.136c0.588-0.653,1.255-1.181,2.002-1.582s1.596-0.603,2.548-0.603
		c0.831,0,1.58,0.161,2.247,0.483c0.667,0.322,1.234,0.784,1.701,1.386c0.467,0.603,0.826,1.332,1.078,2.191
		c0.252,0.858,0.378,1.829,0.378,2.912c0,1.147-0.143,2.193-0.427,3.136s-0.69,1.75-1.218,2.422s-1.169,1.192-1.925,1.561
		c-0.756,0.369-1.605,0.554-2.548,0.554c-0.458,0-0.877-0.045-1.26-0.133c-0.383-0.089-0.735-0.218-1.057-0.386
		s-0.618-0.373-0.889-0.616c-0.271-0.242-0.527-0.518-0.77-0.825l-0.126,1.189c-0.075,0.383-0.308,0.574-0.7,0.574h-1.764v-20.664
		h2.73V179.136z M82.806,187.9c0.448,0.588,0.933,0.999,1.456,1.232c0.522,0.233,1.092,0.35,1.708,0.35
		c1.269,0,2.247-0.452,2.933-1.358c0.686-0.905,1.029-2.272,1.029-4.102c0-1.689-0.303-2.929-0.91-3.717
		c-0.606-0.789-1.465-1.184-2.576-1.184c-0.784,0-1.463,0.178-2.037,0.532s-1.108,0.859-1.603,1.512V187.9z"/>
	<path fill="#666771" d="M104.198,179.625c-0.075,0.122-0.154,0.208-0.238,0.26c-0.084,0.051-0.191,0.076-0.322,0.076
		c-0.149,0-0.315-0.051-0.497-0.153s-0.401-0.215-0.658-0.336s-0.558-0.233-0.903-0.336s-0.756-0.154-1.232-0.154
		c-0.392,0-0.749,0.049-1.071,0.146c-0.322,0.099-0.595,0.234-0.819,0.406c-0.224,0.173-0.397,0.378-0.518,0.616
		s-0.182,0.492-0.182,0.763c0,0.355,0.105,0.649,0.315,0.883s0.485,0.434,0.826,0.602s0.728,0.319,1.162,0.455
		s0.877,0.277,1.33,0.427c0.453,0.149,0.896,0.32,1.33,0.511c0.434,0.191,0.821,0.43,1.162,0.715
		c0.341,0.284,0.616,0.627,0.826,1.028s0.315,0.892,0.315,1.47c0,0.663-0.119,1.277-0.357,1.842
		c-0.238,0.564-0.588,1.052-1.05,1.463c-0.462,0.41-1.034,0.732-1.715,0.966s-1.46,0.35-2.338,0.35c-0.98,0-1.885-0.163-2.716-0.489
		c-0.831-0.327-1.526-0.742-2.086-1.246l0.644-1.05c0.074-0.131,0.168-0.231,0.28-0.302c0.112-0.069,0.261-0.104,0.448-0.104
		c0.177,0,0.359,0.065,0.546,0.195c0.187,0.131,0.411,0.273,0.672,0.428c0.261,0.153,0.579,0.294,0.952,0.42
		c0.373,0.126,0.84,0.188,1.4,0.188c0.466,0,0.873-0.058,1.218-0.175c0.345-0.116,0.632-0.275,0.861-0.476
		c0.229-0.201,0.399-0.432,0.511-0.693c0.112-0.261,0.168-0.536,0.168-0.826c0-0.373-0.105-0.684-0.315-0.931
		s-0.485-0.46-0.826-0.637c-0.34-0.178-0.73-0.332-1.169-0.462c-0.438-0.131-0.887-0.271-1.344-0.421
		c-0.458-0.148-0.905-0.321-1.344-0.518c-0.438-0.196-0.828-0.443-1.169-0.742s-0.616-0.662-0.826-1.092
		c-0.21-0.429-0.315-0.952-0.315-1.568c0-0.55,0.114-1.077,0.343-1.582c0.229-0.504,0.56-0.947,0.994-1.33
		c0.434-0.382,0.97-0.688,1.61-0.917c0.639-0.229,1.37-0.343,2.191-0.343c0.943,0,1.794,0.149,2.555,0.448
		c0.76,0.299,1.412,0.709,1.953,1.232L104.198,179.625z"/>
	<path fill="#666771" d="M119.654,189.37c-0.336,0.393-0.724,0.73-1.162,1.016c-0.439,0.284-0.906,0.516-1.4,0.692
		c-0.495,0.178-1.006,0.309-1.533,0.393s-1.048,0.126-1.561,0.126c-0.98,0-1.888-0.166-2.723-0.497s-1.559-0.816-2.17-1.456
		s-1.087-1.433-1.428-2.38c-0.341-0.947-0.511-2.037-0.511-3.27c0-0.989,0.154-1.911,0.462-2.765
		c0.308-0.854,0.749-1.599,1.323-2.233c0.574-0.635,1.276-1.134,2.107-1.498c0.831-0.363,1.764-0.546,2.8-0.546
		c0.868,0,1.668,0.143,2.401,0.427c0.732,0.285,1.365,0.698,1.897,1.239c0.532,0.542,0.949,1.209,1.253,2.002
		c0.303,0.794,0.455,1.699,0.455,2.716c0,0.421-0.047,0.703-0.14,0.848s-0.266,0.217-0.518,0.217h-9.324
		c0.028,0.85,0.149,1.589,0.364,2.219c0.214,0.63,0.511,1.155,0.889,1.575c0.378,0.42,0.828,0.732,1.351,0.938
		c0.523,0.205,1.106,0.308,1.75,0.308c0.607,0,1.132-0.07,1.575-0.21s0.826-0.292,1.148-0.455c0.322-0.163,0.593-0.315,0.812-0.455
		s0.413-0.21,0.581-0.21c0.224,0,0.396,0.084,0.518,0.252L119.654,189.37z M117.4,182.706c0-0.541-0.077-1.04-0.231-1.498
		c-0.154-0.457-0.38-0.854-0.679-1.189c-0.299-0.336-0.663-0.598-1.092-0.784s-0.924-0.28-1.484-0.28
		c-1.148,0-2.051,0.332-2.709,0.994c-0.658,0.663-1.076,1.582-1.253,2.758H117.4z"/>
	<path fill="#666771" d="M125.38,179.906c0.457-0.933,1.008-1.666,1.652-2.198c0.644-0.531,1.418-0.798,2.324-0.798
		c0.308,0,0.6,0.035,0.875,0.105c0.275,0.069,0.515,0.175,0.721,0.314l-0.182,2.059c-0.065,0.252-0.219,0.378-0.462,0.378
		c-0.131,0-0.327-0.025-0.588-0.077c-0.261-0.051-0.542-0.077-0.84-0.077c-0.439,0-0.826,0.063-1.162,0.189s-0.637,0.313-0.903,0.56
		c-0.266,0.247-0.502,0.551-0.707,0.91c-0.206,0.359-0.397,0.768-0.574,1.225v8.904h-2.73v-14.224h1.568
		c0.299,0,0.502,0.054,0.609,0.16c0.107,0.107,0.184,0.297,0.231,0.567L125.38,179.906z"/>
	<path fill="#666771" d="M145.414,177.176l-5.768,14.224h-2.464l-5.768-14.224h2.254c0.214,0,0.392,0.051,0.532,0.153
		c0.14,0.104,0.233,0.233,0.28,0.393l3.402,8.735c0.121,0.364,0.226,0.727,0.315,1.085c0.089,0.359,0.17,0.717,0.245,1.071
		c0.075-0.354,0.159-0.709,0.252-1.063c0.093-0.355,0.205-0.719,0.336-1.093l3.444-8.735c0.056-0.159,0.154-0.289,0.294-0.393
		c0.14-0.103,0.308-0.153,0.504-0.153H145.414z"/>
	<path fill="#666771" d="M147.233,179.164c0.793-0.756,1.654-1.32,2.583-1.693c0.928-0.373,1.948-0.561,3.059-0.561
		c0.812,0,1.531,0.133,2.156,0.399c0.625,0.266,1.152,0.637,1.582,1.113c0.429,0.476,0.753,1.045,0.973,1.708
		c0.219,0.662,0.329,1.395,0.329,2.197v9.072h-1.218c-0.271,0-0.476-0.044-0.616-0.133c-0.14-0.089-0.252-0.254-0.336-0.497
		l-0.294-1.246c-0.364,0.336-0.723,0.633-1.078,0.889c-0.354,0.257-0.726,0.477-1.113,0.658c-0.388,0.182-0.8,0.32-1.239,0.413
		c-0.438,0.093-0.924,0.14-1.456,0.14c-0.56,0-1.085-0.076-1.575-0.23c-0.49-0.154-0.917-0.39-1.281-0.707
		c-0.364-0.317-0.651-0.714-0.861-1.19c-0.21-0.476-0.315-1.031-0.315-1.666c0-0.56,0.151-1.099,0.455-1.616
		c0.303-0.519,0.798-0.982,1.484-1.394c0.686-0.41,1.582-0.746,2.688-1.008s2.466-0.411,4.081-0.448v-1.036
		c0-1.073-0.229-1.876-0.686-2.408c-0.458-0.531-1.129-0.798-2.016-0.798c-0.597,0-1.099,0.075-1.505,0.225
		c-0.406,0.149-0.756,0.314-1.05,0.497c-0.294,0.182-0.551,0.348-0.77,0.497c-0.22,0.149-0.446,0.224-0.679,0.224
		c-0.187,0-0.348-0.051-0.483-0.154c-0.135-0.103-0.245-0.224-0.329-0.363L147.233,179.164z M155.241,185.085
		c-1.111,0.038-2.053,0.124-2.828,0.26c-0.775,0.135-1.405,0.314-1.89,0.539c-0.486,0.224-0.835,0.487-1.05,0.791
		c-0.215,0.303-0.322,0.642-0.322,1.015c0,0.354,0.058,0.66,0.175,0.917s0.275,0.467,0.476,0.63s0.436,0.282,0.707,0.357
		c0.271,0.074,0.564,0.111,0.882,0.111c0.42,0,0.805-0.042,1.155-0.126c0.35-0.084,0.679-0.203,0.987-0.356
		c0.308-0.154,0.602-0.343,0.882-0.567c0.28-0.224,0.555-0.48,0.826-0.77V185.085z"/>
	<path fill="#666771" d="M166.035,191.624c-1.148,0-2.033-0.321-2.653-0.966c-0.621-0.644-0.931-1.563-0.931-2.758v-8.512h-1.652
		c-0.159,0-0.292-0.049-0.399-0.147c-0.107-0.098-0.161-0.245-0.161-0.44v-1.106l2.31-0.322l0.616-4.241
		c0.037-0.159,0.109-0.282,0.217-0.371s0.245-0.134,0.413-0.134h1.386v4.774h4.032v1.988h-4.032v8.33
		c0,0.56,0.138,0.978,0.413,1.253c0.275,0.275,0.627,0.413,1.057,0.413c0.252,0,0.469-0.033,0.651-0.099
		c0.182-0.064,0.338-0.138,0.469-0.217s0.243-0.151,0.336-0.217s0.177-0.099,0.252-0.099c0.093,0,0.166,0.021,0.217,0.063
		c0.051,0.042,0.105,0.109,0.161,0.203l0.812,1.315c-0.448,0.411-0.98,0.729-1.596,0.952
		C167.337,191.512,166.698,191.624,166.035,191.624z"/>
	<path fill="#666771" d="M177.781,176.952c1.045,0,1.99,0.171,2.835,0.512s1.563,0.83,2.156,1.47c0.592,0.64,1.047,1.409,1.365,2.31
		c0.317,0.901,0.476,1.911,0.476,3.031s-0.159,2.133-0.476,3.038s-0.772,1.676-1.365,2.31c-0.593,0.635-1.312,1.123-2.156,1.463
		c-0.845,0.341-1.79,0.512-2.835,0.512c-1.055,0-2.004-0.171-2.849-0.512c-0.845-0.34-1.565-0.828-2.163-1.463
		c-0.597-0.634-1.057-1.404-1.379-2.31c-0.322-0.905-0.483-1.918-0.483-3.038s0.161-2.13,0.483-3.031
		c0.322-0.9,0.782-1.67,1.379-2.31c0.598-0.64,1.318-1.129,2.163-1.47S176.727,176.952,177.781,176.952z M177.781,189.468
		c1.344,0,2.347-0.453,3.01-1.358c0.663-0.905,0.994-2.179,0.994-3.822c0-1.643-0.331-2.919-0.994-3.829
		c-0.663-0.909-1.666-1.364-3.01-1.364c-1.363,0-2.378,0.455-3.045,1.364c-0.667,0.91-1.001,2.187-1.001,3.829
		c0,1.644,0.333,2.917,1.001,3.822C175.403,189.015,176.418,189.468,177.781,189.468z"/>
	<path fill="#666771" d="M190.227,179.906c0.457-0.933,1.008-1.666,1.652-2.198c0.644-0.531,1.418-0.798,2.324-0.798
		c0.308,0,0.6,0.035,0.875,0.105c0.275,0.069,0.515,0.175,0.721,0.314l-0.182,2.059c-0.065,0.252-0.219,0.378-0.462,0.378
		c-0.131,0-0.327-0.025-0.588-0.077c-0.261-0.051-0.542-0.077-0.84-0.077c-0.439,0-0.826,0.063-1.162,0.189s-0.637,0.313-0.903,0.56
		c-0.266,0.247-0.502,0.551-0.707,0.91c-0.206,0.359-0.397,0.768-0.574,1.225v8.904h-2.73v-14.224h1.568
		c0.299,0,0.502,0.054,0.609,0.16c0.107,0.107,0.184,0.297,0.231,0.567L190.227,179.906z"/>
	<path fill="#666771" d="M201.287,172.78c0,0.252-0.051,0.492-0.154,0.721c-0.103,0.229-0.241,0.43-0.413,0.603
		c-0.173,0.173-0.376,0.308-0.609,0.406c-0.233,0.098-0.476,0.146-0.728,0.146s-0.49-0.049-0.714-0.146
		c-0.224-0.099-0.422-0.233-0.595-0.406c-0.173-0.173-0.308-0.373-0.406-0.603c-0.098-0.229-0.147-0.469-0.147-0.721
		c0-0.261,0.049-0.506,0.147-0.735c0.098-0.229,0.233-0.429,0.406-0.602c0.172-0.173,0.371-0.308,0.595-0.406
		c0.224-0.098,0.462-0.146,0.714-0.146s0.495,0.049,0.728,0.146c0.233,0.099,0.436,0.233,0.609,0.406
		c0.172,0.173,0.31,0.373,0.413,0.602C201.235,172.274,201.287,172.519,201.287,172.78z M200.769,177.176V191.4h-2.73v-14.224
		H200.769z"/>
	<path fill="#666771" d="M210.792,176.952c1.045,0,1.99,0.171,2.835,0.512s1.563,0.83,2.156,1.47c0.592,0.64,1.047,1.409,1.365,2.31
		c0.317,0.901,0.476,1.911,0.476,3.031s-0.159,2.133-0.476,3.038s-0.772,1.676-1.365,2.31c-0.593,0.635-1.312,1.123-2.156,1.463
		c-0.845,0.341-1.79,0.512-2.835,0.512c-1.055,0-2.004-0.171-2.849-0.512c-0.845-0.34-1.565-0.828-2.163-1.463
		c-0.597-0.634-1.057-1.404-1.379-2.31c-0.322-0.905-0.483-1.918-0.483-3.038s0.161-2.13,0.483-3.031
		c0.322-0.9,0.782-1.67,1.379-2.31c0.598-0.64,1.318-1.129,2.163-1.47S209.738,176.952,210.792,176.952z M210.792,189.468
		c1.344,0,2.347-0.453,3.01-1.358c0.663-0.905,0.994-2.179,0.994-3.822c0-1.643-0.331-2.919-0.994-3.829
		c-0.663-0.909-1.666-1.364-3.01-1.364c-1.363,0-2.378,0.455-3.045,1.364c-0.667,0.91-1.001,2.187-1.001,3.829
		c0,1.644,0.333,2.917,1.001,3.822C208.415,189.015,209.43,189.468,210.792,189.468z"/>
	<path fill="#666771" d="M239.646,170.736V191.4h-1.652c-0.383,0-0.621-0.182-0.714-0.546l-0.238-1.638
		c-0.607,0.719-1.295,1.295-2.065,1.729s-1.659,0.651-2.667,0.651c-0.812,0-1.547-0.159-2.205-0.477s-1.22-0.781-1.687-1.393
		s-0.826-1.37-1.078-2.275s-0.378-1.945-0.378-3.122c0-1.055,0.14-2.034,0.42-2.939c0.28-0.905,0.686-1.689,1.218-2.353
		c0.532-0.662,1.176-1.183,1.932-1.561c0.756-0.378,1.61-0.567,2.562-0.567c0.859,0,1.589,0.141,2.191,0.42
		c0.602,0.28,1.141,0.677,1.617,1.19v-7.784H239.646z M236.902,180.62c-0.448-0.588-0.931-0.998-1.449-1.231
		s-1.099-0.351-1.743-0.351c-1.251,0-2.219,0.451-2.905,1.352c-0.686,0.9-1.029,2.214-1.029,3.94c0,0.905,0.077,1.678,0.231,2.317
		c0.154,0.64,0.378,1.162,0.672,1.568c0.294,0.405,0.655,0.704,1.085,0.896c0.429,0.191,0.915,0.287,1.456,0.287
		c0.793,0,1.479-0.177,2.058-0.532c0.579-0.354,1.12-0.854,1.624-1.498V180.62z"/>
	<path fill="#666771" d="M255.144,189.37c-0.336,0.393-0.724,0.73-1.162,1.016c-0.439,0.284-0.906,0.516-1.4,0.692
		c-0.495,0.178-1.006,0.309-1.533,0.393s-1.048,0.126-1.561,0.126c-0.98,0-1.888-0.166-2.723-0.497s-1.559-0.816-2.17-1.456
		s-1.087-1.433-1.428-2.38c-0.341-0.947-0.511-2.037-0.511-3.27c0-0.989,0.154-1.911,0.462-2.765
		c0.308-0.854,0.749-1.599,1.323-2.233c0.574-0.635,1.276-1.134,2.107-1.498c0.831-0.363,1.764-0.546,2.8-0.546
		c0.868,0,1.668,0.143,2.401,0.427c0.732,0.285,1.365,0.698,1.897,1.239c0.532,0.542,0.949,1.209,1.253,2.002
		c0.303,0.794,0.455,1.699,0.455,2.716c0,0.421-0.047,0.703-0.14,0.848s-0.266,0.217-0.518,0.217h-9.324
		c0.028,0.85,0.149,1.589,0.364,2.219c0.214,0.63,0.511,1.155,0.889,1.575c0.378,0.42,0.828,0.732,1.351,0.938
		c0.523,0.205,1.106,0.308,1.75,0.308c0.607,0,1.132-0.07,1.575-0.21s0.826-0.292,1.148-0.455c0.322-0.163,0.593-0.315,0.812-0.455
		s0.413-0.21,0.581-0.21c0.224,0,0.396,0.084,0.518,0.252L255.144,189.37z M252.89,182.706c0-0.541-0.077-1.04-0.231-1.498
		c-0.154-0.457-0.38-0.854-0.679-1.189c-0.299-0.336-0.663-0.598-1.092-0.784s-0.924-0.28-1.484-0.28
		c-1.148,0-2.051,0.332-2.709,0.994c-0.658,0.663-1.076,1.582-1.253,2.758H252.89z"/>
	<path fill="#666771" d="M279.965,187.088c0.168,0,0.313,0.064,0.434,0.195l1.176,1.288c-0.821,0.971-1.822,1.722-3.003,2.254
		s-2.602,0.798-4.263,0.798c-1.456,0-2.774-0.252-3.955-0.756c-1.181-0.504-2.189-1.208-3.024-2.114
		c-0.835-0.904-1.481-1.987-1.939-3.247c-0.457-1.261-0.686-2.646-0.686-4.158c0-1.513,0.24-2.898,0.721-4.158
		c0.48-1.26,1.155-2.343,2.023-3.248c0.868-0.905,1.906-1.61,3.115-2.114c1.208-0.504,2.545-0.756,4.011-0.756
		c1.428,0,2.697,0.233,3.808,0.7s2.077,1.087,2.898,1.862l-0.98,1.386c-0.065,0.103-0.147,0.187-0.245,0.252
		c-0.098,0.065-0.226,0.098-0.385,0.098c-0.177,0-0.385-0.088-0.623-0.266s-0.551-0.376-0.938-0.595
		c-0.387-0.22-0.866-0.418-1.435-0.596c-0.569-0.177-1.279-0.266-2.128-0.266c-0.999,0-1.914,0.175-2.744,0.525
		c-0.831,0.35-1.547,0.854-2.149,1.512s-1.069,1.465-1.4,2.422c-0.332,0.957-0.497,2.037-0.497,3.241
		c0,1.223,0.172,2.31,0.518,3.262c0.345,0.952,0.821,1.76,1.428,2.422c0.607,0.663,1.321,1.167,2.142,1.512
		c0.821,0.346,1.708,0.519,2.66,0.519c0.579,0,1.099-0.035,1.561-0.105c0.462-0.069,0.887-0.175,1.274-0.314
		c0.387-0.141,0.753-0.319,1.099-0.539c0.345-0.22,0.686-0.483,1.022-0.791c0.075-0.065,0.154-0.119,0.238-0.161
		S279.872,187.088,279.965,187.088z"/>
	<path fill="#666771" d="M290.087,176.952c1.045,0,1.99,0.171,2.835,0.512s1.563,0.83,2.156,1.47c0.592,0.64,1.047,1.409,1.365,2.31
		c0.317,0.901,0.476,1.911,0.476,3.031s-0.159,2.133-0.476,3.038s-0.772,1.676-1.365,2.31c-0.593,0.635-1.312,1.123-2.156,1.463
		c-0.845,0.341-1.79,0.512-2.835,0.512c-1.055,0-2.004-0.171-2.849-0.512c-0.845-0.34-1.565-0.828-2.163-1.463
		c-0.597-0.634-1.057-1.404-1.379-2.31c-0.322-0.905-0.483-1.918-0.483-3.038s0.161-2.13,0.483-3.031
		c0.322-0.9,0.782-1.67,1.379-2.31c0.598-0.64,1.318-1.129,2.163-1.47S289.032,176.952,290.087,176.952z M290.087,189.468
		c1.344,0,2.347-0.453,3.01-1.358c0.663-0.905,0.994-2.179,0.994-3.822c0-1.643-0.331-2.919-0.994-3.829
		c-0.663-0.909-1.666-1.364-3.01-1.364c-1.363,0-2.378,0.455-3.045,1.364c-0.667,0.91-1.001,2.187-1.001,3.829
		c0,1.644,0.333,2.917,1.001,3.822C287.709,189.015,288.724,189.468,290.087,189.468z"/>
	<path fill="#666771" d="M302.687,178.982c0.597-0.606,1.258-1.097,1.981-1.47s1.556-0.561,2.499-0.561
		c0.784,0,1.472,0.131,2.065,0.393c0.593,0.261,1.09,0.628,1.491,1.099c0.401,0.472,0.705,1.038,0.91,1.701
		c0.205,0.663,0.308,1.396,0.308,2.198v9.058h-2.744v-9.058c0-1.018-0.233-1.809-0.7-2.373s-1.181-0.848-2.142-0.848
		c-0.7,0-1.356,0.166-1.967,0.497c-0.611,0.332-1.179,0.782-1.701,1.352v10.43h-2.73v-20.664h2.73V178.982z"/>
	<path fill="#666771" d="M327.299,189.37c-0.336,0.393-0.724,0.73-1.162,1.016c-0.439,0.284-0.906,0.516-1.4,0.692
		c-0.495,0.178-1.006,0.309-1.533,0.393s-1.048,0.126-1.561,0.126c-0.98,0-1.888-0.166-2.723-0.497s-1.559-0.816-2.17-1.456
		s-1.087-1.433-1.428-2.38c-0.341-0.947-0.511-2.037-0.511-3.27c0-0.989,0.154-1.911,0.462-2.765
		c0.308-0.854,0.749-1.599,1.323-2.233c0.574-0.635,1.276-1.134,2.107-1.498c0.831-0.363,1.764-0.546,2.8-0.546
		c0.868,0,1.668,0.143,2.401,0.427c0.732,0.285,1.365,0.698,1.897,1.239c0.532,0.542,0.949,1.209,1.253,2.002
		c0.303,0.794,0.455,1.699,0.455,2.716c0,0.421-0.047,0.703-0.14,0.848s-0.266,0.217-0.518,0.217h-9.324
		c0.028,0.85,0.149,1.589,0.364,2.219c0.214,0.63,0.511,1.155,0.889,1.575c0.378,0.42,0.828,0.732,1.351,0.938
		c0.523,0.205,1.106,0.308,1.75,0.308c0.607,0,1.132-0.07,1.575-0.21s0.826-0.292,1.148-0.455c0.322-0.163,0.593-0.315,0.812-0.455
		s0.413-0.21,0.581-0.21c0.224,0,0.396,0.084,0.518,0.252L327.299,189.37z M325.044,182.706c0-0.541-0.077-1.04-0.231-1.498
		c-0.154-0.457-0.38-0.854-0.679-1.189c-0.299-0.336-0.663-0.598-1.092-0.784s-0.924-0.28-1.484-0.28
		c-1.148,0-2.051,0.332-2.709,0.994c-0.658,0.663-1.076,1.582-1.253,2.758H325.044z"/>
	<path fill="#666771" d="M338.834,179.625c-0.075,0.122-0.154,0.208-0.238,0.26c-0.084,0.051-0.191,0.076-0.322,0.076
		c-0.149,0-0.315-0.051-0.497-0.153s-0.401-0.215-0.658-0.336s-0.558-0.233-0.903-0.336s-0.756-0.154-1.232-0.154
		c-0.392,0-0.749,0.049-1.071,0.146c-0.322,0.099-0.595,0.234-0.819,0.406c-0.224,0.173-0.397,0.378-0.518,0.616
		s-0.182,0.492-0.182,0.763c0,0.355,0.105,0.649,0.315,0.883s0.485,0.434,0.826,0.602s0.728,0.319,1.162,0.455
		s0.877,0.277,1.33,0.427c0.453,0.149,0.896,0.32,1.33,0.511c0.434,0.191,0.821,0.43,1.162,0.715
		c0.341,0.284,0.616,0.627,0.826,1.028s0.315,0.892,0.315,1.47c0,0.663-0.119,1.277-0.357,1.842
		c-0.238,0.564-0.588,1.052-1.05,1.463c-0.462,0.41-1.034,0.732-1.715,0.966s-1.46,0.35-2.338,0.35c-0.98,0-1.885-0.163-2.716-0.489
		c-0.831-0.327-1.526-0.742-2.086-1.246l0.644-1.05c0.074-0.131,0.168-0.231,0.28-0.302c0.112-0.069,0.261-0.104,0.448-0.104
		c0.177,0,0.359,0.065,0.546,0.195c0.187,0.131,0.411,0.273,0.672,0.428c0.261,0.153,0.579,0.294,0.952,0.42
		c0.373,0.126,0.84,0.188,1.4,0.188c0.466,0,0.873-0.058,1.218-0.175c0.345-0.116,0.632-0.275,0.861-0.476
		c0.229-0.201,0.399-0.432,0.511-0.693c0.112-0.261,0.168-0.536,0.168-0.826c0-0.373-0.105-0.684-0.315-0.931
		s-0.485-0.46-0.826-0.637c-0.34-0.178-0.73-0.332-1.169-0.462c-0.438-0.131-0.887-0.271-1.344-0.421
		c-0.458-0.148-0.905-0.321-1.344-0.518c-0.438-0.196-0.828-0.443-1.169-0.742s-0.616-0.662-0.826-1.092
		c-0.21-0.429-0.315-0.952-0.315-1.568c0-0.55,0.114-1.077,0.343-1.582c0.229-0.504,0.56-0.947,0.994-1.33
		c0.434-0.382,0.97-0.688,1.61-0.917c0.639-0.229,1.37-0.343,2.191-0.343c0.943,0,1.794,0.149,2.555,0.448
		c0.76,0.299,1.412,0.709,1.953,1.232L338.834,179.625z"/>
	<path fill="#666771" d="M345.988,172.78c0,0.252-0.051,0.492-0.154,0.721c-0.103,0.229-0.241,0.43-0.413,0.603
		c-0.173,0.173-0.376,0.308-0.609,0.406c-0.233,0.098-0.476,0.146-0.728,0.146s-0.49-0.049-0.714-0.146
		c-0.224-0.099-0.422-0.233-0.595-0.406c-0.173-0.173-0.308-0.373-0.406-0.603c-0.098-0.229-0.147-0.469-0.147-0.721
		c0-0.261,0.049-0.506,0.147-0.735c0.098-0.229,0.233-0.429,0.406-0.602c0.172-0.173,0.371-0.308,0.595-0.406
		c0.224-0.098,0.462-0.146,0.714-0.146s0.495,0.049,0.728,0.146c0.233,0.099,0.436,0.233,0.609,0.406
		c0.172,0.173,0.31,0.373,0.413,0.602C345.937,172.274,345.988,172.519,345.988,172.78z M345.47,177.176V191.4h-2.73v-14.224H345.47
		z"/>
	<path fill="#666771" d="M355.494,176.952c1.045,0,1.99,0.171,2.835,0.512s1.563,0.83,2.156,1.47c0.592,0.64,1.047,1.409,1.365,2.31
		c0.317,0.901,0.476,1.911,0.476,3.031s-0.159,2.133-0.476,3.038s-0.772,1.676-1.365,2.31c-0.593,0.635-1.312,1.123-2.156,1.463
		c-0.845,0.341-1.79,0.512-2.835,0.512c-1.055,0-2.004-0.171-2.849-0.512c-0.845-0.34-1.565-0.828-2.163-1.463
		c-0.597-0.634-1.057-1.404-1.379-2.31c-0.322-0.905-0.483-1.918-0.483-3.038s0.161-2.13,0.483-3.031
		c0.322-0.9,0.782-1.67,1.379-2.31c0.598-0.64,1.318-1.129,2.163-1.47S354.439,176.952,355.494,176.952z M355.494,189.468
		c1.344,0,2.347-0.453,3.01-1.358c0.663-0.905,0.994-2.179,0.994-3.822c0-1.643-0.331-2.919-0.994-3.829
		c-0.663-0.909-1.666-1.364-3.01-1.364c-1.363,0-2.378,0.455-3.045,1.364c-0.667,0.91-1.001,2.187-1.001,3.829
		c0,1.644,0.333,2.917,1.001,3.822C353.116,189.015,354.131,189.468,355.494,189.468z M359.778,171.072l-3.318,3.612
		c-0.14,0.158-0.275,0.269-0.406,0.329c-0.131,0.061-0.303,0.091-0.518,0.091h-1.652l2.072-3.388
		c0.131-0.215,0.273-0.376,0.427-0.483c0.154-0.107,0.394-0.161,0.721-0.161H359.778z"/>
	<path fill="#666771" d="M367.926,179.15c0.308-0.326,0.63-0.625,0.966-0.896c0.336-0.271,0.693-0.501,1.071-0.692
		s0.784-0.341,1.218-0.448s0.898-0.161,1.393-0.161c0.784,0,1.472,0.131,2.065,0.393c0.593,0.261,1.09,0.628,1.491,1.099
		c0.401,0.472,0.705,1.038,0.91,1.701c0.205,0.663,0.308,1.396,0.308,2.198v9.058h-2.744v-9.058c0-1.018-0.233-1.809-0.7-2.373
		s-1.181-0.848-2.142-0.848c-0.7,0-1.356,0.166-1.967,0.497c-0.611,0.332-1.179,0.782-1.701,1.352v10.43h-2.73v-14.224h1.638
		c0.382,0,0.621,0.182,0.714,0.546L367.926,179.15z"/>
</g>
</svg>
